<svg xmlns="http://www.w3.org/2000/svg" xmlns:xlink="http://www.w3.org/1999/xlink" width="167" height="151" viewBox="0 0 167 151">
    <defs>
        <path id="a" d="M0 .05h166.988v109.813H0z"/>
    </defs>
    <g fill="none" fill-rule="evenodd">
        <path fill="#F2F2F8" d="M107 147c11.046 0 20 .895 20 2s-8.954 2-20 2-20-.895-20-2 8.954-2 20-2M46 148c8.284 0 15 .448 15 1s-6.716 1-15 1c-8.284 0-15-.448-15-1s6.716-1 15-1"/>
        <g transform="translate(0 1)">
            <mask id="b" fill="#fff">
                <use xlink:href="#a"/>
            </mask>
            <path fill="#F2F2F8" d="M51.562 5.805C57.227.76 66.122-.274 74.216.128c25.426 1.263 48.378 13.541 68.232 27.43 7.188 5.027 14.263 10.445 18.928 17.37 9.504 14.092 6.68 33.616-6.525 45.227-4.494 3.95-9.94 6.985-15.532 9.664-9.942 4.774-20.67 8.606-31.953 9.7-8.048.776-16.194.145-24.193-.941-22.352-3.034-44.29-9.739-62.678-21.205-8.065-5.044-15.668-11.29-18.993-19.43-3.324-8.138-1.196-18.45 7.04-23.268 3.405-1.992 7.478-2.892 11.464-3.736 5.87-1.244 11.832-2.47 17.129-5 5.47-2.611 11.946-7.661 10.862-13.44-1.16-6.203-2.093-11.65 3.565-16.694" mask="url(#b)"/>
        </g>
        <path fill="#DCDDE1" d="M120.122 76.035V39.043h5.081V28H88.791v11.043h5.081v36.992C79.504 81.444 70.003 95.09 70 110.325 70 130.582 86.566 147 107 147c20.435 0 37-16.42 37-36.674-.004-15.236-9.508-28.885-23.878-34.291"/>
        <path fill="#BABCC2" d="M93 39h27v-1H93zM86 108.424s22.118-.388 33.177-5.93c11.059-5.542 17.378-.594 16.785 2.768-.594 3.363-3.75 9.883-16.39 10.684-12.638.8-33.572-7.522-33.572-7.522"/>
        <path fill="#FFF" d="M76.042 105.234s-2.384 33.16 28.883 33.758c31.267.599 31.075-33.365 31.075-33.365s-11.548 12.582-38.844 2.196c0 .008-14.143-3.788-21.114-2.589"/>
        <path fill="#BABCC2" d="M135.892 106.12c-.624 7.554-4.674 31.198-30.96 30.7-25.768-.484-28.686-22.822-28.915-30.68-.143 4.217-.016 32.303 28.909 32.853C136.199 139.575 136 106 136 106s-.04.049-.108.12"/>
        <path fill="#FFF" d="M106 88a4 4 0 1 1 0 8 4 4 0 0 1 0-8M108 74a2 2 0 1 1 0 4 2 2 0 0 1 0-4M103 59a2 2 0 1 1 0 4 2 2 0 0 1 0-4M81.08 94.218c-.182 1.76-.146 3.96 1.141 4.782-1.08-.688 3.346-8.493 2.718-10.086-1.343-3.402-3.695 3.67-3.86 5.304"/>
        <path fill="#DCDDE1" d="M100 12a4 4 0 1 1 0 8 4 4 0 0 1 0-8M112 7a3 3 0 1 1 0 6 3 3 0 0 1 0-6M104 0a2 2 0 1 1 0 4 2 2 0 0 1 0-4M62 51H30v9.71h4.876v75.757c-.08 6.287 4.836 11.45 10.98 11.532 6.144.082 11.19-4.947 11.271-11.233a11.1 11.1 0 0 0 0-.299V60.71H62V51z"/>
        <path fill="#BABCC2" d="M42 78.466s7.823-2.693 10-.779c0 0-3.168 4.488-6.085 4.308-2.917-.18-3.915-3.53-3.915-3.53"/>
        <path fill="#FFF" d="M52 77.206v53.976c0 3.765-2.91 6.818-6.5 6.818s-6.5-3.053-6.5-6.818V77.206s3.13-.884 6.078 1.011c2.948 1.895 6.922-1.01 6.922-1.01"/>
        <path fill="#BABCC2" d="M35 61h23v-1H35zM45.5 134.669c-3.59 0-6.5-2.985-6.5-6.667V128v3.333c0 3.682 2.91 6.667 6.5 6.667s6.5-2.985 6.5-6.667V128c0 3.682-2.908 6.667-6.498 6.669H45.5z"/>
        <path fill="#FFF" d="M45.5 68a1.5 1.5 0 1 1 0 3 1.5 1.5 0 0 1 0-3M50 64a1 1 0 1 1 0 2 1 1 0 0 1 0-2M44 62a1 1 0 1 1 0 2 1 1 0 0 1 0-2"/>
        <path fill="#DCDDE1" d="M48.5 38a3.5 3.5 0 1 1 0 7 3.5 3.5 0 0 1 0-7M38.5 29a2.5 2.5 0 1 1 0 5 2.5 2.5 0 0 1 0-5M44.5 20a1.5 1.5 0 1 1 0 3 1.5 1.5 0 0 1 0-3"/>
    </g>
</svg>
