<svg xmlns="http://www.w3.org/2000/svg" width="74" height="97" viewBox="0 0 74 97">
    <g fill="none" fill-rule="evenodd">
        <path fill="#F2F2F8" d="M50 94c7.18 0 13 .672 13 1.5S57.18 97 50 97s-13-.672-13-1.5S42.82 94 50 94M10.5 95c5.247 0 9.5.448 9.5 1s-4.253 1-9.5 1S1 96.552 1 96s4.253-1 9.5-1"/>
        <path fill="#DCDDE1" d="M58.511 48.678V25.053h3.297V18h-23.62v7.053h3.297v23.625c-9.32 3.454-15.483 12.17-15.485 21.9C26 83.514 36.746 94 50 94c13.255 0 24-10.486 24-23.422-.003-9.73-6.167-18.447-15.489-21.9"/>
        <path fill="#BABCC2" d="M41 25h17v-1H41zM37 69.265s14.156-.243 21.233-3.706c7.078-3.464 11.122-.372 10.742 1.73-.38 2.101-2.4 6.177-10.488 6.677-8.089.5-21.487-4.7-21.487-4.7"/>
        <path fill="#FFF" d="M30.027 67.152s-1.55 21.455 18.774 21.843C69.125 89.382 69 67.405 69 67.405s-7.506 8.142-25.248 1.422c0 .005-9.193-2.451-13.725-1.675"/>
        <path fill="#BABCC2" d="M68.93 68.077c-.406 4.806-3.038 19.852-20.124 19.535C32.056 87.305 30.16 73.09 30.01 68.09c-.093 2.684-.01 20.557 18.79 20.906C69.13 89.365 69 68 69 68s-.025.03-.07.077"/>
        <path fill="#FFF" d="M49.5 56a2.5 2.5 0 1 1 0 5 2.5 2.5 0 0 1 0-5M50.5 47a1.5 1.5 0 1 1 0 3 1.5 1.5 0 0 1 0-3M47.5 38a1.5 1.5 0 1 1 0 3 1.5 1.5 0 0 1 0-3M33.06 59.957c-.137 1.12-.11 2.52.856 3.043-.81-.438 2.509-5.404 2.038-6.419-1.007-2.164-2.771 2.336-2.895 3.376"/>
        <path fill="#DCDDE1" d="M45.5 8a2.5 2.5 0 1 1 0 5 2.5 2.5 0 0 1 0-5M53.5 5a1.5 1.5 0 1 1 0 3 1.5 1.5 0 0 1 0-3M48.5 0a1.5 1.5 0 1 1 0 3 1.5 1.5 0 0 1 0-3M21 33H0v6.207h3.2v48.422c-.053 4.018 3.173 7.318 7.205 7.37 4.033.053 7.344-3.162 7.397-7.18V39.207H21V33z"/>
        <path fill="#BABCC2" d="M8 50.88s4.694-1.616 6-.468c0 0-1.9 2.693-3.65 2.585C8.598 52.889 8 50.879 8 50.879"/>
        <path fill="#FFF" d="M15 49.132V83.64C15 86.048 12.985 88 10.5 88S6 86.048 6 83.641v-34.51s2.166-.565 4.208.647c2.04 1.212 4.792-.646 4.792-.646"/>
        <path fill="#BABCC2" d="M3 39h15v-1H3zM10.5 86.001c-2.485 0-4.5-1.79-4.5-4V82v2c0 2.21 2.015 4 4.5 4s4.5-1.79 4.5-4v-2c0 2.21-2.013 4-4.499 4.001H10.5z"/>
        <path fill="#FFF" d="M10 44a1 1 0 1 1 0 2 1 1 0 0 1 0-2M13.5 42a.5.5 0 1 1 0 1 .5.5 0 0 1 0-1M9.5 40a.5.5 0 1 1 0 1 .5.5 0 0 1 0-1"/>
        <path fill="#DCDDE1" d="M13 24a2 2 0 1 1 0 4 2 2 0 0 1 0-4M6.5 18a1.5 1.5 0 1 1 0 3 1.5 1.5 0 0 1 0-3M10 13a1 1 0 1 1 0 2 1 1 0 0 1 0-2"/>
    </g>
</svg>
