<svg xmlns="http://www.w3.org/2000/svg" width="18" height="20" viewBox="0 0 18 20">
    <path fill="#151C3D" fill-rule="evenodd" d="M14.526 5.57a1.963 1.963 0 0 1-2.752.3 1.963 1.963 0 0 1-.3-2.751 1.963 1.963 0 0 1 2.751-.302c.84.674.975 1.912.3 2.752m-7.33-3.374A5.867 5.867 0 0 0 6.78 8.95L.433 16.857a1.944 1.944 0 0 0 .398 2.818c.858.588 2.043.347 2.699-.47l.551-.687 1.775-.194a.986.986 0 0 0 .87-1.083l-.194-1.776 1.774-.193a.986.986 0 0 0 .87-1.084l-.194-1.775.815-1.015a5.868 5.868 0 0 0 6.556-1.852 5.877 5.877 0 0 0-.903-8.255 5.876 5.876 0 0 0-8.255.904"/>
</svg>
