<svg xmlns="http://www.w3.org/2000/svg" width="30" height="30" viewBox="0 0 30 30">
    <g fill="none" fill-rule="evenodd">
        <path fill="#FEA430" d="M15 2c-.848 0-1.631.423-2.066 1.155L.326 24.458a2.323 2.323 0 0 0 0 2.374c.363.612 1.051 1.17 1.901 1.168h25.546c.85 0 1.537-.556 1.9-1.168a2.323 2.323 0 0 0 0-2.374L17.067 3.155A2.378 2.378 0 0 0 15 2"/>
        <path fill="#FEE8CB" d="M14.843 20.556a2.232 2.232 0 0 0-2.243 2.222A2.232 2.232 0 0 0 14.843 25a2.232 2.232 0 0 0 2.242-2.222 2.232 2.232 0 0 0-2.242-2.222m0-11.556a2.233 2.233 0 0 0-2.243 2.222l.449 6.667c0 .982.803 1.778 1.794 1.778.99 0 1.794-.796 1.794-1.778l.448-6.667A2.232 2.232 0 0 0 14.843 9"/>
    </g>
</svg>
