<svg xmlns="http://www.w3.org/2000/svg" width="14" height="20" viewBox="0 0 14 20">
    <path fill="#151C3D" fill-rule="evenodd" d="M7.811 13.82v2.217a.908.908 0 0 1-1.816 0V13.82a1.612 1.612 0 1 1 1.816 0zM3.94 4.558a2.967 2.967 0 0 1 2.963-2.963 2.967 2.967 0 0 1 2.963 2.963v3.46H3.94v-3.46zm8.09 3.46h-.57v-3.46A4.563 4.563 0 0 0 6.904 0a4.564 4.564 0 0 0-4.558 4.558v3.46h-.57C.795 8.019 0 8.814 0 9.794v8.234c0 .98.795 1.775 1.775 1.775H12.03c.98 0 1.776-.795 1.776-1.775V9.793c0-.98-.795-1.774-1.776-1.774z"/>
</svg>
