<svg xmlns="http://www.w3.org/2000/svg" width="30" height="30" viewBox="0 0 30 30">
    <g fill="none" fill-rule="evenodd">
        <path fill="#0774D3" d="M15 0c8.284 0 15 6.716 15 15 0 8.284-6.716 15-15 15-8.284 0-15-6.716-15-15C0 6.716 6.716 0 15 0z"/>
        <path fill="#E6F1FA" d="M14.62 10.985c1.104 0 2.019-.888 2.019-1.992S15.724 7 14.619 7c-1.103 0-2.019.889-2.019 1.993s.916 1.992 2.02 1.992zM12.6 21.083c0 1.023.916 1.858 2.02 1.858s2.019-.835 2.019-1.858v-7.217c0-1.023-.915-1.858-2.02-1.858-1.103 0-2.019.835-2.019 1.858v7.217z"/>
    </g>
</svg>
