<svg xmlns="http://www.w3.org/2000/svg" xmlns:xlink="http://www.w3.org/1999/xlink" width="208" height="30" viewBox="0 0 208 30">
    <defs>
        <path id="a" d="M.081.096h7.36V4.73H.082z"/>
        <path id="c" d="M0 30.222h207.957V.698H0z"/>
    </defs>
    <g fill="none" fill-rule="evenodd" transform="translate(0 -.698)">
        <path fill="#FFF" d="M193.876 23.005c-.036.335-.072.67-.112 1.004h11.415a14.66 14.66 0 0 0 2.235-4.635h-7.574a7.574 7.574 0 0 1-5.964 3.63M179.325 19.374a14.657 14.657 0 0 0 2.234 4.635h2.891a15.134 15.134 0 0 1-2.134-4.635h-2.991z"/>
        <g transform="translate(200.515 12.978)">
            <mask id="b" fill="#fff">
                <use xlink:href="#a"/>
            </mask>
            <path fill="#FFF" d="M.081 4.731h7.18a14.885 14.885 0 0 0 0-4.635H.08c.231.73.357 1.51.357 2.318S.312 4 .081 4.73" mask="url(#b)"/>
        </g>
        <path fill="#FFF" d="M181.98 13.074h-3.017a14.837 14.837 0 0 0 0 4.636h3.01c-.113-.748-.18-1.51-.18-2.289 0-.799.07-1.581.188-2.347M203.78 5.11A14.498 14.498 0 0 0 193.37.712c-.066 0-.13.004-.194.005.247 1.46.45 2.925.618 4.393h9.986zM193.101.72a14.498 14.498 0 0 0-10.143 4.39h2.849A15.069 15.069 0 0 1 193.1.72M181.56 6.774a14.658 14.658 0 0 0-2.235 4.636h3.006a15.141 15.141 0 0 1 2.157-4.636h-2.929zM207.414 11.41a14.654 14.654 0 0 0-2.235-4.636h-11.211c.032.34.06.679.088 1.019a7.577 7.577 0 0 1 5.784 3.617h7.574zM185.758 25.673h-2.8a14.499 14.499 0 0 0 10.411 4.398c4.078 0 7.764-1.684 10.41-4.398h-10.228a81.257 81.257 0 0 1-.723 4.376 15.083 15.083 0 0 1-7.07-4.376z"/>
        <path fill="#37B34A" d="M193.101.736l.132-.003-.005-.035c-.043.01-.084.027-.127.038z"/>
        <path fill="#9BC7ED" d="M186.898 19.374h-4.583a15.13 15.13 0 0 0 2.135 4.635h9.314c.04-.334.076-.67.112-1.004a7.57 7.57 0 0 1-6.977-3.631zM181.98 13.074a15.367 15.367 0 0 0-.187 2.347c0 .779.067 1.541.18 2.289h4.169a7.668 7.668 0 0 1-.357-2.318c0-.809.125-1.587.357-2.318h-4.161zM193.794 5.11a82.223 82.223 0 0 0-.618-4.393l-.075.002a15.068 15.068 0 0 0-7.294 4.391h7.987zM194.056 7.793c-.027-.34-.056-.68-.088-1.019h-9.48a15.146 15.146 0 0 0-2.157 4.636h4.567a7.57 7.57 0 0 1 7.158-3.617zM193.55 25.673h-7.792a15.083 15.083 0 0 0 7.07 4.376c.282-1.453.52-2.912.723-4.376z"/>
        <path fill="#DD1C4D" d="M193.727 12.353v2.74h2.864a10.32 10.32 0 0 0-.434-2.74h-2.43zM193.727 15.689v2.74h2.43a10.32 10.32 0 0 0 .434-2.74h-2.864zM193.136 18.43v-2.741h-2.865c.027.988.183 1.922.435 2.74h2.43zM193.136 21.447v-2.423h-2.222c.526 1.333 1.326 2.255 2.222 2.423M193.136 15.094v-2.741h-2.43a10.311 10.311 0 0 0-.435 2.74h2.865zM196.598 19.024c-.314.879-.742 1.61-1.249 2.136.318-.107.624-.24.915-.396a6.116 6.116 0 0 0 1.963-1.74h-1.629zM193.136 11.758V9.336h-.009c-.892.173-1.689 1.094-2.213 2.422h2.222zM193.727 19.024v2.423c.895-.168 1.696-1.09 2.222-2.423h-2.222zM191.513 21.16c-.507-.526-.934-1.258-1.249-2.135h-1.68a6.074 6.074 0 0 0 2.93 2.135M190.075 18.43a11.15 11.15 0 0 1-.394-2.741h-2.289a6.07 6.07 0 0 0 .804 2.74h1.879zM197.182 15.689a11.15 11.15 0 0 1-.394 2.74h1.82c.461-.815.74-1.747.783-2.74h-2.209zM196.788 12.353c.232.824.37 1.751.394 2.74h2.206a6.08 6.08 0 0 0-.821-2.74h-1.78zM193.727 9.345v2.413h2.222c-.513-1.298-1.286-2.206-2.154-2.408l-.068-.005zM195.427 9.704c.473.52.873 1.221 1.171 2.054h1.575a6.09 6.09 0 0 0-2.746-2.054M188.584 11.758h1.68c.315-.878.742-1.61 1.25-2.136a6.073 6.073 0 0 0-2.93 2.136M189.68 15.094c.024-.99.163-1.917.395-2.741h-1.879a6.068 6.068 0 0 0-.804 2.74h2.289z"/>
        <mask id="d" fill="#fff">
            <use xlink:href="#c"/>
        </mask>
        <path fill="#FFF" d="M0 29.746h6.066V1.998H0zM8.785 15.872c0-7.888 5.909-14.35 14.378-14.35 5.2 0 8.312 1.745 10.873 4.282l-3.86 4.479c-2.128-1.942-4.295-3.131-7.052-3.131-4.649 0-7.997 3.884-7.997 8.641v.08c0 4.756 3.27 8.72 7.997 8.72 3.151 0 5.082-1.268 7.248-3.25l3.86 3.924c-2.836 3.052-5.987 4.955-11.305 4.955-8.115 0-14.142-6.303-14.142-14.27v-.08z" mask="url(#d)"/>
        <path fill="#FFF" d="M34.115 15.952v-.08c0-7.888 6.106-14.35 14.457-14.35 4.964 0 7.958 1.348 10.834 3.806l-3.822 4.638c-2.127-1.784-4.018-2.814-7.209-2.814-4.412 0-7.918 3.924-7.918 8.641v.08c0 5.073 3.467 8.8 8.352 8.8 2.206 0 4.175-.556 5.712-1.665v-3.964h-6.106V13.77H60.39v12.05c-2.836 2.419-6.736 4.401-11.778 4.401-8.588 0-14.497-6.065-14.497-14.27M62.045 15.952v-.08c0-7.888 5.91-14.35 14.379-14.35 5.2 0 8.312 1.745 10.872 4.282l-3.86 4.479c-2.127-1.942-4.294-3.131-7.052-3.131-4.648 0-7.996 3.884-7.996 8.641v.08c0 4.756 3.27 8.72 7.996 8.72 3.152 0 5.082-1.268 7.249-3.25l3.86 3.924c-2.836 3.052-5.987 4.955-11.306 4.955-8.114 0-14.142-6.303-14.142-14.27M114.084 18.132l-3.664-8.998-3.664 8.998h7.328zM107.702 1.8h5.594l11.818 27.946h-6.343l-2.52-6.223H104.59l-2.521 6.223h-6.185L107.702 1.8zM138.626 15.476c2.954 0 4.648-1.586 4.648-3.925v-.079c0-2.616-1.812-3.964-4.766-3.964h-6.027v7.968h6.145zM126.414 1.998h12.606c3.506 0 6.224.991 8.036 2.815 1.537 1.546 2.364 3.726 2.364 6.342v.08c0 4.479-2.403 7.293-5.91 8.601l6.737 9.91h-7.09l-5.91-8.88h-4.766v8.88h-6.067V1.998zM150.72 15.952v-.08c0-7.888 6.106-14.35 14.457-14.35 4.964 0 7.958 1.348 10.833 3.806l-3.82 4.638c-2.128-1.784-4.019-2.814-7.21-2.814-4.412 0-7.918 3.924-7.918 8.641v.08c0 5.073 3.467 8.8 8.351 8.8 2.207 0 4.176-.556 5.713-1.665v-3.964h-6.106V13.77h11.975v12.05c-2.836 2.419-6.736 4.401-11.779 4.401-8.587 0-14.496-6.065-14.496-14.27" mask="url(#d)"/>
    </g>
</svg>
