<svg
    xmlns="http://www.w3.org/2000/svg"
    xmlns:xlink="http://www.w3.org/1999/xlink"
    width="200"
    height="147"
    viewBox="0 0 200 147"
    >
  <defs>
    <path id="a" d="M.071 18.754L87.11.098l25.803 120.136-87.039 18.656z" />
    <path
        id="c"
        d="M4.73.312C1.542 1.029-.475 4.38.226 7.797c.701 3.417 3.852 5.61 7.034 4.893 3.182-.717 5.206-4.07 4.504-7.486C11.153 2.224 8.683.176 5.947.176c-.402 0-.81.044-1.217.136M2.528 7.377c-.447-1.962.71-3.932 2.584-4.4 1.874-.469 3.756.743 4.202 2.705l.015.068c.429 1.942-.727 3.88-2.582 4.33a3.344 3.344 0 0 1-.828.104c-1.578 0-3.009-1.13-3.39-2.807"
        />
    <path id="e" d="M.166.171H11.94V11.99H.166z" />
    <path id="g" d="M0 147h199.937V.171H0z" />
    <path
        id="i"
        d="M.052 6.052c0 3.283 2.644 5.943 5.905 5.943 3.26 0 5.905-2.66 5.905-5.943C11.862 2.77 9.218.11 5.957.11 2.697.11.052 2.77.052 6.052m2.335.083C2.34 4.24 3.865 2.67 5.79 2.625c1.926-.045 3.525 1.454 3.57 3.347l.001.08c.014 1.866-1.508 3.391-3.405 3.413v.016l-.084.001c-1.889 0-3.441-1.481-3.486-3.347"
        />
  </defs>
  <g fill="none" fill-rule="evenodd">
    <path
        fill="#F2F2F8"
        d="M116.202 27.09c-12.822-.443-25.033-4.588-36.694-9.121-11.66-4.534-23.21-9.555-35.725-11.956-8.05-1.545-17.255-1.765-23.74 2.55-6.242 4.164-8.259 11.333-9.342 17.99-.817 5.01-1.296 10.283.939 14.972 1.553 3.257 4.307 5.993 6.213 9.113 6.63 10.851 1.943 24.233-5.24 34.828-3.368 4.97-7.281 9.717-9.882 15.002s-3.804 11.361-1.528 16.767c2.255 5.354 7.63 9.368 13.452 12.194 11.825 5.741 25.754 7.383 39.346 8.315 30.08 2.059 60.317 1.168 90.475.274 11.161-.33 22.37-.664 33.35-2.392 6.098-.96 12.391-2.483 16.82-6.16 5.618-4.665 7.01-12.566 3.244-18.416-6.316-9.816-23.773-12.253-28.193-22.785-2.429-5.799.066-12.256 3.598-17.632 7.576-11.535 20.272-21.655 20.94-34.839.46-9.054-5.644-18.123-15.082-22.408-9.892-4.492-23.61-3.927-30.905 3.508-7.518 7.647-20.724 10.591-32.046 10.197"
        />
    <path fill="#DCDDE1" d="M28 22.356L54.754 147 145 127.644 118.246 3z" />
    <g transform="translate(30 5)">
      <mask id="b" fill="#fff">
        <use xlink:href="#a" />
      </mask>
      <path d="M.071 18.754L87.11.098l25.803 120.136-87.039 18.656z" mask="url(#b)" />
    </g>
    <path fill="#FAFAFA" d="M31 24.227L115.78 6 141 123.774 56.22 142z" />
    <path fill="#DCDDE1" d="M52 14.924L93.826 6 96 16.075 54.174 25z" />
    <g transform="translate(66)">
      <mask id="d" fill="#fff">
        <use xlink:href="#c" />
      </mask>
      <path
          d="M4.73.312C1.542 1.029-.475 4.38.226 7.797c.701 3.417 3.852 5.61 7.034 4.893 3.182-.717 5.206-4.07 4.504-7.486C11.153 2.224 8.683.176 5.947.176c-.402 0-.81.044-1.217.136M2.528 7.377c-.447-1.962.71-3.932 2.584-4.4 1.874-.469 3.756.743 4.202 2.705l.015.068c.429 1.942-.727 3.88-2.582 4.33a3.344 3.344 0 0 1-.828.104c-1.578 0-3.009-1.13-3.39-2.807"
          mask="url(#d)"
          />
    </g>
    <g>
      <path fill="#BABCC2" d="M52.025 14.287L93.204 5.42l2.09 9.776-41.18 8.867z" />
      <g transform="translate(65.753)">
        <mask id="f" fill="#fff">
          <use xlink:href="#e" />
        </mask>
        <path
            fill="#BABCC2"
            d="M6.765 9.42a3.397 3.397 0 0 1-4.034-2.618 3.41 3.41 0 0 1 2.609-4.05 3.397 3.397 0 0 1 4.034 2.619 3.41 3.41 0 0 1-2.609 4.05M4.818.303C1.639.989-.384 4.13.298 7.32c.682 3.19 3.812 5.22 6.99 4.536 3.179-.685 5.202-3.825 4.52-7.015-.681-3.19-3.81-5.221-6.99-4.537"
            mask="url(#f)"
            />
      </g>
      <mask id="h" fill="#fff">
        <use xlink:href="#g" />
      </mask>
      <path fill="#DCDDE1" d="M67.807 145.912h92.1V18.198h-92.1z" mask="url(#h)" />
      <path d="M69.364 143.755h88.988V20.357H69.364z" mask="url(#h)" />
      <path fill="#FFF" d="M70.495 141.938h86.723V21.267H70.495z" mask="url(#h)" />
      <path fill="#DCDDE1" d="M92.46 26.493h43.022V16.034H92.46z" mask="url(#h)" />
    </g>
    <g transform="translate(108 6)">
      <mask id="j" fill="#fff">
        <use xlink:href="#i" />
      </mask>
      <path
          d="M.052 6.052c0 3.283 2.644 5.943 5.905 5.943 3.26 0 5.905-2.66 5.905-5.943C11.862 2.77 9.218.11 5.957.11 2.697.11.052 2.77.052 6.052m2.335.083C2.34 4.24 3.865 2.67 5.79 2.625c1.926-.045 3.525 1.454 3.57 3.347l.001.08c.014 1.866-1.508 3.391-3.405 3.413v.016l-.084.001c-1.889 0-3.441-1.481-3.486-3.347"
          mask="url(#j)"
          />
    </g>
    <g fill="#BABCC2">
      <path d="M93.182 25.99h41.758V15.934H93.182z" />
      <path d="M114.061 15.487c-1.86-.003-3.366-1.54-3.364-3.434.002-1.895 1.512-3.428 3.372-3.426 1.856.002 3.36 1.532 3.365 3.421-.002 1.895-1.51 3.43-3.37 3.428h-.003v.01zm0-9.373c-3.223 0-5.836 2.661-5.836 5.943 0 3.282 2.613 5.942 5.836 5.942 3.223 0 5.836-2.66 5.836-5.942s-2.613-5.943-5.836-5.943z" />
    </g>
  </g>
</svg>
