<svg xmlns="http://www.w3.org/2000/svg" xmlns:xlink="http://www.w3.org/1999/xlink" width="126" height="24" viewBox="0 0 126 24">
    <defs>
        <path id="prefix__a" d="M0 0.139L22.648 0.139 22.648 23.02 0 23.02z"/>
        <path id="prefix__c" d="M0.217 0.021L0.706 0.021 0.706 0.49 0.217 0.49z"/>
    </defs>
    <g fill="none" fill-rule="evenodd">
        <path fill="#29ABE2" d="M28.282 11.791c0 3.031 2.39 5.716 5.526 5.716 3.253 0 5.786-2.482 5.786-5.716 0-3.29-2.504-5.773-5.786-5.773-3.166 0-5.526 2.684-5.526 5.773m12.607-.029c0 3.956-3.08 6.958-6.994 6.958-3.829 0-6.908-3.147-6.908-6.929 0-3.84 3.05-6.986 6.908-6.986 3.915 0 6.994 3.002 6.994 6.957M48.509 16.093L53.229 5.094 54.553 5.094 48.48 19.152 42.378 5.094 43.702 5.094zM67.584 10.665c-.317-2.454-2.332-4.647-5.066-4.647-2.706 0-4.951 2.136-5.181 4.647h10.247zm-10.247 1.213c-.087 3.378 2.245 5.63 5.325 5.63 2.073 0 3.742-1.242 4.692-3.032l1.094.635c-1.21 2.31-3.34 3.609-5.959 3.609-3.943 0-6.448-3.205-6.448-6.986 0-3.725 2.562-6.929 6.448-6.929 4.03 0 6.419 3.234 6.39 7.073H57.337zM74.04 7.038h.058c.518-1.213 1.468-2.02 2.878-2.02.518 0 .95.115 1.41.317l-.69 1.155c-.317-.174-.576-.26-.921-.26-2.907 0-2.735 3.637-2.735 5.6v6.813h-1.295V5.306h1.295v1.732zM84.965 18.643L83.669 18.643 83.669 6.519 82.201 6.519 82.201 5.306 83.669 5.306 83.669.543 84.965.543 84.965 5.306 87.296 5.306 87.296 6.519 84.965 6.519zM100.928 5.094v7.996c0 1.357.03 2.714-.806 3.84-.921 1.212-2.475 1.79-3.972 1.79-1.497 0-3.051-.578-3.972-1.79-.835-1.126-.806-2.483-.806-3.84V5.094h1.295v7.534c0 2.57.288 4.88 3.483 4.88 3.195 0 3.483-2.31 3.483-4.88V5.094h1.295zM106.429 7.038h.057c.518-1.213 1.468-2.02 2.879-2.02.518 0 .95.115 1.41.317l-.69 1.155c-.317-.174-.576-.26-.921-.26-2.908 0-2.735 3.637-2.735 5.6v6.813h-1.296V5.306h1.296v1.732zM124.534 10.665c-.317-2.454-2.332-4.647-5.066-4.647-2.706 0-4.951 2.136-5.181 4.647h10.247zm-10.247 1.213c-.087 3.378 2.245 5.63 5.325 5.63 2.072 0 3.742-1.242 4.692-3.032l1.093.635c-1.208 2.31-3.339 3.609-5.958 3.609-3.943 0-6.448-3.205-6.448-6.986 0-3.725 2.562-6.929 6.448-6.929 4.03 0 6.419 3.234 6.39 7.073h-11.542z"/>
        <path fill="#D9DE3A" d="M9.71 5.523c1.181.32 2.223.9 3.083 1.663.307.254.599.53.866.83l-.003.002c.086-.014.173-.025.259-.036.044-.006.088-.009.131-.014.193-.022.387-.04.582-.047.087-.003.173-.001.26-.001.15 0 .299 0 .45.008.145.008.29.024.436.04.087.01.174.017.26.031.306.045.61.102.913.183 1.466.397 2.751 1.2 3.737 2.311.034-.106.076-.208.105-.317.521-1.938.259-3.964-.74-5.704-.997-1.74-2.611-2.987-4.544-3.51C14.856.787 14.196.7 13.54.7c-1.294 0-2.571.34-3.724 1.004C8.37 2.54 7.271 3.81 6.643 5.331c.996-.14 2.036-.087 3.068.192"/>
        <path fill="#B74A89" d="M5.753 20.24c1.055.285 2.119.328 3.133.165-.225-.289-.437-.589-.622-.91-1.026-1.79-1.296-3.873-.76-5.865.042-.157.092-.31.144-.463-1.552-1.869-2.21-4.438-1.532-6.96.055-.206.124-.407.195-.605-1.685.322-3.215 1.22-4.325 2.533-.065.078-.133.154-.195.235-.026.033-.05.07-.076.104-.109.145-.208.298-.307.45-.291.463-.538.962-.73 1.498-.701 1.965-.548 4.027.265 5.781.045.094.094.187.143.28.05.096.099.193.153.287.96 1.648 2.537 2.934 4.514 3.47"/>
        <path fill="#AD404E" d="M6.318 6.262c-.648 2.41-.039 4.864 1.415 6.674.23-.62.531-1.2.903-1.733.094-.14.199-.268.301-.4.036-.044.07-.09.108-.134.964-1.188 2.24-2.051 3.663-2.488-.701-.852-1.594-1.563-2.622-2.036-.832-.386-1.744-.616-2.677-.673-.292.012-.58.046-.866.092-.085.228-.16.46-.225.698"/>
        <path fill="#67C2E8" d="M21.437 11.894c-.197-.345-.426-.664-.67-.97-.974 2.619-3.263 4.44-5.891 4.903l-.017.004c-.206.522-.46 1.012-.764 1.463l-.054.08c-.088.126-.179.25-.274.368-.077.1-.157.193-.238.287-.05.057-.099.115-.15.17-1.092 1.19-2.534 2.011-4.114 2.342.928 1.087 2.144 1.882 3.535 2.298.09.025.179.054.268.076.127.033.253.06.38.084.248.047.496.09.744.114.115.011.23.027.345.033.058.002.116 0 .175.002.28.01.559-.007.837-.03.157-.013.313-.032.468-.055.106-.015.21-.036.316-.056.602-.115 1.187-.301 1.74-.555.082-.039.164-.078.244-.12.588-.296 1.14-.663 1.636-1.105.048-.043.092-.09.14-.135.12-.112.24-.227.353-.349.147-.16.29-.325.422-.497l.016-.02c.592-.77 1.032-1.66 1.293-2.628.521-1.938.259-3.963-.74-5.704M13.64 8.032c.091-.016.183-.038.275-.05-.086.011-.173.022-.259.036l-.016.014z"/>
        <path fill="#5DB9AE" d="M18.49 13.324c.572-.441 1.087-.96 1.521-1.547.192-.259.363-.533.52-.817.03-.076.05-.158.078-.236-.97-1.128-2.25-1.942-3.717-2.339-.649-.175-1.308-.262-1.963-.262-.384 0-.764.04-1.143.098.478.619.858 1.305 1.132 2.037.038.098.074.196.107.296.009.025.016.051.024.077.38 1.166.481 2.429.258 3.688-.023.138-.05.274-.08.411l-.037.155-.002.007c.594-.133 1.176-.334 1.732-.599.553-.263 1.081-.587 1.57-.97"/>
        <path fill="#5391C8" d="M13.552 15.946c-.662 0-1.335-.087-2.004-.268-1.251-.338-2.344-.97-3.232-1.8-.146.504-.261 1.019-.31 1.547-.068.719-.039 1.448.076 2.172.11.723.316 1.431.647 2.09.115.232.252.453.395.67 1.596-.311 3.056-1.134 4.145-2.342.561-.621 1.02-1.346 1.353-2.15-.352.05-.71.08-1.07.08"/>
        <path fill="#67C2E8" d="M15.05 10.631c.37 1.167.47 2.43.257 3.688.223-1.26.123-2.522-.258-3.688"/>
        <g transform="translate(0 .35)">
            <mask id="prefix__b" fill="#fff">
                <use xlink:href="#prefix__a"/>
            </mask>
            <path fill="#FFF" d="M20.868 19.895c-.132.173-.274.338-.422.498-.113.121-.233.236-.354.35-.047.043-.091.09-.139.133-.388.35-.812.663-1.275.93-.117.068-.241.115-.36.176-.081.041-.163.08-.245.119-.56.259-1.143.444-1.74.556-.105.02-.21.04-.316.056-.155.022-.311.043-.468.055-.278.022-.557.039-.837.03-.059-.002-.117 0-.175-.003-.115-.006-.23-.022-.345-.032-.248-.024-.496-.068-.744-.115-.127-.025-.253-.05-.38-.083-.09-.022-.178-.051-.268-.077-1.391-.416-2.607-1.211-3.535-2.297 1.58-.331 3.022-1.152 4.114-2.343.051-.054.1-.113.15-.17.081-.094.161-.188.238-.286.095-.12.186-.242.274-.368l.054-.08c.303-.451.558-.942.764-1.464.006 0 .01-.003.017-.003 2.628-.464 4.917-2.285 5.89-4.903.245.305.474.624.671.97.999 1.74 1.261 3.766.74 5.704-.26.968-.7 1.857-1.293 2.628l-.016.02zM1.086 16.132c-.049-.093-.098-.185-.143-.28-.741-1.56-.957-3.381-.474-5.177.206-.766.53-1.467.939-2.1.098-.154.199-.306.307-.451.026-.035.05-.071.076-.105.062-.081.13-.156.195-.235 1.11-1.312 2.64-2.21 4.325-2.533-.071.2-.14.4-.195.606-.678 2.521-.02 5.09 1.532 6.96-.052.152-.102.305-.144.462-.536 1.993-.266 4.076.76 5.864.185.323.397.623.622.911-1.014.164-2.078.12-3.133-.166-1.977-.534-3.555-1.82-4.514-3.468-.054-.094-.103-.191-.153-.288zm8.038 3.875c-.143-.218-.28-.439-.395-.671-.33-.658-.537-1.367-.647-2.09-.115-.723-.144-1.453-.076-2.172.049-.528.164-1.043.31-1.547.888.83 1.981 1.463 3.232 1.801.67.18 1.342.267 2.004.267.36 0 .718-.031 1.07-.08-.333.803-.792 1.528-1.353 2.15-1.089 1.207-2.55 2.03-4.145 2.342zm6.066-5.473l.037-.154c.031-.137.056-.274.08-.412.213-1.258.113-2.52-.258-3.687-.008-.026-.015-.052-.024-.077-.033-.1-.07-.198-.107-.297-.274-.731-.654-1.418-1.131-2.036.377-.06.758-.1 1.142-.1.655 0 1.315.088 1.964.263 1.465.397 2.746 1.211 3.716 2.34-.028.077-.049.159-.078.235-.157.284-.328.56-.52.818-.434.586-.95 1.105-1.521 1.546-.49.382-1.017.707-1.57.97-.556.265-1.139.466-1.732.598l.002-.007zm-5.104-8.74c1.028.473 1.92 1.184 2.622 2.036-1.423.437-2.7 1.3-3.663 2.488-.037.044-.072.09-.108.136-.102.13-.207.26-.3.398-.373.533-.674 1.114-.904 1.733-1.454-1.81-2.063-4.263-1.415-6.673.064-.238.14-.471.225-.699.286-.045.574-.08.866-.091.933.056 1.845.286 2.677.673zm-.268-4.44C10.97.69 12.248.35 13.542.35c.654 0 1.314.086 1.963.262 1.933.523 3.547 1.77 4.544 3.509.999 1.74 1.26 3.766.74 5.705-.03.108-.071.21-.104.317-.987-1.112-2.272-1.915-3.738-2.311-.302-.082-.607-.139-.913-.184-.086-.013-.173-.02-.26-.03-.145-.017-.29-.033-.437-.04-.15-.01-.3-.01-.45-.009-.086 0-.173-.002-.259.002-.195.007-.389.025-.582.047-.044.004-.088.007-.131.013-.092.013-.184.034-.275.05l.016-.013.003-.003c-.268-.3-.56-.576-.866-.83-.86-.762-1.902-1.343-3.082-1.662-1.032-.28-2.072-.333-3.068-.192.629-1.523 1.726-2.792 3.175-3.627zm11.801 10.084c-.226-.393-.487-.758-.772-1.1.051-.15.103-.302.144-.458.536-1.993.266-4.075-.76-5.863-1.026-1.79-2.685-3.07-4.672-3.608-1.986-.538-4.062-.267-5.846.762-1.53.883-2.683 2.234-3.319 3.857-2.86.5-5.323 2.6-6.128 5.592-1.105 4.113 1.332 8.362 5.433 9.471.67.182 1.342.268 2.003.268.45 0 .895-.042 1.33-.12 1.006 1.214 2.353 2.092 3.904 2.511.667.181 1.345.27 2.018.27 1.33 0 2.644-.349 3.829-1.032 1.783-1.029 3.06-2.693 3.596-4.685.536-1.993.266-4.075-.76-5.865z" mask="url(#prefix__b)"/>
        </g>
        <g transform="translate(14.163 22.881)">
            <mask id="prefix__d" fill="#fff">
                <use xlink:href="#prefix__c"/>
            </mask>
            <path stroke-linecap="round" stroke-linejoin="round" d="M.374.264C.433.267.49.265.549.267" mask="url(#prefix__d)"/>
        </g>
        <path stroke-linecap="round" stroke-linejoin="round" d="M19.953 21.227c.048-.043.092-.09.14-.134M20.446 20.743c.148-.16.29-.325.422-.497M1.086 16.482c-.05-.092-.098-.185-.143-.279M1.715 8.474c.026-.034.05-.071.076-.104"/>
    </g>
</svg>
