<svg xmlns="http://www.w3.org/2000/svg" xmlns:xlink="http://www.w3.org/1999/xlink" width="20" height="20" viewBox="0 0 20 20">
    <defs>
        <path id="a" d="M0 0h20v19.891H0z"/>
    </defs>
    <g fill="none" fill-rule="evenodd">
        <mask id="b" fill="#fff">
            <use xlink:href="#a"/>
        </mask>
        <path fill="#151C3D" d="M12.69 19.574c.968-.995 1.77-2.537 2.3-4.482a1.814 1.814 0 0 0 1.692-1.356h2.569a10.043 10.043 0 0 1-6.562 5.838zM.748 13.736h2.569c.198.762.875 1.33 1.692 1.356.53 1.945 1.332 3.486 2.3 4.482a10.043 10.043 0 0 1-6.561-5.838zM7.313.314C6.343 1.31 5.54 2.85 5.01 4.796a1.813 1.813 0 0 0-1.694 1.359H.748A10.042 10.042 0 0 1 7.313.315zm11.94 5.84h-2.57a1.814 1.814 0 0 0-1.693-1.358c-.53-1.946-1.335-3.488-2.304-4.482a10.043 10.043 0 0 1 6.566 5.84zm-4.325 8.036a.91.91 0 0 1-.908-.904v-.004-.005a.91.91 0 0 1 1.818.004.91.91 0 0 1-.91.909zm-4.475 5.701v-6.155h2.722c.132.506.474.921.929 1.156-.771 2.8-2.153 4.679-3.651 5zm-3.63-6.155h2.72v6.155c-1.495-.321-2.875-2.2-3.646-5 .454-.234.795-.65.927-1.155zM5.07 12.372a.91.91 0 0 1 0 1.818.91.91 0 0 1 0-1.818zm0-6.673a.91.91 0 1 1-.909.91.91.91 0 0 1 .91-.91zM9.543 0v6.155H6.825a1.815 1.815 0 0 0-.928-1.157C6.668 2.2 8.047.321 9.543 0zm3.632 6.155h-2.722V0c1.497.32 2.879 2.198 3.65 4.997a1.816 1.816 0 0 0-.928 1.158zm1.753 1.362a.91.91 0 0 1-.908-.904V6.61v-.004a.91.91 0 0 1 1.818.003.91.91 0 0 1-.91.909zM10 10.853a.91.91 0 0 1-.006-1.818l.004.002.005-.001A.91.91 0 0 1 10 10.853zm-3.175 1.974a1.812 1.812 0 0 0-1.504-1.34 20.04 20.04 0 0 1-.064-1.541c0-.526.026-1.041.064-1.545a1.813 1.813 0 0 0 1.503-1.337h2.72V8.19c-.781.204-1.362.91-1.362 1.753 0 .844.58 1.549 1.361 1.753v1.13H6.825zm6.35 0h-2.722V11.7a1.816 1.816 0 0 0 1.365-1.755c0-.845-.582-1.552-1.365-1.754V7.064h2.722A1.813 1.813 0 0 0 14.679 8.4c.039.504.064 1.019.064 1.545 0 .525-.025 1.039-.064 1.542a1.812 1.812 0 0 0-1.504 1.34zm-9.859 0H.426a9.958 9.958 0 0 1-.001-5.763h2.892c.148.568.56 1.026 1.1 1.236-.042.537-.069 1.086-.069 1.646 0 .559.027 1.107.07 1.643-.542.21-.954.67-1.102 1.238zm13.367 0a1.817 1.817 0 0 0-1.1-1.238c.042-.536.07-1.084.07-1.643 0-.56-.028-1.11-.07-1.646.54-.21.951-.67 1.099-1.236h2.893a9.955 9.955 0 0 1 0 5.763h-2.892z" mask="url(#b)"/>
    </g>
</svg>
