<svg xmlns="http://www.w3.org/2000/svg" width="20" height="20" viewBox="0 0 20 20">
    <path fill="#151C3D" fill-rule="evenodd" d="M5.416 5.963c.15 0 .269.12.269.269v1.76c0 .149-.12.268-.269.268H4.81a.267.267 0 0 1-.269-.269v-1.76c0-.149.12-.268.269-.268h.606zm9.227 6.115c.448 0 .816.368.816.815a.82.82 0 0 1-.816.816.819.819 0 0 1-.815-.816c0-.447.368-.815.815-.815zm-9.227-.338c.15 0 .269.12.269.269v1.76c0 .149-.12.268-.269.268H4.81a.267.267 0 0 1-.269-.269v-1.76c0-.149.12-.268.269-.268h.606zm1.93 0c.148 0 .268.12.268.269v1.76c0 .149-.12.268-.269.268H6.74a.267.267 0 0 1-.269-.269v-1.76c0-.149.12-.268.269-.268h.606zm0-5.777c.148 0 .268.12.268.269v1.76c0 .149-.12.268-.269.268H6.74a.267.267 0 0 1-.269-.269v-1.76c0-.149.12-.268.269-.268h.606zm7.297.328c.448 0 .816.368.816.816 0 .228-.09.427-.239.576a.803.803 0 0 1-.577.239.819.819 0 0 1-.815-.815c0-.448.368-.816.815-.816zm1.601 2.446V5.486a.556.556 0 0 0-.556-.557H4.313a.556.556 0 0 0-.557.557v3.251c0 .309.248.557.557.557h11.375a.556.556 0 0 0 .556-.557zm0 5.777v-3.251a.556.556 0 0 0-.556-.557H4.313a.556.556 0 0 0-.557.557v3.251c0 .308.248.557.557.557h11.375a.556.556 0 0 0 .556-.557zM10 0c5.523 0 10 4.477 10 10s-4.477 10-10 10S0 15.523 0 10 4.477 0 10 0z"/>
</svg>
