<svg xmlns="http://www.w3.org/2000/svg" width="20" height="20" viewBox="0 0 20 20">
    <path fill="#FFF" fill-rule="evenodd" d="M12.068 13.428l-2.061-2.061-2.075 2.074a.97.97 0 0 1-1.367-.006.97.97 0 0 1-.006-1.367l2.074-2.075-2.06-2.06a.97.97 0 0 1-.008-1.368.97.97 0 0 1 1.367.007l2.061 2.061 2.075-2.074a.97.97 0 0 1 1.367.006.97.97 0 0 1 .006 1.367l-2.074 2.075 2.06 2.06a.97.97 0 0 1 .008 1.368.97.97 0 0 1-1.367-.007m5.003-10.5a9.999 9.999 0 0 0-14.142 0 9.999 9.999 0 0 0 0 14.143 9.999 9.999 0 0 0 14.142 0 9.999 9.999 0 0 0 0-14.142"/>
</svg>
