<svg xmlns="http://www.w3.org/2000/svg" width="40" height="40" viewBox="0 0 40 40">
    <g fill="none" fill-rule="evenodd">
        <circle cx="20" cy="20" r="20" fill="#D1F2F8"/>
        <g fill="#00B3D3">
            <path d="M12.292 26.622l4.377 2.02a4.58 4.58 0 0 1-.181.9l-4.797-2.214c.161-.241.355-.482.601-.706zm2.635-5.959l4.51 2.081a6.36 6.36 0 0 1-.702.66l-3.775-1.742a3.97 3.97 0 0 1-.033-.999zm.57-1.66l4.864 2.244c-.123.343-.287.66-.483.947l-4.823-2.225c.105-.349.258-.671.443-.966zm1.084-1.237l3.972 1.833c.036.334.03.66-.017.976L15.91 18.44c.212-.25.44-.476.67-.675zm2.452-6.39l4.822 2.224a3.17 3.17 0 0 1-.609.703l-4.421-2.04c.034-.273.103-.568.208-.888zM11.24 28.16c.035-.077.073-.155.112-.235l4.899 2.26c-.034.08-.067.16-.104.242L17.39 31c1.111-2.432.636-3.987-.057-5.085a10.011 10.011 0 0 0-.752-1.003l-.085-.105a7.076 7.076 0 0 1-.37-.476 7.64 7.64 0 0 1-.95-1.817l2.926 1.35a7.12 7.12 0 0 1-.958.53l.021.052a9.5 9.5 0 0 1 .704.942l.082.137c.802-.394 3.092-1.705 3.793-4.091.504-1.712.08-3.565-1.262-5.506-.16-.23-.337-.446-.524-.675-.524-.633-1.054-1.284-1.146-2.245l3.77 1.74a5.43 5.43 0 0 1-1.324.469 5.6 5.6 0 0 1 .217.29c.214.31.395.615.562.92 2.393-.7 3.081-2.191 3.462-3.016l-1.242-.573-.073.16-4.904-2.263c.022-.055.043-.106.069-.162L18.106 10c-1.525 3.307-.128 5.001.796 6.123.169.205.33.4.454.581.494.715.831 1.402 1.026 2.063l-3.189-1.47c.402-.278.756-.469.96-.569-.03-.035-.056-.069-.086-.105a9.768 9.768 0 0 1-.752-1.003c-.94.5-2.931 1.785-3.577 3.98-.504 1.712-.078 3.565 1.263 5.508.158.229.335.445.524.673.496.603 1.001 1.218 1.13 2.101l-3.732-1.722c.377-.22.834-.405 1.402-.533l-.008-.033-.05-.07c-.261-.377-.477-.75-.668-1.12-2.333.674-3.168 2.247-3.599 3.183l.03.016 1.174.542.037.015z"/>
            <path d="M26.477 27.255a.551.551 0 0 1-.755-.084l-.784-.988a.943.943 0 0 1-.807-.345c-.315-.397-.225-.973.2-1.287.425-.314 1.026-.247 1.34.15a.871.871 0 0 1 .135.842l.784.987a.506.506 0 0 1-.113.725m.465-5.382c-.324-.413-.938-.486-1.372-.162l-.251.188-1.144-1.457c-.83-1.059-2.41-1.245-3.522-.416a2.514 2.514 0 0 0-.977 2.394c.092-.049.365-.17.85-.471.006-.477.23-.935.654-1.251.723-.54 1.75-.418 2.29.27l1.143 1.457-2.62 1.955-1.156-1.432c-.099.058-.505.593-.59.632l1.04 1.326-.252.188c-.433.324-.522.92-.198 1.333l2.72 3.467c.325.413.939.485 1.372.162l4.535-3.384c.434-.323.522-.92.199-1.333l-2.721-3.466z"/>
        </g>
    </g>
</svg>
