<svg xmlns="http://www.w3.org/2000/svg" xmlns:xlink="http://www.w3.org/1999/xlink" width="273" height="300" viewBox="0 0 273 300">
    <defs>
        <path id="a" d="M0 .732h272.772V141.81H0z"/>
    </defs>
    <g fill="none" fill-rule="evenodd">
        <g transform="translate(0 78.509)">
            <mask id="b" fill="#fff">
                <use xlink:href="#a"/>
            </mask>
            <path fill="#272727" d="M268.902 1.3c-3.367-1.505-7.402.084-8.99 3.537-.091.194-9.263 19.666-27.983 36.757-10.969 10.013-23.027 17.265-35.842 21.558-15.858 5.313-33.035 6.11-51.067 2.372l-.558-.116c-20.794-4.414-40.354-5.264-58.135-2.527-15.83 2.436-30.304 7.702-43.026 15.654C13.996 96.855 3.477 122.811.314 133.121c-.89 2.902.155 5.952 2.602 7.589a6.426 6.426 0 0 0 1.825.844c3.553 1.018 7.352-1.11 8.467-4.742 2.693-8.783 11.685-30.912 36.935-46.693 11.11-6.947 23.833-11.56 37.81-13.712 16.176-2.488 34.128-1.682 53.353 2.398 20.592 4.368 40.33 3.47 58.667-2.674 14.668-4.913 28.407-13.157 40.833-24.5 20.925-19.102 30.903-40.422 31.319-41.323 1.591-3.455.148-7.5-3.223-9.007" mask="url(#b)"/>
        </g>
        <path fill="#272727" d="M128.032 124.032c-10.376-12.921-16.96-26.876-19.567-41.475-2.091-11.716-1.66-23.93 1.285-36.304 5.039-21.169 15.916-35.784 16.021-35.924 1.018-1.338 1.42-3.004 1.134-4.69-.292-1.712-1.254-3.239-2.713-4.3-2.96-2.15-7.09-1.658-9.192 1.102-.503.659-12.383 16.42-18.087 40.175-5.316 22.136-6.016 55.54 20.819 88.961a6.96 6.96 0 0 0 2.256 1.842c2.268 1.168 5.012 1.005 6.989-.415a5.944 5.944 0 0 0 2.47-4.163c.208-1.706-.294-3.413-1.415-4.81M155.9 167.589a6.91 6.91 0 0 0-2.255-1.844c-2.267-1.17-5.014-1-6.997.431a6 6 0 0 0-2.483 4.185c-.211 1.713.29 3.426 1.408 4.825 10.359 12.952 16.922 26.95 19.501 41.603 2.068 11.76 1.61 24.025-1.364 36.456-5.088 21.264-16.01 35.963-16.115 36.103-1.02 1.345-1.426 3.019-1.143 4.712.29 1.719 1.247 3.25 2.707 4.311 2.96 2.154 7.095 1.65 9.203-1.125.505-.664 12.43-16.513 18.191-40.377 5.367-22.238 6.142-55.78-20.653-89.28"/>
        <path fill="#F95D31" d="M157.623 121.975l-10.048-5.484 2.982-5.461 10.045 5.484zM145.923 110.864c-2.744 5.026-9.043 6.876-14.07 4.132-5.026-2.743-6.876-9.042-4.133-14.068 2.744-5.027 9.043-6.877 14.07-4.134 5.026 2.744 6.876 9.043 4.133 14.07M181.113 130.073c-2.743 5.027-9.043 6.876-14.07 4.133-5.026-2.744-6.875-9.042-4.132-14.07 2.743-5.026 9.043-6.876 14.07-4.131 5.025 2.742 6.875 9.041 4.132 14.068"/>
        <path fill="#7F55CC" d="M154.11 38.156c-2.743 5.026-9.042 6.876-14.068 4.133-5.027-2.744-6.877-9.043-4.134-14.07 2.743-5.026 9.043-6.876 14.07-4.132 5.025 2.743 6.876 9.042 4.132 14.069M236.626 83.198c-2.743 5.027-9.042 6.877-14.068 4.134-5.027-2.744-6.877-9.043-4.134-14.07 2.743-5.026 9.043-6.876 14.07-4.133 5.025 2.744 6.876 9.043 4.132 14.07"/>
        <path fill="#0774D3" d="M143.618 71.804c-2.744 5.027-9.043 6.877-14.07 4.134-5.026-2.744-6.876-9.043-4.133-14.07 2.744-5.026 9.043-6.876 14.07-4.133 5.026 2.744 6.876 9.043 4.133 14.07M215.212 110.885c-2.743 5.027-9.043 6.878-14.068 4.134-5.027-2.744-6.877-9.043-4.134-14.07 2.743-5.026 9.043-6.876 14.07-4.132 5.025 2.743 6.876 9.042 4.132 14.068"/>
        <path fill="#24DBB4" d="M110.815 175.177c2.743-5.027.893-11.325-4.132-14.068-5.027-2.744-11.327-.894-14.07 4.132-2.742 5.027-.894 11.326 4.133 14.07 5.026 2.744 11.326.893 14.07-4.134M146.007 194.387c2.742-5.027.893-11.325-4.134-14.07-5.027-2.743-11.325-.893-14.07 4.134-2.743 5.027-.893 11.325 4.134 14.07 5.027 2.742 11.325.893 14.07-4.134"/>
        <path fill="#DF1B42" d="M54.089 221.39c2.742-5.028.893-11.326-4.133-14.069-5.026-2.744-11.326-.893-14.07 4.132-2.742 5.027-.894 11.326 4.133 14.07 5.027 2.744 11.327.893 14.07-4.134M136.605 266.432c2.743-5.027.893-11.325-4.133-14.068-5.026-2.744-11.326-.894-14.07 4.132-2.742 5.027-.894 11.326 4.133 14.07 5.027 2.743 11.327.893 14.07-4.134"/>
        <path fill="#4BCEE5" d="M76.716 194.365c2.743-5.027.893-11.326-4.132-14.069-5.027-2.744-11.327-.894-14.07 4.133-2.744 5.026-.894 11.325 4.132 14.07 5.027 2.742 11.327.892 14.07-4.134M148.311 233.446c2.743-5.027.893-11.325-4.133-14.07-5.027-2.742-11.326-.892-14.07 4.134-2.743 5.027-.893 11.326 4.134 14.068 5.026 2.745 11.325.895 14.07-4.132"/>
        <path fill="#7F55CC" d="M212.246 73.04l-53.393-29.146 2.98-5.46 53.393 29.145z"/>
        <path fill="#DF1B42" d="M112.223 256.273l-53.391-29.145 2.98-5.46 53.392 29.145z"/>
        <path fill="#4BCEE5" d="M125.533 224.162L79.03 198.778l2.982-5.46 46.499 25.384z"/>
        <path fill="#0774D3" d="M192.433 101.601l-46.5-25.382 2.981-5.46 46.5 25.382z"/>
        <path fill="#24DBB4" d="M123.178 185.076l-10.048-5.484 2.982-5.461 10.047 5.484z"/>
        <path fill="#FEA430" d="M229.018 214.426a5.11 5.11 0 0 1-6.516-3.119l-4.143-11.758a9.054 9.054 0 0 1-6.228-5.75 9.07 9.07 0 0 1 5.538-11.571 9.073 9.073 0 0 1 11.57 5.541 9.07 9.07 0 0 1-1.244 8.385l4.143 11.757a5.108 5.108 0 0 1-3.12 6.515m38.642-7.164l-15.397-43.681c-1.83-5.202-7.534-7.93-12.734-6.097l-3.022 1.065-6.47-18.357c-4.7-13.335-19.369-20.36-32.703-15.66-9.276 3.269-15.6 11.728-16.946 20.842 1.04-.186 4.057-.505 9.69-1.952 1.552-4.767 5.156-8.638 10.24-10.43 8.665-3.054 18.204 1.513 21.26 10.182l6.47 18.357-31.441 11.08-5.47-15.443c-1.136.266-7.93 1.605-8.883 1.714l5.89 16.713-3.021 1.064c-5.201 1.834-7.932 7.535-6.098 12.734l15.395 43.683c1.833 5.2 7.536 7.93 12.735 6.097l54.405-19.175c5.201-1.834 7.932-7.536 6.1-12.736"/>
    </g>
</svg>
