<svg xmlns="http://www.w3.org/2000/svg" xmlns:xlink="http://www.w3.org/1999/xlink" width="355" height="337" viewBox="0 0 355 337">
    <defs>
        <path id="a" d="M.522.031h350.38v47.385H.522z"/>
        <path id="c" d="M0 337h355V0H0z"/>
    </defs>
    <g fill="none" fill-rule="evenodd">
        <g transform="translate(4 252)">
            <mask id="b" fill="#fff">
                <use xlink:href="#a"/>
            </mask>
            <path fill="#F2F2F8" d="M175.712.031c96.755 0 175.19 10.607 175.19 23.692s-78.435 23.693-175.19 23.693S.522 36.808.522 23.723 78.957.031 175.712.031" mask="url(#b)"/>
        </g>
        <path fill="#DCDDE1" d="M144.152 215.863l-4.912 30.93s-24.185 12.668-7.18 13.042c17.005.372 97.119 0 97.119 0s15.494 0-9.07-13.416L215.196 214l-71.044 1.863z"/>
        <path fill="#BABCC2" d="M128.634 259.926c3.862-3.421 10.601-6.985 10.601-6.985l4.913-31.22 71.048.068 4.913 30.776c5.727 3.158 9.277 5.578 11.352 7.435 3.155-.716 6.603-3.379-11.352-13.277L215.196 214l-71.048 1.88-4.913 31.22s-20.323 10.747-10.601 12.826"/>
        <path fill="#DCDDE1" d="M31.145 0h294.71C332.01 0 337 4.995 337 11.155v198.69c0 6.16-4.99 11.155-11.146 11.155H31.145C24.99 221 20 216.005 20 209.845V11.155C20 4.995 24.99 0 31.145 0"/>
        <mask id="d" fill="#fff">
            <use xlink:href="#c"/>
        </mask>
        <path fill="#F2F2F8" d="M32 177h296V12H32z" mask="url(#d)"/>
        <path fill="#FFF" d="M179.5 5a1.5 1.5 0 1 1 0 3 1.5 1.5 0 0 1 0-3" mask="url(#d)"/>
        <path fill="#BABCC2" d="M261 281.086V285H60v-3.131l.276-.783L65.231 267h191.66z" mask="url(#d)"/>
        <path fill="#DCDDE1" d="M338.893 276.996c-.37 1.581-1.763 3.25-4.912 4.827-11.3 5.662-34.277-1.51-34.277-1.51S282 277.295 282 269.369c.497-.341 1.015-.65 1.552-.924 4.75-2.519 20.503-8.734 48.434.262a11.645 11.645 0 0 1 5.31 3.487c1.131 1.327 2.02 3.011 1.597 4.803" mask="url(#d)"/>
        <path fill="#BABCC2" d="M338.894 276.16c-13.72 5.377-25.95 5.778-38.499-3.138-6.33-4.495-12.08-5.607-16.395-5.522 4.713-2.55 20.338-8.844 48.043.265a11.535 11.535 0 0 1 5.266 3.53c1.123 1.345 2.004 3.05 1.585 4.864" mask="url(#d)"/>
        <path fill="#FFF" d="M321 271c2.762 0 5 .671 5 1.5s-2.238 1.5-5 1.5-5-.671-5-1.5 2.238-1.5 5-1.5M179 198a7 7 0 1 1-.001 14.001A7 7 0 0 1 179 198" mask="url(#d)"/>
        <path fill="#DCDDE1" d="M261 281v3H60v-2.4l.276-.6z" mask="url(#d)"/>
        <path fill="#F2F2F8" d="M240.5 308c21.263 0 38.5 6.492 38.5 14.5S261.763 337 240.5 337s-38.5-6.492-38.5-14.5 17.237-14.5 38.5-14.5" mask="url(#d)"/>
        <path fill="#DCDDE1" d="M86.063 87.782c-6.502 2.436-7.929 4.147-11.025 3.832-3.095-.316-15.05.342-14.503 7.19l5.763 8.982.167.262-.438 4.278-22.305 16.29s-16.234-18.284-24.444-5.527c-8.21 12.757-8.634 17.047-12.487 24.093-3.853 7.046-4.096 9.47-5.895 8.672-1.8-.798-.332-5.898-.332-5.898s-.014-.269-.027-.766C.36 142.518.537 94.196 42.19 79.4c0 0 13.859 5.097 24.032-8.709 7.028-9.543 14.436-5.167 18.658-.715a18.662 18.662 0 0 1 3.434 4.776 24.65 24.65 0 0 1 1.558 5.405c.43 2.966-.08 6.22-3.81 7.624" mask="url(#d)"/>
        <path fill="#BABCC2" d="M66 109.234l-.436 4.26-22.148 16.228s-16.12-18.214-24.274-5.507c-8.152 12.709-8.573 16.982-12.399 24.001-3.825 7.018-4.067 9.434-5.854 8.639-1.786-.795-.329-5.876-.329-5.876s-.014-.267-.026-.763c2.182-7.186 15.643-48.914 31.153-39.478 0 0 10.557 12.13 13.812 10.613 2.576-1.201 15.178-9.1 20.322-12.351l.179.234zM90 81.805L77.642 87.16s-15.213 8.043-16.943 6.687a10.187 10.187 0 0 0-1.702-.967c-1.856-.963-2.54-3.176-1.53-4.942a3.767 3.767 0 0 1 1.905-1.628c4.768-1.85 13.639-5.441 14.674-6.64 1.035-1.197 7.66-5.554 10.945-7.669a18.005 18.005 0 0 1 3.428 4.597A23.064 23.064 0 0 1 90 81.805" mask="url(#d)"/>
        <path fill="#FEBA63" d="M259.293 316.386c-2.62 2.14-14.344 9.318-19.47 12.452l-2.405 1.479s-2.244 3.487-9.396-5.296C220.869 316.24 45 127.294 45 127.294l.514-5.076L63.42 111l196.56 198.628s2.701 3.994-.687 6.758" mask="url(#d)"/>
        <path fill="#FEA430" d="M240 328.846l-2.407 1.474s-2.246 3.473-9.405-5.277C221.028 316.295 45 128.057 45 128.057l.514-5.057L240 328.846z" mask="url(#d)"/>
        <g fill="#FEBA63" mask="url(#d)">
            <path d="M226.752 73.185c-1.087-.49-2.388.027-2.9 1.153-.03.064-2.989 6.413-9.028 11.985-3.539 3.265-7.43 5.63-11.564 7.03-5.115 1.732-10.657 1.992-16.474.773l-.18-.037c-6.709-1.44-13.02-1.717-18.756-.824-5.107.794-9.776 2.51-13.88 5.104-9.455 5.973-12.848 14.436-13.869 17.798-.287.947.05 1.94.84 2.475.181.122.38.216.588.275 1.147.332 2.372-.362 2.732-1.546.87-2.864 3.77-10.08 11.916-15.225 3.584-2.265 7.689-3.77 12.198-4.471 5.219-.811 11.01-.549 17.212.782 6.644 1.424 13.011 1.131 18.927-.872 4.732-1.602 9.164-4.29 13.173-7.988 6.751-6.23 9.97-13.18 10.104-13.475.513-1.126.048-2.445-1.04-2.937"/>
            <path d="M181.506 87.668c-3.506-4.237-5.73-8.812-6.611-13.599-.707-3.842-.561-7.846.434-11.903 1.703-6.941 5.378-11.734 5.413-11.78.344-.438.48-.984.383-1.537a2.193 2.193 0 0 0-.916-1.41c-1-.705-2.396-.544-3.106.361-.17.216-4.184 5.384-6.112 13.173-1.796 7.258-2.032 18.21 7.035 29.169.208.252.464.455.762.604.767.383 1.694.33 2.362-.136a1.94 1.94 0 0 0 .835-1.365c.07-.56-.1-1.12-.48-1.577M190.991 100.855a2.325 2.325 0 0 0-.764-.603c-.768-.382-1.698-.326-2.37.141-.472.327-.77.813-.84 1.367-.073.56.097 1.119.476 1.575 3.509 4.23 5.732 8.801 6.606 13.587.7 3.84.546 7.845-.462 11.905-1.724 6.944-5.423 11.744-5.459 11.79-.346.44-.483.986-.387 1.539.097.561.422 1.061.917 1.408 1.002.703 2.403.538 3.117-.368.171-.216 4.21-5.392 6.162-13.186 1.818-7.262 2.081-18.215-6.996-29.155M191.085 86L188 84.497l.916-1.497L192 84.503z"/>
            <path d="M187.572 83.177a3.5 3.5 0 1 1-6.143-3.353 3.5 3.5 0 0 1 6.143 3.353M198.572 90.177a3.5 3.5 0 1 1-6.144-3.354 3.5 3.5 0 0 1 6.144 3.354M189.571 59.177a3.5 3.5 0 1 1-6.143-3.354 3.5 3.5 0 0 1 6.143 3.354M215.571 74.177a3.5 3.5 0 1 1-6.143-3.354 3.5 3.5 0 0 1 6.143 3.354M209.571 83.176a3.5 3.5 0 1 1-6.143-3.352 3.5 3.5 0 0 1 6.143 3.352M175.572 104.176a3.5 3.5 0 1 0-6.143-3.353 3.5 3.5 0 0 0 6.143 3.353M187.572 109.177a3.5 3.5 0 1 0-6.144-3.353 3.5 3.5 0 0 0 6.144 3.353M157.572 118.176a3.5 3.5 0 1 0-6.143-3.353 3.5 3.5 0 0 0 6.143 3.353M183.572 133.177a3.5 3.5 0 1 0-6.144-3.354 3.5 3.5 0 0 0 6.144 3.354M165.572 109.177a3.5 3.5 0 1 0-6.143-3.353 3.5 3.5 0 0 0 6.143 3.353M188.572 122.177a3.5 3.5 0 1 0-6.145-3.353 3.5 3.5 0 0 0 6.145 3.353M209.049 71L192 60.894l.952-1.894L210 69.106zM176.048 130L159 119.893l.952-1.893L177 128.106zM180.976 119L165 110.77l1.025-1.77L182 117.23zM201.976 80L186 71.77l1.024-1.77L203 78.23zM179.085 106L176 104.497l.916-1.497 3.084 1.503z"/>
            <path d="M186.572 71.177a3.5 3.5 0 1 1-6.144-3.354 3.5 3.5 0 0 1 6.144 3.354"/>
        </g>
    </g>
</svg>
