<svg xmlns="http://www.w3.org/2000/svg" width="74" height="83" viewBox="0 0 74 83">
    <g fill="none" fill-rule="evenodd">
        <path fill="#F2F2F8" d="M50.247 79.284C55.49 79.634 59 80.27 59 81c0 1.105-8.059 2-18 2s-18-.895-18-2 8.059-2 18-2c3.38 0 6.544.104 9.247.284z"/>
        <path fill="#DCDDE1" d="M72.95 22.157c-.913-.416-2.008.023-2.439.978-.024.053-2.513 5.436-7.591 10.16-2.976 2.77-6.247 4.774-9.724 5.96-4.302 1.47-8.962 1.69-13.854.657l-.151-.033c-5.641-1.22-10.948-1.455-15.771-.698-4.295.673-8.222 2.129-11.673 4.327C3.797 48.573.943 55.748.085 58.598c-.241.803.042 1.646.706 2.098.153.104.32.183.495.234.964.281 1.995-.307 2.297-1.311.73-2.428 3.17-8.546 10.02-12.908 3.015-1.92 6.466-3.196 10.258-3.79 4.388-.689 9.258-.466 14.474.662 5.586 1.207 10.94.959 15.915-.74 3.98-1.358 7.707-3.637 11.078-6.772 5.677-5.281 8.384-11.175 8.497-11.424.43-.955.04-2.073-.875-2.49"/>
        <path fill="#DCDDE1" d="M34.588 34.198c-2.921-3.562-4.775-7.41-5.509-11.435-.589-3.23-.467-6.599.362-10.01 1.419-5.837 4.481-9.867 4.511-9.905.287-.37.4-.828.32-1.294A1.846 1.846 0 0 0 33.506.37c-.833-.593-1.996-.457-2.588.304-.142.182-3.487 4.527-5.093 11.077-1.497 6.103-1.694 15.313 5.862 24.529.174.211.387.382.636.507.638.322 1.41.277 1.967-.114.392-.275.639-.682.696-1.148a1.74 1.74 0 0 0-.399-1.326M43.326 45.719a1.94 1.94 0 0 0-.637-.507c-.64-.321-1.415-.274-1.975.119a1.64 1.64 0 0 0-.7 1.149c-.06.47.081.94.397 1.325 2.924 3.557 4.777 7.4 5.505 11.425.584 3.229.454 6.597-.385 10.011-1.437 5.84-4.52 9.876-4.55 9.914-.287.37-.402.83-.322 1.294.081.472.352.893.764 1.184.836.592 2.003.453 2.598-.309.143-.182 3.509-4.534 5.135-11.088 1.515-6.107 1.734-15.318-5.83-24.517M43.314 33L41 31.497 41.687 30 44 31.503z"/>
        <path fill="#BABCC2" d="M39.633 30.437a3 3 0 1 1-5.265-2.874 3 3 0 0 1 5.265 2.874M49.633 36.437a3 3 0 1 1-5.266-2.875 3 3 0 0 1 5.266 2.875M41.633 10.437a3 3 0 1 1-5.266-2.875 3 3 0 0 1 5.266 2.875M63.633 23.437a3 3 0 1 1-5.266-2.875 3 3 0 0 1 5.266 2.875M58.633 30.437a3 3 0 1 1-5.266-2.874 3 3 0 0 1 5.266 2.874M29.633 48.437a3 3 0 1 0-5.265-2.874 3 3 0 0 0 5.265 2.874M39.633 52.437a3 3 0 1 0-5.267-2.874 3 3 0 0 0 5.267 2.874M14.633 60.437a3 3 0 1 0-5.266-2.874 3 3 0 0 0 5.266 2.874M36.633 72.437a3 3 0 1 0-5.266-2.874 3 3 0 0 0 5.266 2.874M21.633 52.437a3 3 0 1 0-5.265-2.874 3 3 0 0 0 5.265 2.874M40.633 63.437a3 3 0 1 0-5.267-2.874 3 3 0 0 0 5.267 2.874"/>
        <path fill="#DCDDE1" d="M58.207 20L44 11.578 44.793 10 59 18.422zM30.207 70L16 61.578 16.793 60 31 68.422zM34.157 61L21 54.416 21.844 53 35 59.584zM52.157 28L39 21.416 39.843 20 53 26.584zM33.314 50L31 48.497 31.687 47 34 48.503z"/>
        <path fill="#BABCC2" d="M39.633 20.437a3 3 0 1 1-5.266-2.875 3 3 0 0 1 5.266 2.875"/>
    </g>
</svg>
