<svg xmlns="http://www.w3.org/2000/svg" width="40" height="40" viewBox="0 0 40 40">
    <g fill="none" fill-rule="evenodd">
        <circle cx="20" cy="20" r="20" fill="#FDD6CB"/>
        <path fill="#F95D31" d="M25.17 15.8c0 2.55-2.117 4.112-4.055 4.642v1.096c0 .836-.734 1.575-1.683 1.575-1.042 0-1.681-.79-1.681-1.615l-.002-2.084c0-.766.434-1.271 1.316-1.546 1.578-.492 2.577-1.053 2.577-2.106 0-1.375-1.418-1.56-2.153-1.384-1.114.27-1.748.856-2.306 1.269a1.59 1.59 0 0 1-2.218-.297c-.551-.698-.49-1.772.263-2.361 1.002-.784 2.574-2.209 5.511-1.96 2.58.218 4.43 2.372 4.43 4.771zm-5.793 9.497a1.852 1.852 0 1 1 0 3.703 1.852 1.852 0 0 1 0-3.703z"/>
    </g>
</svg>
