<svg xmlns="http://www.w3.org/2000/svg" xmlns:xlink="http://www.w3.org/1999/xlink" width="367" height="300" viewBox="0 0 367 300">
    <defs>
        <path id="prefix__a" d="M0 300L367 300 367 0 0 0z"/>
    </defs>
    <g fill="none" fill-rule="evenodd">
        <path fill="#3F3D56" d="M347.544 245.41c6.427 22.873-55.434 75.13-164.272 45.958C95.642 267.881 19 257.932 19 245.411c0-12.522 73.547.613 164.272.613s160.885-12.669 164.272-.613"/>
        <path fill="#DCDDE1" d="M183.272 291.368C95.642 267.881 19 257.932 19 245.411c0-12.522 73.547.613 164.272.613s160.885-12.669 164.272-.613c6.427 22.872-55.434 75.13-164.272 45.957z"/>
        <path fill="#F2F2F8" d="M183.272 267.632C95.642 243.995 19 257.417 19 244.816 19 232.215 92.547 222 183.272 222s160.885 10.684 164.272 22.816c6.427 23.017-55.434 52.172-164.272 22.816z"/>
        <path fill="#BABCC2" d="M249 257.5c0 2.486-5.597 4.5-12.5 4.5s-12.5-2.014-12.5-4.5 5.597-4.5 12.5-4.5 12.5 2.014 12.5 4.5zM300 257.5c0 2.486-5.597 4.5-12.5 4.5s-12.5-2.014-12.5-4.5 5.597-4.5 12.5-4.5 12.5 2.014 12.5 4.5z"/>
        <path fill="#DCDDE1" d="M225 237c0 6.075-18.58 11-41.5 11s-41.5-4.925-41.5-11 18.58-11 41.5-11 41.5 4.925 41.5 11z"/>
        <path fill="#DCDDE1" d="M367 0H0v202.947h169.347v27.13c-8.458 1.012-14.153 2.903-14.153 5.069 0 3.233 12.673 5.854 28.306 5.854 15.633 0 28.306-2.621 28.306-5.854 0-2.166-5.695-4.057-14.153-5.07v-27.129H367"/>
        <mask id="prefix__b" fill="#fff">
            <use xlink:href="#prefix__a"/>
        </mask>
        <path fill="#FFF" d="M19 189L348 189 348 7 19 7z" mask="url(#prefix__b)"/>
        <path fill="#F2F2F8" d="M348 7S211.323 21.188 186.429 75.984C161.534 130.78 19 189 19 189h329V7z" mask="url(#prefix__b)"/>
        <path fill="#BABCC2" d="M236.452 226.498h50.096v-22.324h-50.096v22.324zm0-71.378h50.096v-22.325h-50.096v22.325zm0 47.585h50.096v-22.324h-50.096v22.324zm0-23.793h50.096v-22.324h-50.096v22.324zm0-47.585h50.096v-22.325h-50.096v22.325zM286.548 94v13.534h-50.096V94.828H235V257h1.452v-29.033h50.096V257H288V94h-1.452z" mask="url(#prefix__b)"/>
        <path fill="#0774D3" d="M219.74 98v2.003s-1.523.572-1.523 2.862c0 2.289-1.217 10.874-1.217 10.874s2.13 1.717 3.957 1.144c1.01-.288 1.944-.776 2.739-1.43l.304-8.872-1.217-2.289v-4.006L219.739 98zM275 17s-5 .572-5 2.862-4 10.876-4 10.876 7 1.718 13 1.145c6-.572 9-1.43 9-1.43l1-8.873-4-2.29L275 17z" mask="url(#prefix__b)"/>
        <path fill="#FCBEAC" d="M275.905 37.83v-5.553S270.172 20 274.813 20c4.64 0 5.187 11.108 5.187 11.108V39l-4.095-1.17zM224.102 94.82s-3.293-1.845-3.891 0c-.6 1.845-2.396 5.842 0 6.15 2.394.307 4.789-1.845 4.789-1.845l-.898-4.305z" mask="url(#prefix__b)"/>
        <path fill="#525767" d="M239.587 106.42s-1.747 2.302.787 24.765c2.534 22.463 1.074 38.82 5.885 38.595 0 0-1.255 4.871 2.832 5.05 4.089.18 5.957.464 6.275-.661.318-1.126.816-6.332-.294-6.28 0 0 .069 1.477.533-4.467s-.85-34.018.828-37.797l6.56 13.39s.294 6.28 1.543 9.183c1.248 2.904 3.893 19.81 3.893 19.81l-.249 2.602s8.951 1.063 9.252-.431c.301-1.495.198-3.711-.207-4.433s-.405-.722.266-2.233c.601-1.15.673-2.504.198-3.711-.423-1.091-1.546-25.101-1.546-25.101s-2.104-29.147-6.615-30.417c-4.51-1.27-29.941 2.135-29.941 2.135" mask="url(#prefix__b)"/>
        <path fill="#151C3D" d="M247.504 172l-2.732 5.242s-4.727-1.429-3.598 2.723c4.538.138 9.08-.13 13.568-.804 0 0 1.894.644 2.214-.467.32-1.111-1.164-4.88-2.28-4.83-1.116.052-7.172-1.864-7.172-1.864M268.802 169.676s-2.65 7.053-1.522 7.382c1.128.33 11.195 1.382 11.953 1.73.758.348 4.479.553 4.745-1.768.267-2.321-1.99-2.981-1.99-2.981s-4.107-.57-5.392-4.355c-1.283-3.785-7.794-.008-7.794-.008" mask="url(#prefix__b)"/>
        <path fill="#FFB8B8" d="M243.5 36c4.142 0 7.5 3.358 7.5 7.5 0 4.142-3.358 7.5-7.5 7.5-4.142 0-7.5-3.358-7.5-7.5 0-4.142 3.358-7.5 7.5-7.5" mask="url(#prefix__b)"/>
        <path fill="#FCBEAC" d="M239 48.006s2.097 10.3 1.258 12.28c-.839 1.981 11.742-.792 11.742-.792s-2.516-10.3-2.097-12.677c.42-2.377-10.903 1.189-10.903 1.189" mask="url(#prefix__b)"/>
        <path fill="#525767" d="M243.9 34.071c-.649-.118-1.317-.089-1.954.087-.51.227-.978.538-1.388.918-.744.598-1.54 1.129-2.375 1.586-.698.303-1.327.747-1.847 1.305-.22.305-.395.64-.521.995-.802 2.062-1.017 4.31-.623 6.488.045.31.137.61.274.89.428.794 1.372 1.107 2.167 1.523 1.509.79 2.653 2.12 3.891 3.295.46.462.977.864 1.538 1.194 1.766.97 3.925.654 5.908.31.587 0 1.064-.482 1.062-1.074v-.009l1.565-7.094c.284-1.051.42-2.137.401-3.227-.109-1.722-1.034-4.107-2.288-5.33-1.461-1.426-3.9-1.653-5.81-1.857" mask="url(#prefix__b)"/>
        <path fill="#4596DE" d="M237.402 60.525s.58-4.053 4.056-4.342c1.966-.185 3.908-.573 5.794-1.158.29 0 4.057.29 5.795 2.027 0 0 1.159 1.736 1.738.578.58-1.158.58-1.737 1.738-1.158 1.16.58 1.16-1.736 3.187-1.447 2.028.29 7.243 13.315 7.243 13.315l-1.738 2.026s-2.318 15.63 1.738 22.288c4.056 6.657 5.795 13.893 1.738 15.34-4.056 1.448-32.448 14.473-31.29 6.369 1.16-8.105.29-20.84-.868-21.13-1.159-.29-7.533-23.156-7.533-23.156.52-2.948 2.476-5.444 5.215-6.658 4.635-2.026 3.187-2.894 3.187-2.894" mask="url(#prefix__b)"/>
        <path fill="#4596DE" d="M258 56.658l1.474-1.148s2.654 0 2.95-.573c.294-.574 1.769-.574 2.948-1.148 1.18-.574-.295-1.435 1.18-2.008 1.474-.575 1.474 0 1.474-1.435s3.833-2.87 4.128-4.59c.295-1.722 3.244-9.756 3.244-9.756L281 37.721l-1.474 10.33s0 5.164-2.654 8.607c-2.654 3.443-8.551 12.05-11.5 12.337-2.949.287-7.372-12.337-7.372-12.337M230.664 69l-1.703 1.454s-.568 6.4-.568 6.692c0 .29.568 3.781 0 4.072-.568.291-1.703 6.11-1.419 6.4v.873l-3.974 6.4V101l9.367-6.11s5.394-.581 4.542-5.526C236.057 84.418 230.664 69 230.664 69" mask="url(#prefix__b)"/>
        <path fill="#FFF" d="M183.5 192c3.037 0 5.5 2.463 5.5 5.5s-2.463 5.5-5.5 5.5-5.5-2.463-5.5-5.5 2.463-5.5 5.5-5.5" mask="url(#prefix__b)"/>
        <g fill="#FEBA63" mask="url(#prefix__b)">
            <g>
                <path d="M86.752 26.185c-1.087-.49-2.388.027-2.9 1.153-.03.064-2.989 6.413-9.028 11.985-3.539 3.265-7.43 5.63-11.564 7.03-5.115 1.732-10.657 1.992-16.474.773l-.18-.037c-6.709-1.44-13.02-1.717-18.756-.824-5.107.794-9.776 2.51-13.88 5.104C4.515 57.342 1.122 65.805.1 69.167c-.287.947.05 1.94.84 2.475.181.122.38.216.588.275 1.147.332 2.372-.362 2.732-1.546.87-2.864 3.77-10.08 11.916-15.225 3.584-2.265 7.689-3.77 12.198-4.471 5.219-.811 11.01-.549 17.212.782 6.644 1.424 13.011 1.131 18.927-.872 4.732-1.602 9.164-4.29 13.173-7.988 6.751-6.23 9.97-13.18 10.104-13.475.513-1.126.048-2.445-1.04-2.937" transform="translate(39 30)"/>
                <path d="M41.506 40.668c-3.506-4.237-5.73-8.812-6.611-13.599-.707-3.842-.561-7.846.434-11.903 1.703-6.941 5.378-11.734 5.413-11.78.344-.438.48-.984.383-1.537-.098-.562-.423-1.062-.916-1.41-1-.705-2.396-.544-3.106.361-.17.216-4.184 5.384-6.112 13.173-1.796 7.258-2.032 18.21 7.035 29.169.208.252.464.455.762.604.767.383 1.694.33 2.362-.136.47-.327.766-.812.835-1.365.07-.56-.1-1.12-.48-1.577M50.991 53.855c-.208-.252-.465-.455-.764-.603-.768-.382-1.698-.326-2.37.141-.472.327-.77.813-.84 1.367-.073.56.097 1.119.476 1.575 3.509 4.23 5.732 8.801 6.606 13.587.7 3.84.546 7.845-.462 11.905-1.724 6.944-5.423 11.744-5.459 11.79-.346.44-.483.986-.387 1.539.097.561.422 1.061.917 1.408 1.002.703 2.403.538 3.117-.368.171-.216 4.21-5.392 6.162-13.186 1.818-7.262 2.081-18.215-6.996-29.155M51.085 39L48 37.497 48.916 36 52 37.503z" transform="translate(39 30)"/>
                <path d="M47.572 36.177c-.926 1.696-3.052 2.32-4.749 1.394-1.696-.925-2.32-3.051-1.395-4.748.926-1.696 3.052-2.32 4.749-1.395 1.696.926 2.32 3.052 1.395 4.749M58.572 43.177c-.926 1.696-3.052 2.32-4.749 1.395-1.696-.926-2.32-3.052-1.395-4.749.926-1.696 3.052-2.32 4.749-1.394 1.696.925 2.32 3.051 1.395 4.748M49.571 12.177c-.925 1.696-3.051 2.32-4.748 1.395-1.696-.926-2.32-3.052-1.395-4.749.926-1.696 3.052-2.32 4.749-1.394 1.696.925 2.32 3.051 1.394 4.748M75.571 27.177c-.925 1.696-3.051 2.32-4.748 1.395-1.696-.926-2.32-3.052-1.395-4.749.926-1.696 3.052-2.32 4.749-1.395 1.696.926 2.32 3.052 1.394 4.749M69.571 36.176c-.925 1.697-3.051 2.322-4.748 1.395-1.696-.926-2.32-3.051-1.395-4.748.926-1.696 3.052-2.32 4.749-1.394 1.696.925 2.32 3.051 1.394 4.747M35.572 57.176c.925-1.696.301-3.822-1.395-4.747-1.697-.927-3.823-.302-4.749 1.394-.925 1.697-.301 3.822 1.395 4.748 1.697.927 3.823.302 4.749-1.395M47.572 62.177c.925-1.697.301-3.823-1.395-4.749-1.697-.925-3.823-.301-4.749 1.395-.925 1.697-.301 3.823 1.395 4.749 1.697.925 3.823.301 4.749-1.395M17.572 71.176c.925-1.696.301-3.822-1.395-4.747-1.697-.927-3.823-.302-4.749 1.394-.925 1.697-.301 3.822 1.395 4.748 1.697.927 3.823.302 4.749-1.395M43.572 86.177c.925-1.697.301-3.823-1.395-4.748-1.697-.927-3.823-.302-4.749 1.394-.925 1.697-.301 3.823 1.395 4.749 1.697.925 3.823.301 4.749-1.395M25.572 62.177c.925-1.697.301-3.823-1.395-4.748-1.697-.927-3.823-.302-4.748 1.394-.927 1.697-.302 3.823 1.394 4.749 1.697.925 3.823.301 4.749-1.395M48.572 75.177c.925-1.697.301-3.823-1.395-4.749-1.697-.925-3.823-.301-4.749 1.395-.925 1.697-.301 3.823 1.395 4.748 1.697.927 3.823.302 4.749-1.394M69.049 24L52 13.894 52.952 12 70 22.106zM36.048 83L19 72.893 19.952 71 37 81.106zM40.976 72L25 63.77 26.025 62 42 70.23zM61.976 33L46 24.771 47.024 23 63 31.229zM39.085 59L36 57.497 36.916 56 40 57.503z" transform="translate(39 30)"/>
                <path d="M46.572 24.177c-.926 1.696-3.052 2.32-4.749 1.395-1.696-.926-2.32-3.052-1.395-4.749.926-1.696 3.052-2.32 4.749-1.395 1.696.926 2.32 3.052 1.395 4.749" transform="translate(39 30)"/>
            </g>
        </g>
    </g>
</svg>
