<?xml version="1.0" encoding="UTF-8"?>
<svg width="1105px" height="353px" viewBox="0 0 1105 353" version="1.1" xmlns="http://www.w3.org/2000/svg" xmlns:xlink="http://www.w3.org/1999/xlink">
    <!-- Generator: Sketch 54.1 (76490) - https://sketchapp.com -->
    <title>icgc-globe-bg</title>
    <desc>Created with Sketch.</desc>
    <g id="Pages---All-Users" stroke="none" stroke-width="1" fill="none" fill-rule="evenodd">
        <g id="General/Homepage-loggedout" transform="translate(-174.000000, -964.000000)" fill="#F8F8FB">
            <g id="content" transform="translate(-36.000000, 63.000000)">
                <g id="resources" transform="translate(35.877169, 872.000000)">
                    <g id="resources-blocks" transform="translate(140.000000, 29.000000)">
                        <g id="background" transform="translate(35.000000, 0.000000)">
                            <path d="M556.423582,84.0445347 L624.384055,84.0445347 C631.435154,107.092881 635.80353,133.393997 636.536184,161.212698 L556.423582,161.212698 L556.423582,84.0445347 Z M556.423582,178.021605 L636.536184,178.021605 C635.80353,205.840307 631.435154,232.141422 624.384055,255.189769 L556.423582,255.189769 L556.423582,178.021605 Z M538.875107,255.189769 L470.920978,255.189769 C463.863885,232.141422 459.495208,205.840307 458.762505,178.021605 L538.875107,178.021605 L538.875107,255.189769 Z M539.638084,339.998345 C514.115274,335.275141 491.309209,309.394878 476.310979,271.998676 L539.638084,271.998676 L539.638084,339.998345 Z M538.875107,161.212698 L458.762505,161.212698 C459.495208,133.393997 463.863885,107.092881 470.920978,84.0445347 L538.875107,84.0445347 L538.875107,161.212698 Z M636.876672,271.998676 L683.077791,271.998676 C668.329423,291.906155 649.333705,308.527987 627.403961,320.553233 C619.127215,324.917501 610.448089,328.60694 601.439234,331.593891 C615.818753,316.919109 627.946057,296.502742 636.876672,271.998676 Z M539.638084,67.999669 L476.310979,67.999669 C491.258691,30.7050396 513.969333,4.85314383 539.391107,0.00556553192 C539.475304,0 539.553887,0 539.638084,0 L539.638084,67.999669 Z M555.73012,272.56131 L618.707746,272.56131 C603.793609,309.649003 581.115412,335.315761 555.73012,340 L555.73012,272.56131 Z M493.096477,331.593891 C459.910895,320.481325 431.23576,299.450973 410.694943,271.998676 L457.965973,271.998676 C466.820633,296.491679 478.839255,316.919109 493.096477,331.593891 Z M453.187954,255.652078 L399.918355,255.652078 C386.633066,232.766175 378.479841,206.559922 377.122831,178.598786 L442.007984,178.598786 C442.666943,206.415074 446.615114,232.465338 453.187954,255.652078 Z M653.620752,178.021605 L715.122831,178.021605 C713.960035,205.98537 706.176975,232.225113 693.347815,255.189769 L642.640001,255.189769 C649.095717,231.968462 652.973535,205.879363 653.620752,178.021605 Z M642.640001,84.0445347 L692.235829,84.0445347 C705.452963,106.936659 713.629246,133.181981 715.122831,161.212698 L653.63323,161.212698 C652.985278,133.354941 649.103053,107.265842 642.640001,84.0445347 Z M557.619232,0.143606861 C582.346211,5.76084447 604.379374,31.0632687 618.987709,67.2356277 L555.660604,67.2356277 L555.660604,0 C556.322834,0.0331400449 556.968227,0.0938967938 557.619232,0.143606861 Z M603.728166,9.93253592 C634.908988,21.3157177 661.847521,41.4160493 681.551836,67.2356277 L636.929657,67.2356277 C628.472989,43.9935822 617.136031,24.4131821 603.728166,9.93253592 Z M410.694943,67.999669 C431.234379,40.5469361 459.907586,19.5149572 493.096477,8.40445347 C478.840214,23.0820427 466.8224,43.5001511 457.968335,67.999669 L410.694943,67.999669 Z M442.007984,161.677814 L377.122831,161.677814 C378.479841,133.733552 386.633066,107.553898 399.918355,84.686362 L453.187954,84.686362 C446.615114,107.854493 442.666943,133.88385 442.007984,161.677814 Z M174,338 C155.774603,338 141,323.225397 141,305 C141,286.774603 155.774603,272 174,272 C192.225397,272 207,286.774603 207,305 C207,323.225397 192.225397,338 174,338 Z M18,59 C8.0588745,59 0,50.9411255 0,41 C0,31.0588745 8.0588745,23 18,23 C27.9411255,23 36,31.0588745 36,41 C36,50.9411255 27.9411255,59 18,59 Z M916.5,68 C901.864454,68 890,56.1355459 890,41.5 C890,26.8644541 901.864454,15 916.5,15 C931.135546,15 943,26.8644541 943,41.5 C943,56.1355459 931.135546,68 916.5,68 Z M1086,353 C1076.05887,353 1068,344.941125 1068,335 C1068,325.058875 1076.05887,317 1086,317 C1095.94113,317 1104,325.058875 1104,335 C1104,344.941125 1095.94113,353 1086,353 Z" id="icgc-globe-bg"></path>
                        </g>
                    </g>
                </g>
            </g>
        </g>
    </g>
</svg>