<svg xmlns="http://www.w3.org/2000/svg" width="100" height="100" viewBox="0 0 100 100">
    <g fill="none" fill-rule="evenodd">
        <circle cx="50" cy="50" r="50" fill="#D3F7F0"/>
        <path fill="#A7F0E1" d="M48.722.733l-.253.006c.082-.02.16-.051.243-.072l.01.066c.218-.003.434-.017.653-.017 13.802 0 26.278 5.665 35.236 14.793H50.815A274.968 274.968 0 0 0 48.722.733zm2.276 75.794c9.154-.47 17.076-5.591 21.462-13.043h24.45a49.176 49.176 0 0 1-7.563 15.592H50.713c.101-.848.191-1.7.285-2.55zM1.84 63.484h10.123a50.744 50.744 0 0 0 7.226 15.593H9.403A49.163 49.163 0 0 1 1.84 63.484zm73.098-5.597a26.478 26.478 0 0 0 1.175-7.823c0-2.704-.408-5.312-1.16-7.77h23.183a49.76 49.76 0 0 1 0 15.593H74.938zM10.83 42.295c-.4 2.576-.636 5.207-.636 7.895 0 2.62.226 5.184.607 7.697H.616a49.596 49.596 0 0 1 0-15.592H10.83zM48.47.74a51.056 51.056 0 0 0-24.69 14.77h-9.64C22.9 6.581 35.029.981 48.469.738zM9.403 21.106h9.913a50.773 50.773 0 0 0-7.3 15.592H1.84a49.177 49.177 0 0 1 7.563-15.592zm63.09 15.592c-4.28-7.31-11.959-12.381-20.869-13.05-.072-.849-.142-1.695-.222-2.543h37.945a49.193 49.193 0 0 1 7.564 15.593H72.492zm-24.95 62.695a272.98 272.98 0 0 0 2.447-14.72h34.622c-8.96 9.128-21.436 14.792-35.237 14.792-13.8 0-26.277-5.664-35.236-14.792h9.474c6.36 6.938 14.604 12.121 23.93 14.72z"/>
        <path fill="#70E7CE" d="M49.613 76.563c.464 0 .926-.012 1.384-.036-.093.85-.183 1.7-.284 2.55H19.189a50.768 50.768 0 0 1-7.226-15.593h14.802c4.606 7.825 13.112 13.08 22.848 13.08zm-25.34-34.268a26.504 26.504 0 0 0-1.16 7.768c0 2.724.412 5.351 1.175 7.824H10.8c-.38-2.513-.607-5.077-.607-7.697 0-2.688.236-5.319.636-7.895h13.442zm-.494-26.786A51.054 51.054 0 0 1 48.47.739c.084-.001.168-.005.253-.006.837 4.909 1.524 9.838 2.093 14.776H23.779zm25.834 8.054c-9.76 0-18.28 5.28-22.88 13.135H12.016a50.805 50.805 0 0 1 7.3-15.593h32.087c.08.848.15 1.694.222 2.542a26.77 26.77 0 0 0-2.012-.084zm-2.07 75.83c-9.326-2.599-17.57-7.782-23.93-14.72H49.99a272.98 272.98 0 0 1-2.447 14.72z"/>
        <text fill="#15846C" font-family="WorkSans-Regular, Work Sans" font-size="22">
            <tspan x="36.58" y="58">PP</tspan>
        </text>
    </g>
</svg>
