<svg xmlns="http://www.w3.org/2000/svg" xmlns:xlink="http://www.w3.org/1999/xlink" width="72" height="53" viewBox="0 0 72 53">
    <defs>
        <path id="a" d="M0 .027h17.538v7.905H0z"/>
        <path id="c" d="M.074.002h15.784v16.442H.074z"/>
        <path id="e" d="M0 52.126h71.857V0H0z"/>
    </defs>
    <g fill="none" fill-rule="evenodd">
        <path fill="#939597" d="M30.637 5.675L30.634 0 30.548 0c-1.351 0-2.681.089-3.985.259l.734 5.632a25.035 25.035 0 0 1 3.287-.217h.053M11.645 28.03l5.538.726a13.405 13.405 0 0 1 .89-3.376l-5.16-2.143-5.287-2.196a24.563 24.563 0 0 0-1.034 3.067l-5.551-1.487a30.411 30.411 0 0 0-.779 3.918l5.704.747 5.679.744zM38.542 1.06l-1.48 5.47a24.57 24.57 0 0 1 3.074 1.05l2.185-5.227a30.217 30.217 0 0 0-3.779-1.294M18.95 45.646A19.327 19.327 0 0 1 17.07 44l-4.049 4.04c.764.766 1.579 1.48 2.437 2.141l3.494-4.534z"/>
        <g transform="translate(0 30.496)">
            <mask id="b" fill="#fff">
                <use xlink:href="#a"/>
            </mask>
            <path fill="#939597" d="M12.138 4.973l5.4-1.438a13.676 13.676 0 0 1-.469-3.508L11.48.031c.001.85.063 1.686.172 2.506l-5.678.735c-.14-1.06-.213-2.14-.215-3.237L0 .039V.05c0 1.344.087 2.666.256 3.963a30.38 30.38 0 0 0 .772 3.919l5.579-1.486 5.531-1.473z" mask="url(#b)"/>
        </g>
        <g transform="translate(4 35.682)">
            <mask id="d" fill="#fff">
                <use xlink:href="#c"/>
            </mask>
            <path fill="#939597" d="M15.858 3.035A13.546 13.546 0 0 1 14.1.002L8.936 2.137c.32.77.69 1.512 1.104 2.226L5.08 7.226l-5.007 2.89a30.747 30.747 0 0 0 4.852 6.328l4.094-4.086a24.867 24.867 0 0 1-2.136-2.44l4.54-3.482 4.434-3.4z" mask="url(#d)"/>
        </g>
        <path fill="#939597" d="M34.11 17.45c.569.153 1.124.342 1.662.566l2.156-5.157a18.945 18.945 0 0 0-2.36-.803l-1.459 5.394zM28.038 11.568l-.741-5.677a24.766 24.766 0 0 0-3.185.637l-1.468-5.493a30.211 30.211 0 0 0-3.785 1.283l2.18 5.259 2.19 5.286c-.771.323-1.516.697-2.232 1.114l2.798 4.836c.505-.295 1.03-.56 1.574-.787a13.391 13.391 0 0 1 3.391-.918c.597-.08 1.205-.126 1.824-.126l.058.002-.003-5.588-.055-.002c-.864 0-1.713.063-2.546.174M30.64 11.396c.841.002 1.668.063 2.48.17l.757-5.674a25.012 25.012 0 0 0-3.24-.217l.002 5.72zM15.432 10.835L11.956 6.31a30.706 30.706 0 0 0-3.004 2.632l4.04 4.042 4.045 4.046a19.152 19.152 0 0 1 1.882-1.655c.66-.51 1.354-.977 2.078-1.398L18.13 9.02a24.856 24.856 0 0 0-2.698 1.814M19.82 22.326c.36-.474.75-.923 1.168-1.344l-3.95-3.952a19.196 19.196 0 0 0-1.647 1.89l4.43 3.406zM6.318 11.945a30.642 30.642 0 0 0-2.223 3.316l4.96 2.871 4.955 2.87c.416-.725.877-1.42 1.381-2.082l-4.536-3.487-4.537-3.488zM45.895 4.131l-2.85 4.894-2.88 4.948c.725.422 1.42.889 2.08 1.399l3.5-4.53 3.461-4.48a30.511 30.511 0 0 0-3.311-2.23"/>
        <path fill="#231F20" d="M43.045 9.025a24.717 24.717 0 0 0-2.91-1.445l-2.207 5.28c.773.322 1.519.696 2.237 1.113l2.88-4.948zM33.12 11.567l-.739 5.538c.59.078 1.166.193 1.728.345l1.459-5.394a19.028 19.028 0 0 0-2.448-.49M30.584 5.674c-1.115 0-2.212.075-3.287.217l.74 5.677a19.248 19.248 0 0 1 2.547-.174l.055.002-.002-5.721h-.053M7.626 21.041l5.287 2.196c.317-.772.685-1.518 1.097-2.235l-4.956-2.87a24.817 24.817 0 0 0-1.428 2.91M13.02 48.04l4.049-4.041a19.246 19.246 0 0 1-1.645-1.882l-4.54 3.483c.659.859 1.372 1.675 2.136 2.44M14.01 21.002l4.835 2.8a13.56 13.56 0 0 1 .975-1.476l-4.429-3.406c-.504.661-.964 1.357-1.38 2.082M11.48 30.497l.001.03 5.588-.003v-.027c0-.59.041-1.17.114-1.74l-5.538-.726a19.22 19.22 0 0 0-.165 2.466M7.648 40.006l5.288-2.187a18.93 18.93 0 0 1-.798-2.35l-5.531 1.474c.281 1.05.63 2.073 1.04 3.063M18.919 15.374l3.403 4.431c.467-.362.96-.693 1.473-.992l-2.798-4.836c-.724.42-1.419.887-2.078 1.397M35.266 30.336c0 2.77-1.975 5.03-4.806 5.03-2.83 0-4.846-2.302-4.846-5.07v-.042c0-2.769 1.975-5.03 4.806-5.03 2.83 0 4.846 2.302 4.846 5.071v.04zm-4.806-7.412c-4.378 0-7.473 3.36-7.473 7.371v.04c0 4.012 3.054 7.332 7.433 7.332 4.377 0 7.473-3.36 7.473-7.372v-.04c0-4.012-3.055-7.331-7.433-7.331z"/>
        <mask id="f" fill="#fff">
            <use xlink:href="#e"/>
        </mask>
        <path fill="#231F20" d="M40.05 37.422h2.505V23.168h-2.504zM52.044 35.365c-2.729 0-4.704-2.28-4.704-5.07v-.04c0-2.79 1.975-5.03 4.704-5.03 1.629 0 2.85.712 3.991 1.771l1.61-1.853c-1.365-1.303-2.954-2.22-5.58-2.22-4.318 0-7.352 3.32-7.352 7.372v.04c0 4.094 3.095 7.332 7.25 7.332 2.667 0 4.296-.978 5.783-2.526l-1.609-1.629c-1.222 1.14-2.342 1.853-4.093 1.853M62.266 30.234v-4.785h3.645c1.853 0 2.953.835 2.953 2.362v.04c0 1.446-1.14 2.383-2.933 2.383h-3.665zm5.742 1.792c1.996-.57 3.401-1.975 3.401-4.317v-.04c0-1.243-.428-2.302-1.181-3.076-.916-.896-2.321-1.425-4.113-1.425H59.76v14.254h2.505v-4.968H65.4l3.503 4.968h2.953l-3.849-5.396z" mask="url(#f)"/>
    </g>
</svg>
