<svg xmlns="http://www.w3.org/2000/svg" xmlns:xlink="http://www.w3.org/1999/xlink" width="208" height="30" viewBox="0 0 208 30">
    <defs>
        <path id="a" d="M.081.096h7.36V4.73H.082z"/>
        <path id="c" d="M0 29.524h207.957V0H0z"/>
    </defs>
    <g fill="none" fill-rule="evenodd">
        <path fill="#FFF" d="M193.876 22.307c-.036.335-.072.67-.112 1.005h11.415a14.66 14.66 0 0 0 2.235-4.636h-7.574a7.574 7.574 0 0 1-5.964 3.631M179.325 18.676a14.657 14.657 0 0 0 2.234 4.636h2.891a15.134 15.134 0 0 1-2.134-4.636h-2.991z"/>
        <g transform="translate(200.515 12.28)">
            <mask id="b" fill="#fff">
                <use xlink:href="#a"/>
            </mask>
            <path fill="#FFF" d="M.081 4.731h7.18a14.885 14.885 0 0 0 0-4.635H.08c.231.73.357 1.51.357 2.318S.312 4 .081 4.73" mask="url(#b)"/>
        </g>
        <path fill="#FFF" d="M181.98 12.376h-3.017a14.837 14.837 0 0 0 0 4.636h3.01c-.113-.747-.18-1.51-.18-2.288 0-.8.07-1.582.188-2.348M203.78 4.413A14.498 14.498 0 0 0 193.37.015c-.066 0-.13.004-.194.005.247 1.46.45 2.924.618 4.393h9.986zM193.101.022a14.498 14.498 0 0 0-10.143 4.39h2.849A15.069 15.069 0 0 1 193.1.022M181.56 6.077a14.658 14.658 0 0 0-2.235 4.635h3.006a15.141 15.141 0 0 1 2.157-4.635h-2.929zM199.84 10.712h7.574a14.654 14.654 0 0 0-2.235-4.635h-11.211c.032.339.06.678.088 1.018a7.577 7.577 0 0 1 5.784 3.617M192.828 29.352a15.083 15.083 0 0 1-7.07-4.376h-2.8a14.499 14.499 0 0 0 10.411 4.397c4.078 0 7.764-1.684 10.41-4.397h-10.228a81.257 81.257 0 0 1-.723 4.376"/>
        <path fill="#37B34A" d="M193.228 0c-.043.01-.084.027-.127.038l.132-.003-.005-.035"/>
        <path fill="#3075BA" d="M193.369 22.326a7.57 7.57 0 0 1-6.47-3.65h-4.584a15.13 15.13 0 0 0 2.135 4.636h9.314c.04-.335.076-.67.112-1.005a7.512 7.512 0 0 1-.507.019M186.142 12.376h-4.161a15.367 15.367 0 0 0-.188 2.348c0 .778.067 1.54.18 2.288h4.169a7.668 7.668 0 0 1-.357-2.318c0-.808.125-1.587.357-2.318M185.807 4.413h7.987a82.223 82.223 0 0 0-.618-4.393l-.075.002a15.068 15.068 0 0 0-7.294 4.39M193.369 7.062c.232 0 .46.013.687.033-.027-.34-.056-.68-.088-1.018h-9.48a15.146 15.146 0 0 0-2.157 4.635h4.567a7.57 7.57 0 0 1 6.471-3.65M192.828 29.352c.282-1.454.52-2.913.723-4.376h-7.793a15.083 15.083 0 0 0 7.07 4.376"/>
        <path fill="#DD1C4D" d="M193.727 11.655v2.741h2.864a10.32 10.32 0 0 0-.434-2.741h-2.43zM193.727 14.99v2.742h2.43a10.32 10.32 0 0 0 .434-2.741h-2.864zM193.136 17.732v-2.741h-2.865c.027.988.183 1.922.435 2.741h2.43zM193.136 20.75v-2.423h-2.222c.526 1.332 1.326 2.254 2.222 2.422M193.136 14.396v-2.741h-2.43a10.311 10.311 0 0 0-.435 2.741h2.865zM196.598 18.327c-.314.878-.742 1.61-1.249 2.135.318-.107.624-.239.915-.395a6.116 6.116 0 0 0 1.963-1.74h-1.629zM193.136 11.06V8.64h-.009c-.892.172-1.689 1.093-2.213 2.421h2.222zM193.727 18.327v2.422c.895-.168 1.696-1.09 2.222-2.422h-2.222zM191.513 20.462c-.507-.525-.934-1.257-1.249-2.135h-1.68a6.074 6.074 0 0 0 2.93 2.135M190.075 17.732a11.15 11.15 0 0 1-.394-2.741h-2.289a6.07 6.07 0 0 0 .804 2.741h1.879zM197.182 14.99a11.15 11.15 0 0 1-.394 2.742h1.82c.461-.816.74-1.748.783-2.741h-2.209zM196.788 11.655c.232.825.37 1.752.394 2.741h2.206a6.08 6.08 0 0 0-.821-2.741h-1.78zM193.795 8.653l-.068-.006v2.413h2.222c-.513-1.298-1.286-2.206-2.154-2.407M195.427 9.007c.473.519.873 1.22 1.171 2.053h1.575a6.09 6.09 0 0 0-2.746-2.053M188.584 11.06h1.68c.315-.878.742-1.61 1.25-2.136a6.073 6.073 0 0 0-2.93 2.136M189.68 14.396c.024-.99.163-1.916.395-2.741h-1.879a6.068 6.068 0 0 0-.804 2.741h2.289z"/>
        <mask id="d" fill="#fff">
            <use xlink:href="#c"/>
        </mask>
        <path fill="#FFF" d="M0 29.049h6.066V1.3H0zM8.785 15.254v-.08c0-7.888 5.909-14.35 14.378-14.35 5.2 0 8.312 1.745 10.873 4.282l-3.86 4.48c-2.128-1.943-4.295-3.132-7.052-3.132-4.649 0-7.997 3.884-7.997 8.641v.08c0 4.756 3.27 8.72 7.997 8.72 3.151 0 5.082-1.268 7.248-3.25l3.86 3.924c-2.836 3.052-5.987 4.955-11.305 4.955-8.115 0-14.142-6.303-14.142-14.27" mask="url(#d)"/>
        <path fill="#FFF" d="M34.115 15.254v-.08c0-7.888 6.106-14.35 14.457-14.35 4.964 0 7.958 1.349 10.834 3.806l-3.822 4.638c-2.127-1.784-4.018-2.814-7.209-2.814-4.412 0-7.918 3.924-7.918 8.641v.08c0 5.073 3.467 8.8 8.352 8.8 2.206 0 4.175-.555 5.712-1.665v-3.964h-6.106v-5.272H60.39v12.05c-2.836 2.418-6.736 4.4-11.778 4.4-8.588 0-14.497-6.065-14.497-14.27M62.045 15.254v-.08c0-7.888 5.91-14.35 14.379-14.35 5.2 0 8.312 1.745 10.872 4.282l-3.86 4.48c-2.127-1.943-4.294-3.132-7.052-3.132-4.648 0-7.996 3.884-7.996 8.641v.08c0 4.756 3.27 8.72 7.996 8.72 3.152 0 5.082-1.268 7.249-3.25l3.86 3.924c-2.836 3.052-5.987 4.955-11.306 4.955-8.114 0-14.142-6.303-14.142-14.27M114.084 17.434l-3.664-8.998-3.664 8.998h7.328zm-6.382-16.332h5.594l11.818 27.947h-6.343l-2.52-6.224H104.59l-2.521 6.224h-6.185l11.818-27.947zM138.626 14.778c2.954 0 4.648-1.585 4.648-3.924v-.08c0-2.616-1.812-3.963-4.766-3.963h-6.027v7.967h6.145zM126.414 1.301h12.606c3.506 0 6.224.99 8.036 2.814 1.537 1.546 2.364 3.726 2.364 6.342v.08c0 4.479-2.403 7.293-5.91 8.602l6.737 9.91h-7.09l-5.91-8.88h-4.766v8.88h-6.067V1.3zM150.72 15.254v-.08c0-7.888 6.106-14.35 14.457-14.35 4.964 0 7.958 1.349 10.833 3.806l-3.82 4.638c-2.128-1.784-4.019-2.814-7.21-2.814-4.412 0-7.918 3.924-7.918 8.641v.08c0 5.073 3.467 8.8 8.351 8.8 2.207 0 4.176-.555 5.713-1.665v-3.964h-6.106v-5.272h11.975v12.05c-2.836 2.418-6.736 4.4-11.779 4.4-8.587 0-14.496-6.065-14.496-14.27" mask="url(#d)"/>
    </g>
</svg>
