<svg xmlns="http://www.w3.org/2000/svg" width="20" height="18" viewBox="0 0 20 18">
    <path fill="#7F55CC" fill-rule="evenodd" d="M14.473 8.18C17.709 8.763 20 10.618 20 12.872v2.982a.88.88 0 0 1-.945.873H16v-2.642c0-2.209-1.811-4.122-4.639-5.037.54-.578.94-1.28 1.165-2.062A5.082 5.082 0 0 0 9.691.92c.177-.137.362-.266.564-.377a4.362 4.362 0 0 1 4.218 7.637zM9.745 9.394c3.237.582 5.528 2.436 5.528 4.69v2.982a.88.88 0 0 1-.945.873H.982c-.51.037-.946-.363-.982-.873v-2.981c0-2.291 2.327-4.11 5.527-4.691a4.294 4.294 0 0 1-1.709-1.71 4.362 4.362 0 1 1 5.927 1.71z"/>
</svg>
