<svg xmlns="http://www.w3.org/2000/svg" xmlns:xlink="http://www.w3.org/1999/xlink" width="276" height="300" viewBox="0 0 276 300">
    <defs>
        <path id="a" d="M1.037.732h225.095v89.283H1.037z"/>
        <path id="c" d="M.705.749h35.424v134.735H.705z"/>
        <path id="e" d="M0 1.375h21.38v18.249H0z"/>
    </defs>
    <g fill="none" fill-rule="evenodd">
        <path fill="#272727" d="M37.565 180.947c-3.292-3.216-6.762-5.856-10.824-8.009-14.704 15.191-20.98 31.138-23.297 38.69-.89 2.904.156 5.955 2.601 7.592.562.376 1.18.66 1.825.843 3.555 1.018 7.352-1.108 8.468-4.742 2.04-6.647 7.692-20.94 21.265-34.34-.01-.012-.026-.021-.038-.034"/>
        <g transform="translate(49.77 78.509)">
            <mask id="b" fill="#fff">
                <use xlink:href="#a"/>
            </mask>
            <path fill="#272727" d="M222.263 1.3c-3.368-1.505-7.402.084-8.99 3.537-.091.195-9.263 19.666-27.984 36.756-10.968 10.014-23.027 17.266-35.841 21.559-15.858 5.313-33.036 6.11-51.067 2.372l-.558-.116c-20.794-4.414-40.355-5.264-58.135-2.527-14.045 2.16-27.017 6.561-38.65 13.078 0 7.568 2.838 9.271 2.641 14.056C14.75 83.13 27.41 78.547 41.313 76.41c16.177-2.49 34.129-1.684 53.353 2.395 20.591 4.37 40.33 3.47 58.668-2.673 14.668-4.914 28.406-13.156 40.832-24.5 20.925-19.103 30.904-40.422 31.32-41.323 1.59-3.455.148-7.499-3.223-9.007" mask="url(#b)"/>
        </g>
        <path fill="#272727" d="M131.16 124.032c-10.374-12.921-16.958-26.876-19.564-41.475-2.092-11.717-1.66-23.93 1.284-36.304 5.038-21.169 15.917-35.785 16.022-35.923 1.016-1.34 1.42-3.004 1.133-4.692-.291-1.711-1.254-3.238-2.713-4.3-2.96-2.15-7.091-1.657-9.193 1.102-.501.66-12.381 16.42-18.085 40.175-5.316 22.138-6.018 55.54 20.817 88.962a6.989 6.989 0 0 0 2.256 1.842c2.269 1.168 5.012 1.006 6.989-.415a5.945 5.945 0 0 0 2.472-4.163c.207-1.706-.296-3.413-1.417-4.81"/>
        <g transform="translate(146.544 164.223)">
            <mask id="d" fill="#fff">
                <use xlink:href="#c"/>
            </mask>
            <path fill="#272727" d="M12.486 3.366a6.934 6.934 0 0 0-2.253-1.845c-2.269-1.17-5.016-1-6.999.432A6.006 6.006 0 0 0 .752 6.138c-.21 1.712.288 3.425 1.408 4.826C12.518 23.915 19.08 37.913 21.66 52.566c2.07 11.76 1.612 24.025-1.362 36.456-5.089 21.264-16.01 35.963-16.114 36.102-1.022 1.347-1.428 3.02-1.145 4.713.29 1.719 1.249 3.25 2.707 4.312 2.96 2.153 7.095 1.65 9.205-1.127.503-.662 12.428-16.512 18.19-40.377 5.367-22.237 6.141-55.779-20.654-89.28" mask="url(#d)"/>
        </g>
        <path fill="#F95D31" d="M160.752 121.975l-10.047-5.484 2.981-5.46 10.047 5.484zM149.052 110.864c-2.743 5.026-9.043 6.876-14.068 4.133-5.027-2.744-6.877-9.043-4.134-14.07 2.744-5.026 9.043-6.876 14.07-4.133 5.025 2.744 6.876 9.043 4.132 14.07M184.243 130.073c-2.743 5.027-9.043 6.877-14.068 4.132-5.027-2.742-6.877-9.041-4.134-14.068 2.744-5.026 9.043-6.876 14.07-4.133 5.025 2.744 6.876 9.042 4.132 14.07"/>
        <path fill="#7F55CC" d="M157.24 38.156c-2.744 5.027-9.042 6.876-14.07 4.132-5.026-2.743-6.876-9.041-4.131-14.068 2.742-5.027 9.042-6.878 14.068-4.134 5.026 2.745 6.876 9.043 4.133 14.07M239.756 83.198c-2.744 5.027-9.043 6.878-14.07 4.134-5.026-2.744-6.876-9.043-4.132-14.07 2.743-5.027 9.043-6.876 14.069-4.132 5.026 2.743 6.876 9.041 4.133 14.068"/>
        <path fill="#0774D3" d="M146.747 71.804c-2.742 5.027-9.042 6.877-14.068 4.134-5.027-2.744-6.876-9.043-4.133-14.07 2.744-5.027 9.042-6.876 14.07-4.132 5.025 2.743 6.876 9.041 4.131 14.068M218.342 110.886c-2.744 5.027-9.042 6.876-14.07 4.132-5.026-2.743-6.876-9.041-4.131-14.068 2.743-5.027 9.043-6.877 14.068-4.134 5.027 2.744 6.876 9.043 4.133 14.07"/>
        <path fill="#24DBB4" d="M113.946 175.178c2.743-5.027.893-11.326-4.134-14.07-5.025-2.743-11.325-.893-14.07 4.134-2.742 5.026-.893 11.325 4.134 14.068 5.027 2.744 11.326.894 14.07-4.132M149.136 194.387c2.744-5.027.893-11.326-4.132-14.069-5.027-2.744-11.326-.894-14.07 4.133-2.743 5.026-.893 11.325 4.134 14.07 5.025 2.743 11.325.892 14.068-4.134"/>
        <path fill="#DF1B42" d="M57.219 221.39c2.744-5.027.893-11.326-4.133-14.07-5.026-2.743-11.325-.893-14.07 4.134-2.742 5.026-.892 11.325 4.134 14.068 5.026 2.744 11.326.894 14.069-4.132M139.734 266.433c2.745-5.027.894-11.326-4.132-14.07-5.027-2.744-11.325-.893-14.07 4.134-2.742 5.026-.892 11.325 4.134 14.068 5.026 2.744 11.326.894 14.068-4.132"/>
        <path fill="#4BCEE5" d="M79.846 194.365c2.743-5.027.893-11.325-4.134-14.07-5.025-2.742-11.325-.893-14.068 4.134-2.744 5.027-.894 11.325 4.132 14.068 5.027 2.745 11.326.895 14.07-4.132M151.44 233.446c2.745-5.027.894-11.325-4.132-14.068-5.027-2.745-11.325-.895-14.07 4.132-2.742 5.027-.893 11.325 4.134 14.07 5.026 2.742 11.326.893 14.068-4.134"/>
        <path fill="#7F55CC" d="M215.376 73.04l-53.393-29.145 2.98-5.461 53.393 29.145z"/>
        <path fill="#DF1B42" d="M115.354 256.274L61.96 227.128l2.982-5.46 53.392 29.145z"/>
        <path fill="#4BCEE5" d="M128.662 224.162L82.161 198.78l2.982-5.463 46.5 25.384z"/>
        <path fill="#0774D3" d="M195.564 101.602l-46.5-25.384 2.98-5.46 46.5 25.383z"/>
        <path fill="#24DBB4" d="M126.308 185.076l-10.047-5.485 2.981-5.46 10.047 5.484z"/>
        <g transform="translate(0 146.25)">
            <mask id="f" fill="#fff">
                <use xlink:href="#e"/>
            </mask>
            <path fill="#FEA430" d="M8.55 1.375S1.962 5.453 0 11.455c0 0 .193 2.896 8.818 4.52l7.192 3.649 5.37-4.802S19.91 8.448 8.55 1.375" mask="url(#f)"/>
        </g>
        <path fill="#FEA430" d="M26.196 151.575l-12.077-20.447s1.49-3.95 8.302-6.231l11.334 22.352s-4.73 6.473-7.56 4.326M36.977 126.141l3.463 18.41s4.112.668 7.614-1.433l1.779-18.81s-4.637-1.51-12.856 1.833"/>
    </g>
</svg>
