<svg xmlns="http://www.w3.org/2000/svg" xmlns:xlink="http://www.w3.org/1999/xlink" width="350" height="76" viewBox="0 0 350 76">
    <defs>
        <path id="a" d="M0 74.871h349.94V.012H0z"/>
    </defs>
    <g fill="none" fill-rule="evenodd">
        <path fill="#131B3C" d="M210.428 7.365l-1.5-3.655-1.498 3.655h2.998zM207.817.731h2.288l4.835 11.352h-2.595l-1.03-2.528h-4.772l-1.031 2.528h-2.53L207.817.731z"/>
        <g transform="translate(0 .281)">
            <path fill="#131B3C" d="M214.957 7.535v-.032c0-2.464 1.886-4.493 4.529-4.493 1.627 0 2.643.548 3.449 1.45l-1.5 1.61c-.547-.58-1.095-.95-1.966-.95-1.224 0-2.094 1.078-2.094 2.35v.033c0 1.32.854 2.383 2.191 2.383.822 0 1.386-.354 1.983-.918l1.434 1.45c-.838.917-1.805 1.577-3.53 1.577-2.594 0-4.496-1.996-4.496-4.46M223.274 7.535v-.032c0-2.464 1.886-4.493 4.529-4.493 1.627 0 2.643.548 3.449 1.45l-1.5 1.61c-.547-.58-1.095-.95-1.966-.95-1.224 0-2.094 1.078-2.094 2.35v.033c0 1.32.854 2.383 2.191 2.383.822 0 1.386-.354 1.983-.918l1.434 1.45c-.838.917-1.805 1.577-3.53 1.577-2.594 0-4.496-1.996-4.496-4.46M237.683 6.81c-.146-1.094-.79-1.835-1.821-1.835-1.016 0-1.676.724-1.87 1.835h3.69zm-6.092.725v-.033c0-2.463 1.756-4.492 4.27-4.492 2.885 0 4.207 2.238 4.207 4.686 0 .193-.016.418-.033.644h-6.01c.241 1.11 1.015 1.69 2.11 1.69.822 0 1.419-.257 2.095-.885l1.403 1.24c-.806.998-1.967 1.61-3.53 1.61-2.595 0-4.512-1.82-4.512-4.46z"/>
            <mask id="b" fill="#fff">
                <use xlink:href="#a"/>
            </mask>
            <path fill="#131B3C" d="M241.358 11.802h2.45V.048h-2.45zM251.14 6.81c-.145-1.094-.79-1.835-1.82-1.835-1.016 0-1.677.724-1.87 1.835h3.69zm-6.091.725v-.033c0-2.463 1.756-4.492 4.27-4.492 2.885 0 4.206 2.238 4.206 4.686 0 .193-.015.418-.032.644h-6.011c.242 1.11 1.015 1.69 2.111 1.69.822 0 1.418-.257 2.095-.885l1.403 1.24c-.806.998-1.967 1.61-3.53 1.61-2.595 0-4.512-1.82-4.512-4.46zM254.703 3.171h2.45v1.74c.499-1.192 1.305-1.965 2.755-1.9v2.56h-.129c-1.627 0-2.627.982-2.627 3.043v3.188h-2.449v-8.63zM265.501 8.758v-.434a3.796 3.796 0 0 0-1.563-.322c-1.047 0-1.692.419-1.692 1.191v.033c0 .66.548 1.046 1.338 1.046 1.144 0 1.917-.628 1.917-1.514m-5.624.564V9.29c0-1.884 1.434-2.753 3.48-2.753.871 0 1.5.144 2.112.354v-.145c0-1.015-.628-1.578-1.853-1.578-.935 0-1.596.177-2.385.467l-.613-1.868c.951-.419 1.886-.692 3.352-.692 1.338 0 2.305.354 2.918.966.644.644.934 1.594.934 2.753v5.008h-2.369v-.934c-.596.66-1.418 1.095-2.61 1.095-1.628 0-2.966-.934-2.966-2.64M269.612 9.354v-4.09h-1.031V3.172h1.031V.966h2.45V3.17h2.03v2.094h-2.03v3.687c0 .564.242.837.79.837.45 0 .854-.113 1.208-.306v1.965c-.515.306-1.112.499-1.934.499-1.499 0-2.514-.596-2.514-2.593M275.366 11.802h2.45v-8.63h-2.45v8.63zm-.064-9.58h2.578V.047h-2.578V2.22zM279.476 3.171h2.45v1.224c.564-.725 1.289-1.385 2.53-1.385 1.853 0 2.933 1.224 2.933 3.205v5.587h-2.45V6.987c0-1.159-.548-1.755-1.483-1.755-.934 0-1.53.596-1.53 1.755v4.815h-2.45v-8.63zM295.141 7.068v-.032c0-1.176-.918-1.997-2.11-1.997-1.193 0-2.096.821-2.096 1.997v.032c0 1.192.903 1.996 2.095 1.996 1.193 0 2.111-.82 2.111-1.996m-6.22 6.44l.838-1.835c.886.5 1.772.789 2.917.789 1.676 0 2.465-.805 2.465-2.35v-.42c-.725.87-1.514 1.401-2.82 1.401-2.014 0-3.835-1.465-3.835-4.025v-.032c0-2.577 1.853-4.026 3.835-4.026 1.338 0 2.128.564 2.788 1.288V3.171h2.45v6.682c0 1.546-.37 2.673-1.096 3.398-.806.805-2.047 1.16-3.723 1.16-1.402 0-2.723-.323-3.82-.902M208.945 21.567c1.208 0 1.902-.644 1.902-1.595v-.032c0-1.062-.742-1.61-1.95-1.61h-2.466v3.237h2.514zm-4.996-5.475h5.157c1.434 0 2.546.403 3.288 1.143.628.628.966 1.514.966 2.577v.032c0 1.82-.982 2.963-2.417 3.494l2.756 4.025h-2.9l-2.418-3.606h-1.95v3.606h-2.482v-11.27zM220.211 22.372c-.145-1.095-.79-1.836-1.821-1.836-1.015 0-1.676.725-1.87 1.836h3.691zm-6.092.725v-.033c0-2.463 1.757-4.492 4.271-4.492 2.885 0 4.206 2.238 4.206 4.685 0 .194-.016.419-.032.644h-6.011c.242 1.111 1.015 1.691 2.11 1.691.823 0 1.42-.258 2.096-.886l1.402 1.24c-.806.999-1.966 1.61-3.53 1.61-2.594 0-4.512-1.819-4.512-4.46zM223.097 26.22l1.047-1.61c.935.676 1.918 1.03 2.724 1.03.71 0 1.031-.257 1.031-.644v-.032c0-.531-.838-.708-1.789-.998-1.208-.354-2.578-.918-2.578-2.593v-.032c0-1.755 1.418-2.737 3.158-2.737 1.097 0 2.29.37 3.224.998l-.935 1.691c-.854-.5-1.708-.805-2.337-.805-.596 0-.902.257-.902.596v.032c0 .483.822.708 1.757 1.03 1.208.403 2.61.983 2.61 2.56v.033c0 1.916-1.434 2.785-3.304 2.785a6.054 6.054 0 0 1-3.706-1.304M236.893 22.372c-.145-1.095-.79-1.836-1.821-1.836-1.016 0-1.676.725-1.87 1.836h3.69zm-6.092.725v-.033c0-2.463 1.757-4.492 4.27-4.492 2.885 0 4.207 2.238 4.207 4.685 0 .194-.016.419-.032.644h-6.012c.242 1.111 1.016 1.691 2.112 1.691.822 0 1.418-.258 2.095-.886l1.402 1.24c-.806.999-1.967 1.61-3.53 1.61-2.594 0-4.512-1.819-4.512-4.46zM245.564 24.32v-.435a3.796 3.796 0 0 0-1.563-.322c-1.048 0-1.692.419-1.692 1.192v.032c0 .66.548 1.047 1.338 1.047 1.144 0 1.917-.628 1.917-1.514m-5.624.564v-.032c0-1.884 1.434-2.754 3.48-2.754.871 0 1.5.145 2.112.354v-.144c0-1.015-.629-1.579-1.853-1.579-.935 0-1.596.177-2.385.467l-.613-1.867c.95-.42 1.886-.693 3.352-.693 1.338 0 2.305.355 2.917.966.645.644.935 1.594.935 2.754v5.007h-2.37v-.933c-.595.66-1.417 1.094-2.61 1.094-1.628 0-2.965-.934-2.965-2.64M249.352 18.733h2.45v1.739c.5-1.192 1.305-1.965 2.756-1.9v2.56h-.13c-1.627 0-2.626.982-2.626 3.043v3.188h-2.45v-8.63zM254.784 23.096v-.032c0-2.464 1.885-4.492 4.528-4.492 1.628 0 2.643.547 3.45 1.449l-1.5 1.61c-.547-.58-1.096-.95-1.966-.95-1.225 0-2.095 1.079-2.095 2.35v.033c0 1.32.854 2.383 2.192 2.383.822 0 1.386-.354 1.982-.917l1.435 1.449c-.839.917-1.805 1.577-3.53 1.577-2.594 0-4.496-1.996-4.496-4.46M263.761 15.61h2.45v4.347c.564-.725 1.29-1.385 2.53-1.385 1.853 0 2.933 1.224 2.933 3.204v5.587h-2.45V22.55c0-1.16-.547-1.755-1.482-1.755-.935 0-1.531.595-1.531 1.755v4.814h-2.45V15.61zM277.461 27.364h2.45v-8.631h-2.45v8.63zm-.064-9.581h2.578v-2.174h-2.578v2.174zM281.571 18.733h2.45v1.223c.564-.724 1.289-1.384 2.53-1.384 1.853 0 2.933 1.224 2.933 3.204v5.587h-2.45V22.55c0-1.16-.548-1.755-1.483-1.755-.934 0-1.53.596-1.53 1.755v4.814h-2.45v-8.63zM203.45 37.321v-.032c0-3.204 2.497-5.829 5.914-5.829 2.03 0 3.255.548 4.432 1.546l-1.564 1.884c-.87-.725-1.643-1.143-2.949-1.143-1.805 0-3.24 1.594-3.24 3.51v.032c0 2.061 1.42 3.575 3.418 3.575.902 0 1.708-.226 2.336-.677v-1.61H209.3v-2.141h4.9v4.895c-1.16.982-2.756 1.787-4.819 1.787-3.513 0-5.93-2.463-5.93-5.797M221.356 37.933c-.146-1.095-.79-1.835-1.822-1.835-1.015 0-1.675.724-1.87 1.835h3.692zm-6.092.725v-.033c0-2.463 1.756-4.492 4.27-4.492 2.885 0 4.207 2.238 4.207 4.686 0 .193-.016.418-.033.644h-6.01c.241 1.11 1.015 1.69 2.11 1.69.822 0 1.419-.257 2.095-.885l1.403 1.24c-.806.998-1.967 1.61-3.53 1.61-2.595 0-4.512-1.82-4.512-4.46zM224.918 34.294h2.45v1.224c.564-.725 1.29-1.385 2.53-1.385 1.853 0 2.933 1.224 2.933 3.204v5.588h-2.45V38.11c0-1.159-.548-1.755-1.482-1.755-.935 0-1.531.596-1.531 1.755v4.815h-2.45v-8.63zM240.825 38.658v-.032c0-1.272-.918-2.384-2.272-2.384-1.402 0-2.24 1.08-2.24 2.351v.033c0 1.272.919 2.383 2.272 2.383 1.402 0 2.24-1.08 2.24-2.351m-6.93 0v-.032c0-2.48 1.999-4.493 4.69-4.493 2.675 0 4.658 1.98 4.658 4.46v.033c0 2.48-1.999 4.492-4.69 4.492-2.675 0-4.657-1.98-4.657-4.46M244.372 34.294h2.45v1.224c.564-.725 1.305-1.385 2.546-1.385 1.128 0 1.982.5 2.433 1.369.758-.886 1.66-1.369 2.837-1.369 1.82 0 2.916 1.095 2.916 3.172v5.62h-2.449V38.11c0-1.159-.516-1.755-1.434-1.755-.919 0-1.483.596-1.483 1.755v4.815h-2.45V38.11c0-1.159-.515-1.755-1.434-1.755-.918 0-1.483.596-1.483 1.755v4.815h-2.45v-8.63zM259.152 42.925h2.45v-8.63h-2.45v8.63zm-.065-9.58h2.579V31.17h-2.579v2.173zM262.843 38.658v-.032c0-2.464 1.885-4.493 4.528-4.493 1.628 0 2.643.548 3.45 1.45l-1.5 1.61c-.548-.58-1.096-.95-1.966-.95-1.225 0-2.095 1.078-2.095 2.35v.033c0 1.32.854 2.383 2.192 2.383.821 0 1.386-.354 1.982-.918l1.434 1.45c-.838.917-1.805 1.577-3.529 1.577-2.595 0-4.496-1.996-4.496-4.46M285.164 37.321v-.032c0-1.932-1.418-3.542-3.416-3.542-1.999 0-3.385 1.578-3.385 3.51v.032c0 1.932 1.419 3.543 3.417 3.543 1.998 0 3.384-1.579 3.384-3.51m-9.395 0v-.033c0-3.204 2.53-5.829 6.011-5.829 3.481 0 5.98 2.593 5.98 5.797v.032c0 3.204-2.531 5.829-6.012 5.829-3.481 0-5.98-2.592-5.98-5.797M289.066 34.294h2.45v1.224c.563-.725 1.289-1.385 2.53-1.385 1.853 0 2.933 1.224 2.933 3.204v5.588h-2.45V38.11c0-1.159-.548-1.755-1.483-1.755s-1.53.596-1.53 1.755v4.815h-2.45v-8.63zM298.044 38.658v-.032c0-2.464 1.885-4.493 4.528-4.493 1.628 0 2.643.548 3.449 1.45l-1.5 1.61c-.547-.58-1.095-.95-1.965-.95-1.225 0-2.095 1.078-2.095 2.35v.033c0 1.32.854 2.383 2.192 2.383.821 0 1.385-.354 1.982-.918l1.434 1.45c-.838.917-1.805 1.577-3.53 1.577-2.594 0-4.495-1.996-4.495-4.46M313.29 38.658v-.032c0-1.272-.919-2.384-2.272-2.384-1.403 0-2.24 1.08-2.24 2.351v.033c0 1.272.918 2.383 2.272 2.383 1.402 0 2.24-1.08 2.24-2.351m-6.93 0v-.032c0-2.48 1.999-4.493 4.69-4.493 2.675 0 4.657 1.98 4.657 4.46v.033c0 2.48-1.998 4.492-4.69 4.492-2.675 0-4.657-1.98-4.657-4.46M316.95 42.925h2.449V31.17h-2.45zM327.57 38.658v-.032c0-1.272-.919-2.384-2.272-2.384-1.403 0-2.24 1.08-2.24 2.351v.033c0 1.272.918 2.383 2.272 2.383 1.402 0 2.24-1.08 2.24-2.351m-6.93 0v-.032c0-2.48 1.998-4.493 4.69-4.493 2.675 0 4.657 1.98 4.657 4.46v.033c0 2.48-1.998 4.492-4.69 4.492-2.675 0-4.657-1.98-4.657-4.46M337.385 38.19v-.031c0-1.176-.918-1.997-2.111-1.997s-2.095.821-2.095 1.997v.032c0 1.192.902 1.996 2.095 1.996s2.111-.82 2.111-1.996m-6.22 6.44l.838-1.835c.886.5 1.772.789 2.917.789 1.676 0 2.465-.805 2.465-2.35v-.42c-.725.87-1.514 1.401-2.82 1.401-2.014 0-3.835-1.465-3.835-4.025v-.032c0-2.577 1.853-4.026 3.835-4.026 1.338 0 2.128.564 2.788 1.288v-1.127h2.45v6.682c0 1.546-.371 2.673-1.096 3.398-.806.805-2.047 1.16-3.723 1.16-1.402 0-2.723-.323-3.82-.902M341.238 44.954l.822-1.771c.322.193.725.338 1.047.338.42 0 .645-.129.854-.564l-3.384-8.663h2.595l1.966 5.877 1.885-5.877h2.547l-3.32 8.84c-.66 1.755-1.37 2.415-2.837 2.415a4.059 4.059 0 0 1-2.175-.595M192.34 34.545a21.655 21.655 0 0 0 3.334-6.867h-19.747c-.14 2.293-.347 4.583-.617 6.867h17.03zM153.766 27.678a21.65 21.65 0 0 0 3.334 6.867h4.313a22.349 22.349 0 0 1-3.185-6.867h-4.462zM176.05 25.213h20.163a21.861 21.861 0 0 0 0-6.867h-20.081c.038 2.29.01 4.58-.082 6.867M157.729 18.346h-4.503a21.861 21.861 0 0 0 0 6.868h4.49a22.617 22.617 0 0 1-.268-3.39c0-1.184.104-2.343.28-3.478M190.252 6.549A21.707 21.707 0 0 0 174.72.034c-.097 0-.192.006-.288.008.369 2.162.671 4.332.922 6.507h14.898zM174.32.044a21.703 21.703 0 0 0-15.133 6.505h4.25A22.513 22.513 0 0 1 174.32.044M157.1 9.014a21.66 21.66 0 0 0-3.334 6.867h4.485a22.36 22.36 0 0 1 3.218-6.867h-4.37zM195.673 15.881a21.654 21.654 0 0 0-3.333-6.867h-16.727c.216 2.286.369 4.575.454 6.867h19.606zM163.363 37.01h-4.176a21.708 21.708 0 0 0 15.533 6.515 21.707 21.707 0 0 0 15.532-6.514H174.99c-.302 2.167-.657 4.33-1.078 6.482a22.526 22.526 0 0 1-10.549-6.482" mask="url(#b)"/>
            <path fill="#37B34A" d="M174.427.012c-.036.01-.07.023-.107.032l.112-.002a1.209 1.209 0 0 1-.005-.03" mask="url(#b)"/>
            <path fill="#3075BA" d="M161.413 34.545h13.896c.271-2.284.479-4.574.618-6.867h-17.7c.671 2.488 1.762 4.8 3.186 6.867M176.132 18.346h-18.403a22.606 22.606 0 0 0-.28 3.478c0 1.153.1 2.283.267 3.39h18.335c.092-2.289.119-4.578.08-6.868M174.432.042c-.038 0-.075.002-.112.003a22.51 22.51 0 0 0-10.883 6.504h11.917a120.99 120.99 0 0 0-.922-6.507M175.613 9.014H161.47a22.36 22.36 0 0 0-3.218 6.867h17.816a120.899 120.899 0 0 0-.454-6.867M173.912 43.493c.422-2.153.776-4.315 1.079-6.482h-11.628a22.529 22.529 0 0 0 10.549 6.482" mask="url(#b)"/>
            <path fill="#FFF" d="M186.035 21.78c0 6.244-5.066 11.305-11.315 11.305-6.25 0-11.316-5.061-11.316-11.305s5.066-11.306 11.316-11.306c6.25 0 11.315 5.062 11.315 11.306" mask="url(#b)"/>
            <path fill="#DD1C4D" d="M185.158 21.833c0 5.718-4.639 10.353-10.362 10.353-5.722 0-10.362-4.635-10.362-10.353s4.64-10.353 10.362-10.353c5.723 0 10.362 4.635 10.362 10.353" mask="url(#b)"/>
            <path fill="#FFF" d="M174.796 12.802c-4.984 0-9.04 4.051-9.04 9.032 0 4.98 4.056 9.031 9.04 9.031 4.985 0 9.04-4.052 9.04-9.031 0-4.98-4.055-9.032-9.04-9.032m0 20.706c-6.443 0-11.684-5.237-11.684-11.674 0-6.438 5.241-11.675 11.684-11.675s11.685 5.237 11.685 11.675c0 6.437-5.242 11.674-11.685 11.674" mask="url(#b)"/>
            <path fill="#FFF" d="M174.935 12.765c-4.975 0-9.022 4.044-9.022 9.014s4.047 9.013 9.022 9.013c4.974 0 9.021-4.043 9.021-9.013s-4.047-9.014-9.021-9.014m0 18.908c-5.46 0-9.903-4.438-9.903-9.894s4.442-9.895 9.903-9.895c5.46 0 9.903 4.439 9.903 9.895 0 5.456-4.443 9.894-9.903 9.894" mask="url(#b)"/>
            <path fill="#FFF" d="M174.935 12.765c-2.559 0-4.72 4.128-4.72 9.014 0 4.886 2.161 9.013 4.72 9.013 2.559 0 4.72-4.127 4.72-9.013s-2.161-9.014-4.72-9.014m0 18.908c-3.141 0-5.602-4.346-5.602-9.894s2.46-9.895 5.602-9.895c3.141 0 5.602 4.347 5.602 9.895 0 5.548-2.46 9.894-5.602 9.894" mask="url(#b)"/>
            <path fill="#FFF" d="M174.494 31.233h.882V12.325h-.882z" mask="url(#b)"/>
            <path fill="#FFF" d="M165.455 22.22h18.924v-.881h-18.924zM166.691 17.278h16.344v-.881h-16.344zM166.799 27.161h16.236v-.88h-16.236z" mask="url(#b)"/>
            <path fill="#DD1C4D" d="M183.194 56.495c-2.152.019-4.318-.178-6.415-.716-2.092-.535-4.12-1.369-5.96-2.51-3.73-2.239-6.693-5.45-10.112-7.96-1.7-1.27-3.54-2.333-5.5-3.097-1.96-.769-4.041-1.187-6.139-1.358-4.196-.315-8.516.2-12.271 2.041-.467.234-.935.463-1.383.734-.458.25-.893.542-1.334.823a32.245 32.245 0 0 0-2.526 1.89c-1.64 1.336-3.188 2.814-4.832 4.224-.816.71-1.67 1.39-2.546 2.046-.891.64-1.804 1.258-2.776 1.789-1.926 1.09-4.047 1.849-6.213 2.305-2.172.454-4.384.591-6.583.516-2.2-.084-4.422-.396-6.545-1.092a22.963 22.963 0 0 1-5.964-2.953c-1.835-1.239-3.486-2.673-5.107-4.076-1.62-1.4-3.218-2.78-4.938-3.935a21.083 21.083 0 0 0-5.492-2.71c-1.94-.63-3.988-.912-6.047-.983-2.064-.064-4.14.074-6.129.499-1.991.42-3.912 1.102-5.682 2.102l-.662.378c-.219.13-.431.274-.647.41-.435.265-.847.579-1.27.87a48.447 48.447 0 0 0-2.44 1.95c-1.61 1.356-3.176 2.836-4.9 4.21a33.937 33.937 0 0 1-2.692 1.96c-.477.297-.946.602-1.445.867-.486.285-.997.528-1.505.774-2.05.96-4.264 1.555-6.482 1.855a29.042 29.042 0 0 1-6.665.093c-2.213-.233-4.426-.731-6.494-1.6-.513-.226-1.031-.438-1.523-.704-.247-.13-.502-.247-.742-.387l-.722-.421a27.5 27.5 0 0 1-2.719-1.893c-3.466-2.7-6.277-5.955-9.815-8.24-1.74-1.177-3.667-2.06-5.69-2.664-2.027-.6-4.151-.889-6.287-.974v-.23l1.617-.018 1.621.074c.538.061 1.078.118 1.615.193l.802.145c.268.05.537.093.8.165 2.119.495 4.19 1.297 6.076 2.413l.706.42.685.451c.46.297.894.626 1.338.942a64.49 64.49 0 0 1 2.548 2.02c1.66 1.373 3.255 2.79 4.96 4.006 1.692 1.234 3.5 2.251 5.412 2.987 1.913.737 3.943 1.131 5.996 1.287 2.054.145 4.147.094 6.169-.218 2.022-.318 3.987-.89 5.806-1.787.454-.227.91-.448 1.346-.712.447-.243.872-.528 1.303-.803a31.631 31.631 0 0 0 2.484-1.853c1.62-1.313 3.178-2.776 4.842-4.189a41.488 41.488 0 0 1 2.596-2.047c.464-.313.91-.644 1.394-.934.239-.147.473-.302.716-.443l.738-.412c1.977-1.091 4.153-1.843 6.36-2.282 2.216-.428 4.454-.531 6.673-.421 2.22.117 4.459.47 6.591 1.2a23.102 23.102 0 0 1 5.96 3.051c1.824 1.268 3.454 2.726 5.055 4.153 1.599 1.423 3.177 2.827 4.884 4.012a21.255 21.255 0 0 0 5.486 2.812c1.948.669 4.013.99 6.093 1.097 2.083.1 4.185-.004 6.219-.401 2.032-.4 4.008-1.076 5.83-2.075.918-.485 1.79-1.06 2.65-1.657a43.403 43.403 0 0 0 2.492-1.95c1.63-1.36 3.206-2.824 4.91-4.176a33.563 33.563 0 0 1 2.649-1.925c.466-.29.926-.59 1.412-.847.475-.278.973-.514 1.47-.754 1.995-.937 4.147-1.518 6.315-1.815a28.91 28.91 0 0 1 6.532-.102c2.17.216 4.33.69 6.354 1.527 2.024.83 3.908 1.968 5.618 3.294 3.442 2.63 6.318 5.863 9.938 8.121 1.786 1.152 3.756 2.003 5.806 2.567 2.052.566 4.19.8 6.326.82v.23z" mask="url(#b)"/>
            <path fill="#3075BA" d="M219.696 58.397c-2.151.02-4.318-.178-6.414-.715-2.092-.535-4.121-1.37-5.96-2.51-3.731-2.239-6.693-5.45-10.112-7.96-1.7-1.27-3.541-2.333-5.501-3.097-1.959-.77-4.04-1.187-6.138-1.358-4.196-.315-8.516.2-12.272 2.04-.466.234-.934.463-1.382.734-.458.25-.894.542-1.334.824a32.241 32.241 0 0 0-2.527 1.89c-1.64 1.335-3.187 2.814-4.831 4.223-.816.71-1.67 1.39-2.546 2.047-.892.639-1.805 1.257-2.776 1.788-1.926 1.09-4.047 1.85-6.213 2.305-2.173.455-4.385.592-6.584.516-2.2-.083-4.422-.396-6.545-1.092a22.984 22.984 0 0 1-5.964-2.952c-1.835-1.24-3.485-2.673-5.106-4.077-1.62-1.4-3.22-2.78-4.938-3.934a21.09 21.09 0 0 0-5.493-2.71c-1.94-.631-3.987-.912-6.047-.984-2.063-.064-4.14.075-6.128.5-1.992.419-3.912 1.102-5.682 2.102l-.663.378c-.219.13-.43.274-.647.41-.435.265-.846.578-1.269.87a48.62 48.62 0 0 0-2.44 1.95c-1.61 1.356-3.177 2.836-4.9 4.209a34.014 34.014 0 0 1-2.693 1.96c-.476.297-.946.603-1.445.868-.485.285-.996.528-1.505.774-2.05.96-4.264 1.555-6.481 1.855a29.025 29.025 0 0 1-6.665.092c-2.213-.232-4.426-.731-6.495-1.6-.512-.225-1.03-.437-1.523-.703-.247-.13-.501-.247-.742-.388l-.721-.42a27.498 27.498 0 0 1-2.72-1.893c-3.466-2.7-6.276-5.955-9.814-8.241-1.741-1.176-3.668-2.059-5.691-2.663-2.026-.6-4.15-.89-6.286-.974h-.004a.116.116 0 0 1-.11-.12.116.116 0 0 1 .114-.111l1.617-.017 1.62.074c.538.061 1.078.118 1.616.193l.802.145c.268.049.536.092.8.165 2.118.495 4.19 1.297 6.076 2.413l.706.42.685.45c.46.297.894.626 1.338.943a64.49 64.49 0 0 1 2.547 2.02c1.66 1.373 3.255 2.789 4.96 4.005 1.692 1.234 3.5 2.252 5.413 2.988 1.913.737 3.943 1.131 5.996 1.286 2.054.145 4.147.094 6.168-.218 2.022-.317 3.987-.89 5.807-1.786.453-.227.91-.448 1.346-.712.446-.243.872-.528 1.303-.803a31.635 31.635 0 0 0 2.483-1.853c1.62-1.314 3.179-2.776 4.842-4.19a41.597 41.597 0 0 1 2.597-2.046c.463-.313.91-.645 1.393-.934.24-.148.473-.302.717-.443l.738-.413c1.977-1.09 4.152-1.842 6.36-2.281 2.216-.428 4.454-.532 6.672-.422 2.22.118 4.46.47 6.592 1.2a23.101 23.101 0 0 1 5.96 3.052c1.823 1.268 3.454 2.725 5.054 4.152 1.6 1.424 3.178 2.828 4.885 4.013a21.234 21.234 0 0 0 5.486 2.812c1.948.668 4.013.99 6.092 1.097 2.084.1 4.186-.004 6.22-.402 2.032-.4 4.007-1.075 5.83-2.074.918-.485 1.79-1.06 2.65-1.658a43.278 43.278 0 0 0 2.491-1.95c1.63-1.358 3.207-2.823 4.91-4.175a33.563 33.563 0 0 1 2.65-1.926c.466-.29.925-.589 1.412-.846.475-.278.973-.514 1.469-.754 1.995-.938 4.148-1.518 6.315-1.815a28.892 28.892 0 0 1 6.533-.102c2.169.216 4.33.69 6.353 1.527 2.024.83 3.908 1.967 5.618 3.294 3.442 2.63 6.319 5.863 9.939 8.12 1.786 1.153 3.755 2.004 5.806 2.568 2.052.566 4.19.8 6.326.82a.115.115 0 0 1 0 .23" mask="url(#b)"/>
            <path fill="#131B3C" d="M133.115 43.732l.115-.002c.136-.092.273-.186.411-.277.467-.29.926-.59 1.413-.847.475-.278.973-.514 1.469-.753 1.995-.938 4.148-1.52 6.315-1.816a27.96 27.96 0 0 1 4.285-.23 29.18 29.18 0 0 0 3.656-2.65l-.02-17.951-17.968.02.01 7.854 9.16-.01.008 5.905c-2.303 1.656-5.258 2.486-8.568 2.49-7.328.009-12.536-5.536-12.545-13.095v-.118c-.008-7.027 5.245-12.88 11.864-12.887 4.788-.005 7.627 1.526 10.822 4.18l5.724-6.915C144.948 2.974 140.454.97 133.007.98c-12.53.014-21.681 9.65-21.667 21.4v.12c.014 12.223 8.89 21.247 21.775 21.232M93.322 9.945c4.433-.006 7.155 2 7.158 5.896v.119c.005 3.484-2.534 5.849-6.967 5.854l-9.22.011-.013-11.87 9.042-.01zM81.414 40.512c.995.337 1.966.747 2.903 1.217l-.014-11.873 7.15-.008 8.817 13.12a22.94 22.94 0 0 1 4.382-1.332 26.604 26.604 0 0 1 5.033-.462l-8.835-12.872c5.257-1.956 8.858-6.153 8.85-12.826v-.117c-.004-3.897-1.25-7.144-3.556-9.444C103.42 3.2 99.34 1.73 94.08 1.735l-18.913.023.044 37.58c2.092.136 4.194.487 6.202 1.174zM53.886 12.417l5.512 13.4-10.994.012 5.482-13.412zM41.434 43.034a27.516 27.516 0 0 0-4.712-.574h-.003a.115.115 0 0 1 .003-.23l1.618-.017 1.62.073c.538.062 1.078.119 1.615.194l.078.014 3.51-8.631 17.495-.02 2.711 6.624a23.558 23.558 0 0 1 2.78-.734c2.057-.397 4.132-.512 6.192-.44L58.187 1.488l-8.393.01L32.112 43.15l9.279-.01.043-.106zM30.043 74.674h2.534v-11.51h-2.534zM34.535 65.861h2.502v1.25c.576-.74 1.316-1.415 2.584-1.415 1.892 0 2.995 1.25 2.995 3.273v5.705h-2.502v-4.916c0-1.184-.56-1.792-1.514-1.792s-1.563.608-1.563 1.792v4.916h-2.502v-8.813zM44.54 72.175v-4.177h-1.052v-2.137h1.053v-2.253h2.501v2.253h2.074v2.137h-2.074v3.766c0 .575.247.855.807.855.46 0 .872-.115 1.234-.313v2.006c-.527.313-1.136.51-1.975.51-1.53 0-2.567-.609-2.567-2.647M55.847 69.577c-.149-1.118-.807-1.875-1.86-1.875-1.037 0-1.711.74-1.909 1.875h3.769zm-6.221.74v-.033c0-2.516 1.794-4.588 4.361-4.588 2.946 0 4.295 2.286 4.295 4.785 0 .197-.016.428-.032.658h-6.14c.248 1.135 1.038 1.726 2.157 1.726.839 0 1.448-.263 2.14-.904l1.43 1.266c-.822 1.02-2.007 1.644-3.603 1.644-2.65 0-4.608-1.858-4.608-4.554zM59.483 65.861h2.502v1.776c.51-1.217 1.333-2.006 2.814-1.94v2.614h-.132c-1.662 0-2.682 1.003-2.682 3.107v3.256h-2.502v-8.813zM65.704 65.861h2.502v1.25c.576-.74 1.316-1.415 2.583-1.415 1.893 0 2.995 1.25 2.995 3.273v5.705h-2.501v-4.916c0-1.184-.56-1.792-1.514-1.792-.955 0-1.563.608-1.563 1.792v4.916h-2.502v-8.813zM80.514 71.566v-.444a3.88 3.88 0 0 0-1.596-.328c-1.07 0-1.728.427-1.728 1.216v.033c0 .674.56 1.069 1.366 1.069 1.169 0 1.958-.641 1.958-1.546m-5.743.576v-.033c0-1.924 1.465-2.812 3.555-2.812.888 0 1.53.148 2.156.362v-.148c0-1.036-.642-1.611-1.893-1.611-.954 0-1.63.18-2.436.477l-.625-1.908c.971-.427 1.926-.707 3.423-.707 1.366 0 2.353.362 2.979.987.658.657.954 1.628.954 2.811v5.114h-2.419v-.954c-.609.674-1.448 1.118-2.666 1.118-1.662 0-3.028-.953-3.028-2.696M84.711 72.175v-4.177h-1.053v-2.137h1.053v-2.253h2.502v2.253h2.073v2.137h-2.073v3.766c0 .575.247.855.806.855.46 0 .872-.115 1.234-.313v2.006c-.526.313-1.135.51-1.974.51-1.53 0-2.568-.609-2.568-2.647M90.586 74.674h2.502v-8.813h-2.502v8.813zm-.066-9.783h2.633v-2.22H90.52v2.22zM101.43 70.317v-.033c0-1.299-.937-2.434-2.32-2.434-1.431 0-2.287 1.102-2.287 2.401v.033c0 1.299.938 2.433 2.32 2.433 1.432 0 2.288-1.101 2.288-2.4m-7.077 0v-.033c0-2.532 2.04-4.587 4.79-4.587 2.731 0 4.755 2.022 4.755 4.554v.033c0 2.532-2.04 4.587-4.789 4.587-2.731 0-4.756-2.022-4.756-4.554M105.051 65.861h2.502v1.25c.576-.74 1.316-1.415 2.583-1.415 1.893 0 2.995 1.25 2.995 3.273v5.705h-2.501v-4.916c0-1.184-.56-1.792-1.514-1.792-.955 0-1.563.608-1.563 1.792v4.916h-2.502v-8.813zM119.862 71.566v-.444a3.88 3.88 0 0 0-1.596-.328c-1.07 0-1.728.427-1.728 1.216v.033c0 .674.56 1.069 1.366 1.069 1.168 0 1.958-.641 1.958-1.546m-5.743.576v-.033c0-1.924 1.464-2.812 3.555-2.812.888 0 1.53.148 2.155.362v-.148c0-1.036-.642-1.611-1.892-1.611-.955 0-1.63.18-2.436.477l-.625-1.908c.97-.427 1.925-.707 3.423-.707 1.366 0 2.353.362 2.978.987.659.657.955 1.628.955 2.811v5.114h-2.42v-.954c-.608.674-1.448 1.118-2.665 1.118-1.662 0-3.028-.953-3.028-2.696M123.844 74.674h2.502V62.67h-2.502zM132.072 68.952v-.033c0-3.272 2.469-5.952 6.007-5.952 2.172 0 3.472.723 4.542 1.776l-1.613 1.858c-.889-.806-1.794-1.3-2.946-1.3-1.942 0-3.34 1.612-3.34 3.585v.033c0 1.973 1.365 3.617 3.34 3.617 1.317 0 2.123-.526 3.028-1.348l1.613 1.628c-1.185 1.266-2.501 2.055-4.723 2.055-3.39 0-5.908-2.614-5.908-5.92M149.022 71.566v-.444a3.88 3.88 0 0 0-1.596-.328c-1.07 0-1.728.427-1.728 1.216v.033c0 .674.56 1.069 1.366 1.069 1.168 0 1.958-.641 1.958-1.546m-5.743.576v-.033c0-1.924 1.465-2.812 3.555-2.812.888 0 1.53.148 2.156.362v-.148c0-1.036-.642-1.611-1.893-1.611-.955 0-1.63.18-2.436.477l-.625-1.908c.97-.427 1.925-.707 3.423-.707 1.366 0 2.353.362 2.979.987.658.657.954 1.628.954 2.811v5.114h-2.419v-.954c-.609.674-1.448 1.118-2.666 1.118-1.662 0-3.028-.953-3.028-2.696M152.89 65.861h2.501v1.25c.576-.74 1.316-1.415 2.584-1.415 1.892 0 2.995 1.25 2.995 3.273v5.705h-2.502v-4.916c0-1.184-.56-1.792-1.514-1.792s-1.563.608-1.563 1.792v4.916h-2.502v-8.813zM162.055 70.317v-.033c0-2.516 1.926-4.587 4.625-4.587 1.662 0 2.699.559 3.522 1.48l-1.53 1.644c-.56-.592-1.12-.97-2.008-.97-1.251 0-2.14 1.101-2.14 2.4v.033c0 1.348.872 2.433 2.238 2.433.84 0 1.415-.361 2.024-.937l1.465 1.48c-.856.937-1.843 1.611-3.604 1.611-2.65 0-4.592-2.039-4.592-4.554M176.768 69.577c-.149-1.118-.806-1.875-1.86-1.875-1.036 0-1.711.74-1.909 1.875h3.769zm-6.221.74v-.033c0-2.516 1.794-4.588 4.361-4.588 2.946 0 4.295 2.286 4.295 4.785 0 .197-.016.428-.032.658h-6.14c.248 1.135 1.038 1.726 2.157 1.726.839 0 1.448-.263 2.14-.904l1.43 1.266c-.822 1.02-2.007 1.644-3.603 1.644-2.65 0-4.608-1.858-4.608-4.554zM180.405 65.861h2.501v1.776c.51-1.217 1.333-2.006 2.814-1.94v2.614h-.131c-1.663 0-2.683 1.003-2.683 3.107v3.256h-2.501v-8.813zM190.657 68.952v-.033c0-3.272 2.55-5.952 6.04-5.952 2.073 0 3.324.56 4.525 1.578l-1.596 1.924c-.889-.74-1.679-1.167-3.012-1.167-1.843 0-3.307 1.628-3.307 3.584v.033c0 2.105 1.447 3.65 3.488 3.65.922 0 1.745-.23 2.386-.69v-1.645h-2.55v-2.186h5.002v4.998c-1.185 1.003-2.814 1.825-4.92 1.825-3.588 0-6.056-2.515-6.056-5.92M208.94 69.577c-.148-1.118-.806-1.875-1.86-1.875-1.036 0-1.71.74-1.908 1.875h3.768zm-6.22.74v-.033c0-2.516 1.794-4.588 4.36-4.588 2.946 0 4.296 2.286 4.296 4.785 0 .197-.017.428-.033.658h-6.139c.247 1.135 1.037 1.726 2.156 1.726.84 0 1.449-.263 2.14-.904l1.431 1.266c-.822 1.02-2.007 1.644-3.603 1.644-2.65 0-4.609-1.858-4.609-4.554zM212.577 65.861h2.502v1.25c.576-.74 1.316-1.415 2.584-1.415 1.892 0 2.994 1.25 2.994 3.273v5.705h-2.501v-4.916c0-1.184-.56-1.792-1.514-1.792-.955 0-1.563.608-1.563 1.792v4.916h-2.502v-8.813zM228.82 70.317v-.033c0-1.299-.938-2.434-2.32-2.434-1.432 0-2.288 1.102-2.288 2.401v.033c0 1.299.938 2.433 2.32 2.433 1.432 0 2.288-1.101 2.288-2.4m-7.077 0v-.033c0-2.532 2.041-4.587 4.79-4.587 2.731 0 4.755 2.022 4.755 4.554v.033c0 2.532-2.04 4.587-4.789 4.587-2.731 0-4.756-2.022-4.756-4.554M232.44 65.861h2.502v1.25c.576-.74 1.332-1.415 2.6-1.415 1.152 0 2.024.51 2.485 1.398.773-.904 1.695-1.398 2.896-1.398 1.86 0 2.979 1.119 2.979 3.24v5.738H243.4v-4.916c0-1.184-.526-1.792-1.464-1.792s-1.514.608-1.514 1.792v4.916h-2.502v-4.916c0-1.184-.526-1.792-1.465-1.792-.937 0-1.513.608-1.513 1.792v4.916h-2.502v-8.813zM253.208 69.577c-.148-1.118-.806-1.875-1.859-1.875-1.037 0-1.711.74-1.909 1.875h3.768zm-6.22.74v-.033c0-2.516 1.794-4.588 4.361-4.588 2.946 0 4.295 2.286 4.295 4.785 0 .197-.016.428-.033.658h-6.138c.247 1.135 1.037 1.726 2.156 1.726.839 0 1.448-.263 2.139-.904l1.432 1.266c-.823 1.02-2.008 1.644-3.604 1.644-2.65 0-4.608-1.858-4.608-4.554zM260.877 68.952v-.033c0-3.272 2.468-5.952 6.007-5.952 2.172 0 3.472.723 4.542 1.776l-1.613 1.858c-.889-.806-1.794-1.3-2.946-1.3-1.942 0-3.34 1.612-3.34 3.585v.033c0 1.973 1.365 3.617 3.34 3.617 1.317 0 2.123-.526 3.028-1.348l1.613 1.628c-1.185 1.266-2.501 2.055-4.723 2.055-3.39 0-5.908-2.614-5.908-5.92M279.094 70.317v-.033c0-1.299-.937-2.434-2.32-2.434-1.432 0-2.288 1.102-2.288 2.401v.033c0 1.299.939 2.433 2.32 2.433 1.433 0 2.288-1.101 2.288-2.4m-7.076 0v-.033c0-2.532 2.04-4.587 4.789-4.587 2.732 0 4.756 2.022 4.756 4.554v.033c0 2.532-2.04 4.587-4.79 4.587-2.73 0-4.755-2.022-4.755-4.554M282.715 65.861h2.501v1.25c.576-.74 1.317-1.415 2.584-1.415 1.892 0 2.995 1.25 2.995 3.273v5.705h-2.502v-4.916c0-1.184-.56-1.792-1.514-1.792s-1.563.608-1.563 1.792v4.916h-2.501v-8.813zM291.617 73.507l1.07-1.645c.955.691 1.958 1.052 2.781 1.052.724 0 1.053-.262 1.053-.657v-.033c0-.543-.856-.723-1.826-1.02-1.235-.361-2.633-.936-2.633-2.646v-.034c0-1.792 1.448-2.795 3.225-2.795 1.12 0 2.337.379 3.291 1.02l-.954 1.726c-.872-.51-1.744-.822-2.386-.822-.609 0-.922.263-.922.609v.032c0 .494.84.724 1.794 1.053 1.234.41 2.666 1.003 2.666 2.614v.033c0 1.957-1.465 2.844-3.374 2.844a6.182 6.182 0 0 1-3.785-1.331M306.56 70.317v-.033c0-1.299-.937-2.434-2.32-2.434-1.432 0-2.287 1.102-2.287 2.401v.033c0 1.299.938 2.433 2.32 2.433 1.432 0 2.288-1.101 2.288-2.4m-7.077 0v-.033c0-2.532 2.04-4.587 4.79-4.587 2.731 0 4.755 2.022 4.755 4.554v.033c0 2.532-2.04 4.587-4.789 4.587-2.731 0-4.756-2.022-4.756-4.554M310.18 65.861h2.503v1.776c.51-1.217 1.332-2.006 2.813-1.94v2.614h-.131c-1.662 0-2.682 1.003-2.682 3.107v3.256h-2.502v-8.813zM316.813 72.175v-4.177h-1.053v-2.137h1.053v-2.253h2.501v2.253h2.074v2.137h-2.074v3.766c0 .575.247.855.807.855.46 0 .872-.115 1.234-.313v2.006c-.526.313-1.135.51-1.975.51-1.53 0-2.567-.609-2.567-2.647M322.688 74.674h2.501v-8.813h-2.501v8.813zm-.066-9.783h2.633v-2.22h-2.633v2.22zM326.818 71.566v-5.705h2.502v4.916c0 1.184.56 1.792 1.514 1.792s1.563-.608 1.563-1.792v-4.916h2.502v8.813h-2.502v-1.25c-.576.74-1.316 1.414-2.583 1.414-1.893 0-2.996-1.25-2.996-3.272M336.478 65.861h2.502v1.25c.576-.74 1.332-1.415 2.6-1.415 1.152 0 2.024.51 2.485 1.398.773-.904 1.695-1.398 2.896-1.398 1.86 0 2.979 1.119 2.979 3.24v5.738h-2.502v-4.916c0-1.184-.526-1.792-1.464-1.792s-1.514.608-1.514 1.792v4.916h-2.502v-4.916c0-1.184-.527-1.792-1.465-1.792-.937 0-1.513.608-1.513 1.792v4.916h-2.502v-8.813z" mask="url(#b)"/>
        </g>
    </g>
</svg>
