<svg xmlns="http://www.w3.org/2000/svg" xmlns:xlink="http://www.w3.org/1999/xlink" width="514" height="350" viewBox="0 0 514 350">
    <defs>
        <path id="a" d="M0 .149h217V216.64H0z"/>
        <path id="c" d="M0 0h287v38H0z"/>
        <path id="e" d="M0 350h514V1H0z"/>
    </defs>
    <g fill="none" fill-rule="evenodd">
        <mask id="b" fill="#fff">
            <use xlink:href="#a"/>
        </mask>
        <path fill="#F2F2F8" d="M108.5.149C168.423.149 217 48.612 217 108.395c0 59.783-48.577 108.246-108.5 108.246S0 168.178 0 108.395C0 48.612 48.577.149 108.5.149" mask="url(#b)"/>
        <path fill="#F2F2F8" d="M81 200c44.183 0 80 4.925 80 11s-35.817 11-80 11c-44.182 0-80-4.925-80-11s35.818-11 80-11"/>
        <g transform="translate(227 312)">
            <mask id="d" fill="#fff">
                <use xlink:href="#c"/>
            </mask>
            <path fill="#F2F2F8" d="M143.5 0C222.753 0 287 8.507 287 19s-64.247 19-143.5 19S0 29.493 0 19 64.247 0 143.5 0" mask="url(#d)"/>
        </g>
        <path fill="#F2F2F8" d="M166.5 300c24.577 0 44.5 5.372 44.5 12 0 6.627-19.923 12-44.5 12s-44.5-5.373-44.5-12c0-6.628 19.923-12 44.5-12"/>
        <path fill="#BE001E" d="M210 298.437l.246-.966c21.359 5.177 53.965 2.308 85.096-7.488 31.287-9.845 53.39-24.4 57.685-37.983l.973.294c-4.457 14.1-26.27 28.543-58.345 38.637-20.588 6.478-41.833 9.94-60.09 10.065-9.502.066-18.195-.772-25.565-2.559z"/>
        <path fill="#DF1B42" d="M194.517 255c-10.484-2.684-15.869-5.7-17.46-9.782-1.95-5.007 1.947-11.014 7.342-19.327 8.56-13.192 20.283-31.26 18.378-58.927-1.086-15.766-6.75-27.386-16.835-34.538-10.635-7.541-24.37-8.705-34.023-8.353-10.495.383-18.567 2.591-18.648 2.613l-.271-.981c.082-.023 8.248-2.258 18.856-2.649 9.813-.359 23.796.828 34.67 8.537 10.349 7.336 16.157 19.213 17.265 35.301 1.929 28.007-9.902 46.239-18.54 59.552-5.23 8.06-9.007 13.882-7.246 18.402 1.44 3.694 6.766 6.606 16.763 9.166l-.251.986zM131.676 304c-3.305-.83-5.015-1.794-5.544-3.125-.659-1.66.566-3.51 2.261-6.074 2.57-3.885 6.09-9.206 5.52-17.324-.32-4.581-1.988-7.95-4.955-10.015-6.045-4.206-15.588-1.685-15.684-1.658l-.274-.973c.41-.111 10.103-2.677 16.547 1.805 3.233 2.248 5.047 5.872 5.39 10.773.594 8.453-3.183 14.163-5.683 17.942-1.528 2.31-2.633 3.98-2.165 5.157.39.984 1.93 1.784 4.841 2.515l-.254.977z"/>
        <path fill="#DCDDE1" d="M339.791 281.499l-4.003 24.877s-19.707 10.19-5.85 10.491c13.856.3 79.134 0 79.134 0s12.624 0-7.39-10.79L397.679 280l-57.888 1.499z"/>
        <path fill="#BABCC2" d="M327.146 316.94c3.147-2.751 8.638-5.618 8.638-5.618l4.004-25.111 57.89.054 4.003 24.755c4.667 2.54 7.56 4.487 9.25 5.98 2.571-.576 5.38-2.718-9.25-10.68L397.678 280l-57.891 1.513-4.003 25.11s-16.56 8.645-8.638 10.317"/>
        <path fill="#DCDDE1" d="M248.176 103h242.647c5.068 0 9.177 4.09 9.177 9.136v162.728c0 5.045-4.109 9.136-9.177 9.136H248.176c-5.068 0-9.176-4.091-9.176-9.136V112.136c0-5.045 4.108-9.136 9.176-9.136"/>
        <mask id="f" fill="#fff">
            <use xlink:href="#e"/>
        </mask>
        <path fill="#F2F2F8" d="M248 248h243V112H248z" mask="url(#f)"/>
        <path fill="#FFF" d="M369.5 107a1.5 1.5 0 1 1 0 3 1.5 1.5 0 0 1 0-3" mask="url(#f)"/>
        <path fill="#BABCC2" d="M437 333.738V337H271v-2.61l.229-.652L275.32 322h158.286z" mask="url(#f)"/>
        <path fill="#DCDDE1" d="M500.912 330.397c-.305 1.265-1.454 2.6-4.05 3.862-9.318 4.529-28.264-1.208-28.264-1.208S454 330.635 454 324.295c.41-.274.837-.52 1.28-.74 3.917-2.015 16.906-6.987 39.937.21a9.631 9.631 0 0 1 4.378 2.79c.933 1.061 1.665 2.408 1.317 3.842" mask="url(#f)"/>
        <path fill="#BABCC2" d="M500.913 330.837c-11.225 4.428-21.23 4.759-31.499-2.584-5.178-3.701-9.883-4.617-13.414-4.547 3.856-2.1 16.64-7.283 39.308.218a9.434 9.434 0 0 1 4.309 2.908c.918 1.107 1.639 2.511 1.296 4.005" mask="url(#f)"/>
        <path fill="#FFF" d="M487 325c2.21 0 4 .671 4 1.5s-1.79 1.5-4 1.5-4-.671-4-1.5 1.79-1.5 4-1.5M370 266a6 6 0 1 1 0 12 6 6 0 0 1 0-12" mask="url(#f)"/>
        <path fill="#DCDDE1" d="M437 333v3H271v-2.4l.229-.6z" mask="url(#f)"/>
        <path fill="#BABCC2" d="M30 198h106V76H30z" mask="url(#f)"/>
        <path fill="#DCDDE1" d="M20 107h127V64H20zM20 159h127v-43H20zM20 211h127v-43H20z" mask="url(#f)"/>
        <path fill="#FFF" d="M113 79h8v-8h-8z" mask="url(#f)"/>
        <path fill="#F2F2F8" d="M125 79h8v-8h-8z" mask="url(#f)"/>
        <path fill="#BABCC2" d="M137 79h8v-8h-8z" mask="url(#f)"/>
        <path fill="#F2A3B3" d="M113 131h8v-8h-8z" mask="url(#f)"/>
        <path fill="#E75471" d="M125 131h8v-8h-8z" mask="url(#f)"/>
        <path fill="#DF1B42" d="M137 131h8v-8h-8z" mask="url(#f)"/>
        <path fill="#FFF" d="M113 182h8v-8h-8z" mask="url(#f)"/>
        <path fill="#F2F2F8" d="M125 182h8v-8h-8z" mask="url(#f)"/>
        <path fill="#BABCC2" d="M137 182h8v-8h-8z" mask="url(#f)"/>
        <path fill="#F2A3B3" d="M186 256.73c-4.555-5.965-11.154-9.73-18.5-9.73s-13.945 3.765-18.5 9.73a19.728 19.728 0 0 0 4.382 6.507c7.802 7.687 20.446 7.684 28.244-.006a19.674 19.674 0 0 0 4.374-6.5" mask="url(#f)"/>
        <path fill="#F2A3B3" d="M196.344 277.001a4.04 4.04 0 0 0-.441.031 6.891 6.891 0 0 0-1.793-.889 13.684 13.684 0 0 0-3.87-.621 34.034 34.034 0 0 0-1.898-9.87 14.75 14.75 0 0 0 2.31-1.617 7.869 7.869 0 0 0 1.747-2.308c.204-.377.517-.685.899-.883a3.614 3.614 0 0 0 1.391-4.937 3.658 3.658 0 0 0-4.964-1.384 3.616 3.616 0 0 0-1.505 4.72 3.446 3.446 0 0 1-.985 1.268 9.74 9.74 0 0 1-.894.651c-3.402 6.836-10.445 11.926-18.523 12.365V306c6.093-.364 11.024-3.444 15.136-8.21.32.252.59.479.818.691.729.672.98 1.713.64 2.641a3.619 3.619 0 0 0 2.168 4.651 3.65 3.65 0 0 0 4.678-2.155 3.611 3.611 0 0 0-.712-3.673 3.417 3.417 0 0 0-.427-.393c-.168-.132-.29-.207-.29-.207-.558-2.02-1.878-3.822-4.062-5.484a32.394 32.394 0 0 0 4.342-13.466c.3.004.6.024.899.06.88.113 1.63.694 1.955 1.515a3.652 3.652 0 0 0 4.725 2.05 3.626 3.626 0 0 0 2.307-3.15c.104-2.03-1.467-3.76-3.509-3.864a6.582 6.582 0 0 0-.142-.005m-50.69-16.016a4.63 4.63 0 0 1-.894-.505 3.572 3.572 0 0 1-.985-1.267c.882-1.8.129-3.97-1.682-4.847a3.655 3.655 0 0 0-4.874 1.673 3.61 3.61 0 0 0 .605 4.053c.254.268.545.501.863.691.414.238.75.589.97 1.01a7.285 7.285 0 0 0 1.686 2.201c.716.611 1.49 1.152 2.31 1.616a33.323 33.323 0 0 0-1.899 9.877 13.814 13.814 0 0 0-3.869.62 6.272 6.272 0 0 0-1.792.89 4.307 4.307 0 0 0-.442-.03c-2.016 0-3.651 1.624-3.651 3.63 0 2.005 1.635 3.63 3.65 3.63a3.65 3.65 0 0 0 3.418-2.353 2.33 2.33 0 0 1 1.884-1.515c.312-.037.626-.057.94-.06a32.389 32.389 0 0 0 4.34 13.466c-2.152 1.661-3.477 3.474-4.036 5.484a1.494 1.494 0 0 0-.29.207 3.611 3.611 0 0 0-.182 5.515 3.66 3.66 0 0 0 5.15-.243 3.61 3.61 0 0 0 .725-3.691 2.369 2.369 0 0 1 .594-2.566c.243-.227.507-.47.863-.737 4.118 4.781 9.018 7.847 15.136 8.21v-32.442c-8.088-.44-15.136-5.675-18.538-12.517" mask="url(#f)"/>
        <g fill="#E75471" mask="url(#f)">
            <path d="M411.752 157.185c-1.087-.49-2.388.027-2.9 1.153-.03.064-2.989 6.413-9.028 11.985-3.539 3.265-7.43 5.63-11.564 7.03-5.115 1.732-10.657 1.992-16.474.773l-.18-.037c-6.709-1.44-13.02-1.717-18.756-.824-5.107.794-9.776 2.51-13.88 5.104-9.455 5.973-12.848 14.436-13.869 17.798-.287.947.05 1.94.84 2.475.181.122.38.216.588.275 1.147.332 2.372-.362 2.732-1.546.87-2.864 3.77-10.08 11.916-15.225 3.584-2.265 7.689-3.77 12.198-4.471 5.219-.811 11.01-.549 17.212.782 6.644 1.424 13.011 1.131 18.927-.872 4.732-1.602 9.164-4.29 13.173-7.988 6.751-6.23 9.97-13.18 10.104-13.475.513-1.126.048-2.445-1.04-2.937"/>
            <path d="M366.506 171.668c-3.506-4.237-5.73-8.812-6.611-13.599-.707-3.842-.561-7.846.434-11.903 1.703-6.941 5.378-11.734 5.413-11.78.344-.438.48-.984.383-1.537a2.193 2.193 0 0 0-.916-1.41c-1-.705-2.396-.544-3.106.361-.17.216-4.184 5.384-6.112 13.173-1.796 7.258-2.032 18.21 7.035 29.169.208.252.464.455.762.604.767.383 1.694.33 2.362-.136a1.94 1.94 0 0 0 .835-1.365c.07-.56-.1-1.12-.48-1.577M375.991 184.855a2.325 2.325 0 0 0-.764-.603c-.768-.382-1.698-.326-2.37.141-.472.327-.77.813-.84 1.367-.073.56.097 1.119.476 1.575 3.509 4.23 5.732 8.801 6.606 13.587.7 3.84.546 7.845-.462 11.905-1.724 6.944-5.423 11.744-5.459 11.79-.346.44-.483.986-.387 1.539.097.561.422 1.061.917 1.408 1.002.703 2.403.538 3.117-.368.171-.216 4.21-5.392 6.162-13.186 1.818-7.262 2.081-18.215-6.996-29.155M376.085 170L373 168.497l.916-1.497 3.084 1.503z"/>
            <path d="M372.572 167.177a3.5 3.5 0 1 1-6.143-3.353 3.5 3.5 0 0 1 6.143 3.353M383.572 174.177a3.5 3.5 0 1 1-6.144-3.354 3.5 3.5 0 0 1 6.144 3.354M374.571 143.177a3.5 3.5 0 1 1-6.143-3.354 3.5 3.5 0 0 1 6.143 3.354M400.571 158.177a3.5 3.5 0 1 1-6.143-3.354 3.5 3.5 0 0 1 6.143 3.354M394.571 167.176a3.5 3.5 0 1 1-6.143-3.352 3.5 3.5 0 0 1 6.143 3.352M360.572 188.176a3.5 3.5 0 1 0-6.143-3.353 3.5 3.5 0 0 0 6.143 3.353M372.572 193.177a3.5 3.5 0 1 0-6.144-3.353 3.5 3.5 0 0 0 6.144 3.353M342.572 202.176a3.5 3.5 0 1 0-6.143-3.353 3.5 3.5 0 0 0 6.143 3.353M368.572 217.177a3.5 3.5 0 1 0-6.144-3.354 3.5 3.5 0 0 0 6.144 3.354M350.572 193.177a3.5 3.5 0 1 0-6.143-3.353 3.5 3.5 0 0 0 6.143 3.353M373.572 206.177a3.5 3.5 0 1 0-6.145-3.353 3.5 3.5 0 0 0 6.145 3.353M394.049 155L377 144.894l.952-1.894L395 153.106zM361.048 214L344 203.893l.952-1.893L362 212.106zM365.976 203L350 194.77l1.025-1.77L367 201.23zM386.976 164L371 155.77l1.024-1.77L388 162.23zM364.085 190L361 188.497l.916-1.497 3.084 1.503z"/>
            <path d="M371.572 155.177a3.5 3.5 0 1 1-6.144-3.354 3.5 3.5 0 0 1 6.144 3.354"/>
        </g>
    </g>
</svg>
