<svg xmlns="http://www.w3.org/2000/svg" width="113" height="86" viewBox="0 0 113 86">
    <g fill="none" fill-rule="evenodd">
        <path fill="#F2F2F8" d="M89.247 82.284C94.49 82.634 98 83.27 98 84c0 1.105-8.059 2-18 2s-18-.895-18-2 8.059-2 18-2c3.38 0 6.544.104 9.247.284z"/>
        <path fill="#BABCC2" d="M25.035 38.614c-.128.04-.257.078-.387.113-6.87 1.836-13.499-5.942-19.347-12.806C-.793 18.77-.082 15.393.151 14.283c.699-3.32 3.315-5.491 5.387-6.729a.88.88 0 0 1 1.215.322.912.912 0 0 1-.316 1.236c-1.765 1.054-3.987 2.872-4.55 5.55-.504 2.391 1.096 5.781 4.754 10.074 5.51 6.467 11.755 13.795 17.555 12.245 3.482-.928 7.828-5.387 8.884-21.36.243-3.665.545-8.226-2.372-10.85-2.115-1.9-5.007-2.09-7.06-1.913a.893.893 0 0 1-.96-.824.899.899 0 0 1 .81-.976c2.4-.206 5.8.036 8.385 2.36 3.572 3.212 3.224 8.477 2.97 12.323-.886 13.38-4.189 21.072-9.818 22.873"/>
        <path fill="#DCDDE1" d="M8.546 10.837A3.495 3.495 0 0 1 4.16 8.554a3.512 3.512 0 0 1 2.294-4.391 3.495 3.495 0 0 1 4.386 2.283 3.512 3.512 0 0 1-2.294 4.391M21.546 6.837a3.495 3.495 0 0 1-4.386-2.283A3.512 3.512 0 0 1 19.454.163a3.494 3.494 0 0 1 4.386 2.283 3.512 3.512 0 0 1-2.294 4.391"/>
        <path fill="#BABCC2" d="M37.475 51.582c-4.597 1.468-9.815-1.07-11.167-5.43l-2.267-7.316a.906.906 0 0 1 .582-1.133.888.888 0 0 1 1.116.59l2.267 7.317c1.067 3.442 5.242 5.427 8.934 4.249 3.445-1.1 6.356-4.07 5.256-7.619l-3.068-9.901c-1.17-3.773.919-7.812 4.655-9.005 3.736-1.192 7.727.907 8.896 4.68l2.28 7.357a.906.906 0 0 1-.582 1.133.888.888 0 0 1-1.116-.59l-2.28-7.359c-.875-2.822-3.864-4.39-6.664-3.497-2.8.894-4.365 3.917-3.49 6.739l3.067 9.9c1.451 4.681-2.131 8.516-6.42 9.885"/>
        <path fill="#DCDDE1" d="M96.607 58.717a3.505 3.505 0 0 1-3.33 2.349 3.476 3.476 0 0 1-3.253-2.233h-3.708c-.495 0-.95-.322-1.106-.787l-1.145-3.407-3.604 12.493a1.17 1.17 0 0 1-1.119.839h-.078a1.147 1.147 0 0 1-1.08-.955l-3.72-22.16-2.72 13.113c-.13.516-.598.877-1.119.877h-5.217a1.158 1.158 0 0 1-1.21-1.097 1.156 1.156 0 0 1 1.106-1.2h4.41l3.851-17.63c.157-.619.781-1.006 1.405-.851.456.116.807.49.885.955l3.8 22.611 3.226-11.177a1.17 1.17 0 0 1 1.093-.825H84c.507 0 .95.322 1.106.787l2.055 6.143h2.824c.598-1.807 2.576-2.8 4.397-2.207 1.822.594 2.823 2.555 2.225 4.362M95.5 22h-.156c-6.206 0-11.683 3.252-14.845 8.066C77.338 25.266 71.86 22 65.655 22H65.5C55.806 22.09 48 29.911 48 39.513c0 5.73 2.537 13.874 7.468 20.572C64.874 72.836 80.5 84 80.5 84s15.626-11.164 25.032-23.915C110.476 53.387 113 45.257 113 39.513c0-9.602-7.806-17.423-17.499-17.513"/>
    </g>
</svg>
