<svg xmlns="http://www.w3.org/2000/svg" xmlns:xlink="http://www.w3.org/1999/xlink" width="120" height="88" viewBox="0 0 120 88">
    <defs>
        <path id="a" d="M.043 11.199L52.42.059l15.527 71.735-52.377 11.14z"/>
        <path id="c" d="M2.76.192C.9.633-.278 2.696.131 4.798.54 6.901 2.379 8.25 4.235 7.81c1.856-.441 3.037-2.504 2.628-4.607C6.506 1.37 5.065.108 3.469.108c-.234 0-.472.027-.71.084M1.475 4.54c-.26-1.208.414-2.42 1.507-2.708 1.093-.288 2.19.457 2.451 1.665l.01.041c.249 1.196-.425 2.388-1.507 2.665a1.855 1.855 0 0 1-.483.064c-.92 0-1.755-.695-1.978-1.727"/>
        <path id="e" d="M.1.103h7.064v7.074H.1z"/>
        <path id="g" d="M0 88h119.962V.103H0z"/>
        <path id="i" d="M.03 3.53c0 1.916 1.543 3.467 3.445 3.467S6.919 5.446 6.919 3.53C6.92 1.616 5.377.064 3.475.064S.03 1.616.03 3.53m1.362.049c-.026-1.105.863-2.021 1.986-2.048 1.124-.026 2.056.848 2.083 1.953v.046c.008 1.089-.88 1.978-1.986 1.991v.01a1.7 1.7 0 0 1-.05 0c-1.1 0-2.006-.864-2.033-1.952"/>
    </defs>
    <g fill="none" fill-rule="evenodd">
        <path fill="#F2F2F8" d="M69.721 16.189c-7.693-.266-15.02-2.74-22.016-5.447-6.997-2.706-13.927-5.704-21.435-7.137-4.83-.923-10.353-1.054-14.244 1.522-3.745 2.486-4.955 6.766-5.606 10.74-.49 2.991-.777 6.14.564 8.94.932 1.943 2.584 3.577 3.728 5.44 3.978 6.478 1.165 14.467-3.144 20.793-2.021 2.967-4.369 5.8-5.93 8.956-1.56 3.155-2.282 6.783-.916 10.01 1.353 3.197 4.577 5.593 8.07 7.28 7.096 3.428 15.454 4.408 23.609 4.964 18.047 1.23 36.19.698 54.285.164 6.696-.197 13.422-.397 20.01-1.428 3.658-.573 7.434-1.482 10.091-3.677 3.371-2.786 4.207-7.503 1.947-10.995-3.79-5.86-14.264-7.316-16.916-13.604-1.457-3.462.04-7.316 2.159-10.526 4.545-6.887 12.163-12.929 12.564-20.8.276-5.405-3.386-10.82-9.05-13.378-5.934-2.681-14.166-2.344-18.542 2.095-4.511 4.565-12.435 6.323-19.228 6.088"/>
        <path fill="#DCDDE1" d="M17 13.56L33.007 88 87 76.44 70.993 2z"/>
        <g transform="translate(18 3)">
            <mask id="b" fill="#fff">
                <use xlink:href="#a"/>
            </mask>
            <path d="M.043 11.199L52.42.059l15.527 71.735-52.377 11.14z" mask="url(#b)"/>
        </g>
        <path fill="#FAFAFA" d="M19 14.856L69.868 4 85 74.145 34.132 85z"/>
        <path fill="#DCDDE1" d="M31 9.167L55.715 4 57 9.833 32.285 15z"/>
        <g transform="translate(40)">
            <mask id="d" fill="#fff">
                <use xlink:href="#c"/>
            </mask>
            <path d="M2.76.192C.9.633-.278 2.696.131 4.798.54 6.901 2.379 8.25 4.235 7.81c1.856-.441 3.037-2.504 2.628-4.607C6.506 1.37 5.065.108 3.469.108c-.234 0-.472.027-.71.084M1.475 4.54c-.26-1.208.414-2.42 1.507-2.708 1.093-.288 2.19.457 2.451 1.665l.01.041c.249 1.196-.425 2.388-1.507 2.665a1.855 1.855 0 0 1-.483.064c-.92 0-1.755-.695-1.978-1.727" mask="url(#d)"/>
        </g>
        <g>
            <path fill="#BABCC2" d="M31.215 8.553l24.707-5.308 1.254 5.852-24.707 5.308z"/>
            <g transform="translate(39.452)">
                <mask id="f" fill="#fff">
                    <use xlink:href="#e"/>
                </mask>
                <path fill="#BABCC2" d="M4.06 5.64a2.04 2.04 0 1 1-.855-3.991 2.041 2.041 0 0 1 .855 3.991M2.89.181a3.536 3.536 0 0 0 1.483 6.915A3.536 3.536 0 0 0 2.891.182" mask="url(#f)"/>
            </g>
            <mask id="h" fill="#fff">
                <use xlink:href="#g"/>
            </mask>
            <path fill="#DCDDE1" d="M40.684 87.349h55.26V10.894h-55.26z" mask="url(#h)"/>
            <path d="M41.618 86.057h53.393v-73.87H41.618z" mask="url(#h)"/>
            <path fill="#FFF" d="M42.297 84.97h52.034V12.73H42.297z" mask="url(#h)"/>
            <path fill="#DCDDE1" d="M55.476 15.86h25.813V9.599H55.476z" mask="url(#h)"/>
        </g>
        <g transform="translate(65 4)">
            <mask id="j" fill="#fff">
                <use xlink:href="#i"/>
            </mask>
            <path d="M.03 3.53c0 1.916 1.543 3.467 3.445 3.467S6.919 5.446 6.919 3.53C6.92 1.616 5.377.064 3.475.064S.03 1.616.03 3.53m1.362.049c-.026-1.105.863-2.021 1.986-2.048 1.124-.026 2.056.848 2.083 1.953v.046c.008 1.089-.88 1.978-1.986 1.991v.01a1.7 1.7 0 0 1-.05 0c-1.1 0-2.006-.864-2.033-1.952" mask="url(#j)"/>
        </g>
        <g fill="#BABCC2">
            <path d="M56.108 15.995h24.856V9.96H56.108z"/>
            <path d="M68.536 9.692c-1.107-.001-2.004-.924-2.002-2.06.001-1.137.9-2.057 2.007-2.056 1.105.002 2 .92 2.003 2.053-.001 1.137-.9 2.057-2.006 2.057h-.002v.006zm0-5.623c-1.918 0-3.474 1.596-3.474 3.565 0 1.97 1.556 3.566 3.474 3.566 1.919 0 3.474-1.597 3.474-3.566 0-1.969-1.555-3.565-3.474-3.565z"/>
        </g>
    </g>
</svg>
