<svg xmlns="http://www.w3.org/2000/svg" xmlns:xlink="http://www.w3.org/1999/xlink" width="168" height="132" viewBox="0 0 168 132">
    <defs>
        <path id="a" d="M0 .179h167.919v110.145H0z"/>
    </defs>
    <g fill="none" fill-rule="evenodd">
        <path fill="#F2F2F8" d="M107.73 126.95c12.797 0 23.172 1.119 23.172 2.5 0 1.38-10.375 2.5-23.173 2.5-12.798 0-23.173-1.12-23.173-2.5 0-1.381 10.375-2.5 23.173-2.5"/>
        <g transform="translate(0 .047)">
            <mask id="b" fill="#fff">
                <use xlink:href="#a"/>
            </mask>
            <path fill="#F2F2F8" d="M51.38 6.131C57.032 1.013 65.964-.102 74.107.233 99.682 1.29 122.86 13.435 142.94 27.227c7.27 4.992 14.43 10.379 19.178 17.299 9.675 14.087 7 33.736-6.177 45.52-4.485 4.008-9.935 7.104-15.534 9.844-9.956 4.881-20.71 8.824-32.045 10.021-8.083.849-16.278.284-24.332-.738-22.496-2.865-44.606-9.418-63.196-20.791-8.151-4.989-15.846-11.211-19.258-19.36-3.411-8.148-1.36-18.54 6.88-23.46 3.407-2.032 7.495-2.971 11.495-3.855 5.89-1.3 11.875-2.583 17.177-5.169 5.479-2.67 11.947-7.802 10.806-13.604-1.214-6.217-2.2-11.685 3.445-16.803" mask="url(#b)"/>
        </g>
        <path fill="#BABCC2" d="M37.093 71.762c-.166.052-.333.1-.503.144-8.93 2.348-17.548-7.594-25.151-16.366-7.923-9.142-7-13.457-6.696-14.875.908-4.243 4.31-7.018 7.004-8.6a1.155 1.155 0 0 1 1.169 1.99C10.62 35.404 7.733 37.727 7 41.15c-.656 3.058 1.424 7.39 6.18 12.877 7.164 8.266 15.282 17.63 22.823 15.65 4.525-1.186 10.175-6.885 11.55-27.3.315-4.685.707-10.513-3.086-13.866-2.749-2.43-6.508-2.671-9.177-2.446a1.154 1.154 0 0 1-.194-2.3c3.118-.264 7.54.045 10.9 3.016 4.644 4.105 4.19 10.834 3.86 15.749-1.152 17.102-5.445 26.932-12.764 29.234"/>
        <path fill="#DCDDE1" d="M16.784 35.65c-2.493.784-5.156-.597-5.937-3.08-.78-2.482.612-5.14 3.105-5.923 2.493-.784 5.156.597 5.937 3.08.78 2.482-.612 5.139-3.105 5.923M32.775 30.62c-2.494.784-5.157-.597-5.938-3.08-.78-2.482.612-5.138 3.106-5.923 2.493-.784 5.156.597 5.937 3.08.78 2.482-.612 5.14-3.105 5.923"/>
        <path fill="#BABCC2" d="M53.146 88.067c-5.962 1.876-12.73-1.367-14.482-6.939l-2.94-9.348a1.155 1.155 0 0 1 2.202-.693l2.94 9.349c1.384 4.398 6.798 6.935 11.587 5.43 4.467-1.406 8.243-5.201 6.817-9.736l-3.98-12.652c-1.516-4.821 1.192-9.983 6.037-11.507 4.846-1.524 10.021 1.159 11.537 5.979l2.958 9.402a1.155 1.155 0 0 1-2.203.693l-2.957-9.402c-1.134-3.607-5.01-5.611-8.642-4.47-3.63 1.143-5.662 5.006-4.527 8.612l3.979 12.651c1.881 5.982-2.764 10.882-8.326 12.631"/>
        <path fill="#DCDDE1" d="M128.6 97.234c-.618 1.801-2.335 3.052-4.27 3.035a4.457 4.457 0 0 1-4.168-2.885h-4.753a1.509 1.509 0 0 1-1.417-1.017l-1.468-4.402-4.619 16.142a1.5 1.5 0 0 1-1.434 1.083h-.1a1.475 1.475 0 0 1-1.384-1.234l-4.77-28.631-3.485 16.942a1.492 1.492 0 0 1-1.434 1.134h-6.687a1.489 1.489 0 0 1-1.55-1.417 1.489 1.489 0 0 1 1.417-1.551h5.653l4.936-22.78c.2-.8 1-1.3 1.8-1.1a1.54 1.54 0 0 1 1.135 1.234l4.869 29.216 4.136-14.441c.183-.617.75-1.05 1.4-1.067h.034c.65 0 1.217.417 1.417 1.017l2.635 7.938h3.618a4.479 4.479 0 0 1 5.637-2.852 4.479 4.479 0 0 1 2.851 5.636m-1.417-47.442h-.2c-7.955 0-14.975 4.203-19.027 10.423-4.052-6.204-11.073-10.423-19.027-10.423h-.2C76.305 49.91 66.3 60.015 66.3 72.421c0 7.404 3.251 17.926 9.571 26.58 12.057 16.476 32.084 30.9 32.084 30.9s20.027-14.424 32.084-30.9c6.336-8.654 9.571-19.16 9.571-26.58 0-12.406-10.005-22.512-22.428-22.629"/>
    </g>
</svg>
