<svg xmlns="http://www.w3.org/2000/svg" xmlns:xlink="http://www.w3.org/1999/xlink" width="70" height="71" viewBox="0 0 70 71">
    <defs>
        <path id="a" d="M.241.145h17.566v10.994H.241z"/>
        <path id="c" d="M0 .145h7.636V11.14H0z"/>
        <path id="e" d="M.013.34h.454v.272H.013z"/>
    </defs>
    <g fill="none" fill-rule="evenodd">
        <path fill="#131B3C" d="M36.022 53.356c-.085.795-.172 1.589-.266 2.383h27.24a34.668 34.668 0 0 0 5.332-10.994H50.255c-2.984 4.869-8.206 8.213-14.233 8.611M1.297 44.745A34.678 34.678 0 0 0 6.63 55.74h6.899a35.798 35.798 0 0 1-5.094-10.994H1.297z"/>
        <g transform="translate(51.818 29.66)">
            <mask id="b" fill="#fff">
                <use xlink:href="#a"/>
            </mask>
            <path fill="#131B3C" d="M.241 11.139h17.133a35.113 35.113 0 0 0 0-10.994H.241c.552 1.735.852 3.58.852 5.497 0 1.917-.3 3.763-.851 5.497" mask="url(#b)"/>
        </g>
        <g transform="translate(0 29.66)">
            <mask id="d" fill="#fff">
                <use xlink:href="#c"/>
            </mask>
            <path fill="#131B3C" d="M7.636.145H.434a35.004 35.004 0 0 0 0 10.994h7.181a36.269 36.269 0 0 1-.427-5.426c0-1.896.166-3.752.448-5.568" mask="url(#d)"/>
        </g>
        <path fill="#131B3C" d="M59.657 10.919C53.34 4.483 44.544.489 34.813.489c-.155 0-.307.01-.46.012.59 3.462 1.073 6.936 1.475 10.418h23.829zM34.174.506A34.701 34.701 0 0 0 9.969 10.918h6.797A35.996 35.996 0 0 1 34.174.506M6.63 14.866a34.67 34.67 0 0 0-5.333 10.993h7.175a35.796 35.796 0 0 1 5.148-10.993H6.63zM50.254 25.859H68.33a34.664 34.664 0 0 0-5.334-10.994H36.242c.076.804.145 1.61.211 2.415 5.845.525 10.89 3.827 13.801 8.579M33.521 70.063c-6.575-1.832-12.388-5.486-16.872-10.378h-6.68c6.317 6.435 15.113 10.43 24.844 10.43 9.73 0 18.527-3.995 24.844-10.43H35.246c-.483 3.47-1.05 6.931-1.725 10.378"/>
        <g transform="translate(34.09 .115)">
            <mask id="f" fill="#fff">
                <use xlink:href="#e"/>
            </mask>
            <path fill="#37B34A" d="M.384.34c-.102.026-.2.064-.3.09C.186.427.291.424.396.423L.384.34" mask="url(#f)"/>
        </g>
        <path fill="#3075BA" d="M34.813 53.401c-6.535 0-12.26-3.464-15.443-8.656H8.435A35.778 35.778 0 0 0 13.53 55.74h22.226c.094-.794.182-1.588.266-2.383-.4.027-.802.045-1.21.045M17.566 29.805h-9.93a36.242 36.242 0 0 0-.448 5.568c0 1.846.16 3.654.427 5.426h9.951a18.086 18.086 0 0 1-.852-5.497c0-1.917.3-3.763.852-5.497M16.766 10.919h19.062A194.167 194.167 0 0 0 34.352.501c-.06 0-.119.003-.178.005a36 36 0 0 0-17.408 10.413M34.813 17.203c.553 0 1.1.029 1.64.077-.066-.806-.135-1.61-.21-2.415H13.62A35.81 35.81 0 0 0 8.472 25.86H19.37c3.183-5.192 8.908-8.656 15.443-8.656M33.521 70.063a191.587 191.587 0 0 0 1.725-10.378H16.649c4.484 4.892 10.297 8.546 16.872 10.378"/>
        <path fill="#DD1C4D" d="M35.666 28.094v6.502h6.836c-.063-2.344-.435-4.56-1.037-6.502h-5.8zM35.666 36.005v6.502h5.799c.602-1.942.974-4.158 1.037-6.502h-6.836zM34.256 42.507v-6.502h-6.835c.062 2.344.435 4.56 1.037 6.502h5.798zM34.256 49.662v-5.745h-5.303c1.256 3.16 3.166 5.346 5.303 5.745M34.256 34.596v-6.502h-5.798c-.602 1.942-.975 4.158-1.037 6.502h6.835zM42.52 43.917c-.752 2.082-1.772 3.817-2.982 5.065a14.298 14.298 0 0 0 2.184-.94 14.567 14.567 0 0 0 4.683-4.125h-3.886zM34.256 26.684v-5.743h-.02c-2.13.41-4.031 2.593-5.283 5.743h5.303zM35.666 43.917v5.745c2.138-.399 4.048-2.585 5.303-5.745h-5.303zM30.384 48.981c-1.21-1.246-2.229-2.982-2.98-5.064h-4.01a14.486 14.486 0 0 0 6.99 5.064M26.952 42.507c-.553-1.957-.886-4.154-.941-6.502h-5.462c.115 2.36.801 4.57 1.92 6.502h4.483zM43.912 36.005c-.055 2.347-.388 4.545-.94 6.502h4.345a14.357 14.357 0 0 0 1.866-6.502h-5.271zM42.971 28.094c.553 1.957.885 4.155.94 6.502h5.265a14.352 14.352 0 0 0-1.96-6.502h-4.245zM35.83 20.974c-.054-.004-.108-.01-.164-.012v5.722h5.304c-1.224-3.079-3.069-5.231-5.14-5.71M39.723 21.814c1.129 1.23 2.084 2.895 2.796 4.87h3.757a14.525 14.525 0 0 0-6.553-4.87M23.394 26.684h4.01c.751-2.082 1.77-3.818 2.98-5.065a14.487 14.487 0 0 0-6.99 5.065M26.01 34.596c.056-2.348.389-4.545.942-6.502h-4.484a14.331 14.331 0 0 0-1.919 6.502h5.462z"/>
    </g>
</svg>
