<svg xmlns="http://www.w3.org/2000/svg" width="50" height="50" viewBox="0 0 50 50">
    <g fill="none" fill-rule="evenodd">
        <circle cx="25" cy="25" r="25" fill="#D3F7F0"/>
        <path fill="#24DBB4" d="M27.814 26.798l-5.582-3.266 5.362-9.16 5.581 3.266-5.361 9.16zm7.961-10.653l-8.157-4.772c-.507-.298-1.213-.037-1.575.585-.363.619-.245 1.362.264 1.66l.558.326-11.324 19.354a3.914 3.914 0 0 0-.412 2.985 3.925 3.925 0 0 0 1.82 2.401l.243.142c.87.508 1.933.685 2.985.41a3.92 3.92 0 0 0 2.4-1.819l11.325-19.354.561.328c.508.296 1.214.036 1.577-.585.363-.62.244-1.362-.265-1.66z"/>
    </g>
</svg>
