<svg xmlns="http://www.w3.org/2000/svg" xmlns:xlink="http://www.w3.org/1999/xlink" width="254" height="100" viewBox="0 0 254 100">
    <defs>
        <path id="a" d="M.297.349h.34v.188h-.34z"/>
        <path id="c" d="M0 .25h211.316V21.4H0z"/>
        <path id="e" d="M.28.074h211.579v21.148H.279z"/>
        <path id="g" d="M0 99.99h253.554V.678H0z"/>
    </defs>
    <g fill="none" fill-rule="evenodd">
        <path fill="#131B3C" d="M202.366 39.25c-.048.433-.093.866-.145 1.297h19.645a25.005 25.005 0 0 0 3.846-7.928h-12.433c-2.23 3.789-6.258 6.393-10.913 6.632M177.37 32.619a24.998 24.998 0 0 0 3.846 7.928h4.976a25.802 25.802 0 0 1-3.674-7.928h-5.147zM214.539 29.773h11.795a25.299 25.299 0 0 0 0-7.928h-11.787c.382 1.25.59 2.575.59 3.95 0 1.385-.21 2.72-.598 3.978M181.942 21.845h-5.194a25.22 25.22 0 0 0 0 7.928h5.179a26.086 26.086 0 0 1-.309-3.913c0-1.367.12-2.705.324-4.015M219.458 8.225c-4.556-4.642-10.9-7.522-17.917-7.522-.111 0-.221.007-.332.009.426 2.496.775 5.002 1.064 7.513h17.185zM201.08.715a25.024 25.024 0 0 0-17.456 7.51h4.902A25.96 25.96 0 0 1 201.08.715M181.216 11.07A25.005 25.005 0 0 0 177.37 19h5.175a25.817 25.817 0 0 1 3.712-7.93h-5.04zM213.295 19h12.417a25.013 25.013 0 0 0-3.846-7.93h-19.294c.04.431.076.862.113 1.293 4.53.34 8.435 2.92 10.61 6.636M200.61 50.878a25.985 25.985 0 0 1-12.168-7.485h-4.818c4.556 4.642 10.9 7.522 17.917 7.522 7.018 0 13.361-2.88 17.917-7.522h-17.605a138.804 138.804 0 0 1-1.244 7.485"/>
        <g transform="translate(200.678 .33)">
            <mask id="b" fill="#fff">
                <use xlink:href="#a"/>
            </mask>
            <path fill="#38B449" d="M.526.349C.484.359.444.375.402.386l.13-.004L.525.35" mask="url(#b)"/>
        </g>
        <path fill="#2F72B9" d="M201.662 39.27c-4.95 0-9.275-2.672-11.617-6.651h-7.527a25.814 25.814 0 0 0 3.674 7.928h16.03c.05-.431.096-.864.144-1.296-.233.012-.468.018-.704.018M188.777 21.845h-6.835a26.12 26.12 0 0 0-.324 4.015c0 1.331.115 2.635.309 3.913h6.858a13.477 13.477 0 0 1-.598-3.978c0-1.374.207-2.7.59-3.95M188.526 8.225h13.747c-.29-2.511-.638-5.017-1.064-7.513l-.129.003a25.96 25.96 0 0 0-12.554 7.51M201.662 12.32c.345 0 .685.018 1.023.043-.037-.431-.073-.862-.113-1.292h-16.315a25.833 25.833 0 0 0-3.712 7.928h7.483c2.339-3.994 6.671-6.679 11.634-6.679M200.61 50.878c.486-2.486.895-4.982 1.243-7.485h-13.411a25.985 25.985 0 0 0 12.167 7.485"/>
        <g transform="translate(0 45.753)">
            <mask id="d" fill="#fff">
                <use xlink:href="#c"/>
            </mask>
            <path fill="#DE1D43" d="M211.316 20.135c-2.481.022-4.98-.205-7.399-.826-2.414-.618-4.753-1.58-6.876-2.897-4.303-2.585-7.72-6.292-11.664-9.19-1.961-1.467-4.084-2.694-6.345-3.576-2.26-.888-4.66-1.37-7.08-1.568-4.84-.364-9.824.23-14.155 2.356-.538.27-1.079.534-1.595.847-.529.288-1.03.626-1.54.951-.999.681-1.976 1.4-2.914 2.182-1.89 1.542-3.677 3.249-5.572 4.876a51.51 51.51 0 0 1-2.938 2.363c-1.028.738-2.08 1.452-3.201 2.065-2.222 1.258-4.669 2.135-7.167 2.661-2.506.525-5.058.683-7.594.596-2.538-.097-5.101-.458-7.55-1.261a26.495 26.495 0 0 1-6.88-3.41c-2.117-1.43-4.02-3.085-5.89-4.705-1.869-1.617-3.713-3.21-5.696-4.543a24.322 24.322 0 0 0-6.335-3.129c-2.238-.728-4.6-1.052-6.976-1.135-2.38-.074-4.775.086-7.07.577-2.296.484-4.512 1.272-6.554 2.426l-.763.437c-.253.15-.498.316-.747.473-.502.306-.976.668-1.464 1.004a56.091 56.091 0 0 0-2.815 2.251c-1.858 1.566-3.665 3.275-5.653 4.86a39.23 39.23 0 0 1-3.105 2.264c-.55.343-1.091.695-1.667 1.002-.56.329-1.15.609-1.736.893-2.365 1.108-4.918 1.795-7.476 2.142a33.455 33.455 0 0 1-7.689.107c-2.552-.27-5.105-.845-7.491-1.848-.591-.26-1.19-.505-1.757-.812-.285-.15-.578-.285-.856-.447l-.832-.486a31.72 31.72 0 0 1-3.137-2.185c-3.998-3.117-7.24-6.875-11.321-9.515-2.008-1.357-4.23-2.377-6.565-3.074-2.337-.692-4.787-1.027-7.25-1.125L0 1.47l1.866-.02 1.87.085c.62.071 1.242.136 1.862.223l.925.168c.31.056.62.106.923.19 2.444.571 4.833 1.498 7.009 2.786l.814.485.79.52c.531.343 1.031.723 1.544 1.088a74.4 74.4 0 0 1 2.938 2.332c1.916 1.585 3.755 3.22 5.721 4.625 1.953 1.424 4.038 2.599 6.244 3.448 2.206.852 4.549 1.307 6.917 1.486 2.37.168 4.784.109 7.116-.252 2.331-.366 4.599-1.026 6.697-2.062.523-.262 1.05-.518 1.553-.822.515-.28 1.006-.61 1.502-.927a36.563 36.563 0 0 0 2.866-2.14c1.868-1.516 3.666-3.205 5.585-4.836a47.76 47.76 0 0 1 2.995-2.363c.534-.362 1.05-.744 1.607-1.078.276-.17.545-.349.826-.512l.852-.476c2.28-1.26 4.79-2.127 7.336-2.634C80.914.289 83.496.17 86.056.297c2.56.136 5.143.543 7.602 1.386a26.641 26.641 0 0 1 6.875 3.522c2.104 1.464 3.984 3.147 5.83 4.795 1.846 1.643 3.666 3.265 5.635 4.632a24.491 24.491 0 0 0 6.328 3.247c2.248.772 4.63 1.142 7.028 1.266 2.403.116 4.828-.004 7.174-.463 2.344-.463 4.623-1.242 6.724-2.395 1.06-.56 2.067-1.224 3.058-1.914a50.197 50.197 0 0 0 2.874-2.25c1.881-1.57 3.699-3.261 5.664-4.822.973-.79 2.001-1.526 3.056-2.223.537-.334 1.067-.68 1.63-.978.547-.32 1.121-.593 1.693-.87 2.302-1.082 4.785-1.753 7.285-2.095 2.506-.334 5.031-.355 7.536-.118 2.502.25 4.995.797 7.328 1.763 2.335.958 4.508 2.271 6.48 3.803 3.971 3.036 7.29 6.769 11.465 9.376 2.06 1.33 4.332 2.312 6.697 2.964 2.368.653 4.834.924 7.298.946v.266z" mask="url(#d)"/>
        </g>
        <g transform="translate(41.695 48.126)">
            <mask id="f" fill="#fff">
                <use xlink:href="#e"/>
            </mask>
            <path fill="#2F72B9" d="M211.727 19.959c-2.481.022-4.98-.205-7.399-.826-2.414-.618-4.753-1.58-6.876-2.897-4.303-2.586-7.72-6.292-11.664-9.19-1.961-1.467-4.084-2.695-6.345-3.577-2.259-.887-4.66-1.37-7.08-1.568-4.84-.363-9.823.23-14.155 2.357-.538.27-1.078.534-1.595.847-.529.288-1.03.626-1.54.95-.999.682-1.976 1.4-2.913 2.183-1.89 1.542-3.677 3.248-5.573 4.876a51.659 51.659 0 0 1-2.938 2.363c-1.027.737-2.08 1.452-3.201 2.064-2.222 1.259-4.668 2.136-7.167 2.662-2.506.524-5.058.682-7.594.596-2.538-.097-5.1-.458-7.55-1.261a26.495 26.495 0 0 1-6.88-3.41c-2.116-1.43-4.02-3.085-5.89-4.706-1.868-1.616-3.713-3.21-5.696-4.542a24.316 24.316 0 0 0-6.335-3.129c-2.238-.728-4.6-1.052-6.976-1.135-2.38-.074-4.775.086-7.07.577-2.296.483-4.512 1.271-6.553 2.426l-.764.437c-.253.15-.498.316-.747.473-.502.306-.976.668-1.464 1.004a56.237 56.237 0 0 0-2.815 2.251c-1.858 1.566-3.664 3.275-5.653 4.86-.983.8-2.03 1.552-3.105 2.263-.55.344-1.091.696-1.667 1.002-.56.33-1.15.61-1.736.894-2.365 1.108-4.918 1.795-7.476 2.142a33.474 33.474 0 0 1-7.688.106c-2.553-.269-5.106-.844-7.492-1.847-.591-.26-1.19-.505-1.757-.812-.285-.15-.578-.285-.855-.447l-.833-.486a31.722 31.722 0 0 1-3.137-2.186c-3.998-3.116-7.24-6.875-11.321-9.514-2.008-1.358-4.23-2.377-6.564-3.074C5.325 1.993 2.875 1.658.41 1.56H.407a.133.133 0 0 1 .004-.266l1.866-.02 1.87.085c.62.07 1.242.136 1.862.223l.925.167c.31.057.62.107.923.19 2.444.572 4.833 1.499 7.009 2.786l.815.485.79.521c.53.343 1.03.722 1.543 1.088a74.4 74.4 0 0 1 2.938 2.332c1.916 1.585 3.755 3.22 5.721 4.624 1.953 1.425 4.038 2.6 6.244 3.45 2.207.85 4.549 1.306 6.917 1.485 2.37.167 4.784.109 7.116-.252 2.332-.366 4.599-1.027 6.697-2.062.523-.263 1.05-.518 1.553-.823.515-.28 1.006-.609 1.503-.926a36.495 36.495 0 0 0 2.865-2.14c1.869-1.517 3.666-3.205 5.585-4.836a47.89 47.89 0 0 1 2.995-2.364c.534-.361 1.05-.744 1.607-1.078.276-.17.546-.348.827-.511l.851-.476c2.28-1.26 4.79-2.128 7.336-2.634 2.556-.495 5.138-.614 7.697-.487 2.561.135 5.144.543 7.603 1.385a26.63 26.63 0 0 1 6.875 3.523c2.104 1.464 3.984 3.147 5.83 4.794 1.846 1.643 3.666 3.265 5.635 4.633a24.503 24.503 0 0 0 6.329 3.247c2.247.772 4.628 1.142 7.027 1.266 2.403.115 4.828-.004 7.174-.463 2.344-.463 4.623-1.242 6.725-2.396 1.059-.56 2.066-1.223 3.057-1.913a50.197 50.197 0 0 0 2.874-2.25c1.881-1.57 3.699-3.262 5.665-4.822.972-.79 2-1.526 3.055-2.223.537-.335 1.068-.68 1.63-.978.547-.32 1.121-.593 1.693-.87 2.302-1.083 4.785-1.753 7.285-2.095 2.506-.334 5.031-.355 7.536-.118 2.502.25 4.995.797 7.328 1.762 2.335.959 4.508 2.272 6.481 3.804 3.97 3.036 7.289 6.768 11.464 9.376 2.06 1.33 4.333 2.312 6.697 2.964 2.368.653 4.834.923 7.298.946.073 0 .133.06.132.133 0 .073-.06.132-.132.133" mask="url(#f)"/>
        </g>
        <path fill="#131B3C" d="M153.55 51.153l.132-.001c.158-.107.315-.216.475-.32.538-.336 1.068-.68 1.63-.979.547-.32 1.121-.593 1.693-.87 2.302-1.082 4.785-1.753 7.286-2.095a32.26 32.26 0 0 1 4.942-.266 33.626 33.626 0 0 0 4.217-3.06l-.024-20.725-20.725.024.01 9.068 10.568-.012.009 6.817c-2.657 1.912-6.066 2.87-9.883 2.876-8.454.009-14.461-6.393-14.471-15.12l-.001-.136c-.01-8.112 6.05-14.87 13.687-14.878 5.522-.006 8.797 1.762 12.482 4.826l6.603-7.984c-4.981-4.221-10.165-6.533-18.755-6.524-14.454.018-25.01 11.142-24.993 24.709v.137c.016 14.112 10.255 24.531 25.118 24.513M107.648 12.146c5.114-.007 8.253 2.308 8.257 6.807l.001.136c.005 4.023-2.924 6.754-8.038 6.759l-10.634.013-.016-13.703 10.43-.012zm-13.737 35.29c1.149.39 2.268.862 3.35 1.404l-.017-13.707 8.249-.01 10.17 15.148a26.45 26.45 0 0 1 5.054-1.537 30.606 30.606 0 0 1 5.806-.534L116.33 33.34c6.065-2.26 10.218-7.105 10.21-14.809v-.135c-.006-4.5-1.442-8.248-4.103-10.903-3.14-3.133-7.847-4.832-13.914-4.825l-21.817.025.05 43.386c2.414.159 4.839.564 7.154 1.357zM62.158 15l6.358 15.469-12.681.015L62.158 15zM47.794 50.348c-1.777-.385-3.602-.59-5.434-.663h-.004a.133.133 0 0 1 .003-.266l1.866-.02 1.87.086c.62.07 1.242.136 1.863.223l.09.016 4.047-9.965 20.181-.022 3.128 7.647a27.205 27.205 0 0 1 3.207-.847c2.372-.459 4.766-.592 7.143-.508L67.12 2.38l-9.682.013-20.396 48.088 10.703-.012.049-.121z"/>
        <mask id="h" fill="#fff">
            <use xlink:href="#g"/>
        </mask>
        <path fill="#131B3C" d="M21.765 83.536h1.774v-8.068h-1.774zM24.911 77.358h1.752v.876c.403-.518.922-.99 1.81-.99 1.325 0 2.096.875 2.096 2.293v3.999h-1.751V80.09c0-.83-.392-1.256-1.06-1.256-.669 0-1.095.426-1.095 1.256v3.446H24.91v-6.178zM31.919 81.784v-2.927h-.738v-1.499h.738V75.78h1.751v1.578h1.452v1.499H33.67v2.639c0 .403.173.599.565.599.323 0 .611-.08.865-.22v1.407c-.37.219-.796.357-1.384.357-1.071 0-1.797-.426-1.797-1.855M39.836 79.963c-.104-.784-.565-1.314-1.302-1.314-.726 0-1.199.519-1.337 1.314h2.639zm-4.356.519v-.023c0-1.763 1.256-3.216 3.054-3.216 2.063 0 3.007 1.602 3.007 3.354 0 .138-.01.3-.022.46H37.22c.173.796.726 1.211 1.51 1.211.588 0 1.014-.184 1.498-.634l1.003.887c-.577.715-1.407 1.153-2.524 1.153-1.856 0-3.227-1.303-3.227-3.192zM42.383 77.358h1.752v1.245c.357-.853.934-1.406 1.97-1.36v1.833h-.092c-1.164 0-1.878.703-1.878 2.178v2.282h-1.752v-6.178zM46.74 77.358h1.752v.876c.403-.518.922-.99 1.81-.99 1.325 0 2.096.875 2.096 2.293v3.999h-1.751V80.09c0-.83-.392-1.256-1.06-1.256-.669 0-1.095.426-1.095 1.256v3.446H46.74v-6.178zM57.113 81.357v-.31c-.3-.139-.692-.231-1.118-.231-.75 0-1.21.3-1.21.853v.023c0 .472.391.749.956.749.818 0 1.372-.45 1.372-1.084m-4.023.404v-.023c0-1.348 1.026-1.97 2.49-1.97a4.39 4.39 0 0 1 1.51.253v-.104c0-.726-.45-1.13-1.326-1.13-.668 0-1.141.127-1.705.335l-.438-1.337c.68-.3 1.348-.495 2.397-.495.956 0 1.648.253 2.086.69.46.462.668 1.142.668 1.972v3.584h-1.694v-.669c-.427.473-1.014.784-1.867.784-1.164 0-2.12-.669-2.12-1.89M60.052 81.784v-2.927h-.738v-1.499h.738V75.78h1.752v1.578h1.451v1.499h-1.451v2.639c0 .403.173.599.564.599.323 0 .611-.08.865-.22v1.407c-.369.219-.795.357-1.383.357-1.072 0-1.798-.426-1.798-1.855M64.166 83.536h1.752v-6.178h-1.752v6.178zm-.046-6.857h1.844v-1.556H64.12v1.556zM71.76 80.482v-.023c0-.91-.656-1.706-1.624-1.706-1.003 0-1.602.772-1.602 1.682v.024c0 .91.657 1.705 1.625 1.705 1.002 0 1.602-.772 1.602-1.682m-4.956 0v-.023c0-1.775 1.43-3.216 3.354-3.216 1.913 0 3.33 1.418 3.33 3.192v.024c0 1.774-1.428 3.215-3.353 3.215-1.913 0-3.33-1.418-3.33-3.192M74.297 77.358h1.752v.876c.403-.518.922-.99 1.809-.99 1.325 0 2.097.875 2.097 2.293v3.999h-1.752V80.09c0-.83-.391-1.256-1.06-1.256-.668 0-1.094.426-1.094 1.256v3.446h-1.752v-6.178zM84.67 81.357v-.31c-.3-.139-.692-.231-1.119-.231-.749 0-1.21.3-1.21.853v.023c0 .472.392.749.957.749.818 0 1.371-.45 1.371-1.084m-4.022.404v-.023c0-1.348 1.026-1.97 2.49-1.97a4.39 4.39 0 0 1 1.509.253v-.104c0-.726-.45-1.13-1.325-1.13-.669 0-1.141.127-1.706.335l-.438-1.337c.68-.3 1.349-.495 2.398-.495.956 0 1.647.253 2.085.69.46.462.669 1.142.669 1.972v3.584h-1.695v-.669c-.426.473-1.014.784-1.866.784-1.164 0-2.12-.669-2.12-1.89M87.458 83.536h1.752v-8.413h-1.752zM93.22 79.525v-.023c0-2.293 1.73-4.172 4.207-4.172 1.521 0 2.432.507 3.18 1.245l-1.129 1.302c-.622-.564-1.255-.91-2.062-.91-1.36 0-2.34 1.129-2.34 2.512v.023c0 1.383.957 2.535 2.34 2.535.922 0 1.487-.369 2.12-.944l1.13 1.14c-.83.888-1.752 1.44-3.308 1.44-2.374 0-4.137-1.831-4.137-4.148M105.091 81.357v-.31c-.3-.139-.691-.231-1.117-.231-.75 0-1.21.3-1.21.853v.023c0 .472.391.749.956.749.818 0 1.371-.45 1.371-1.084m-4.022.404v-.023c0-1.348 1.026-1.97 2.49-1.97a4.39 4.39 0 0 1 1.51.253v-.104c0-.726-.45-1.13-1.326-1.13-.668 0-1.141.127-1.706.335l-.437-1.337c.68-.3 1.348-.495 2.397-.495.956 0 1.648.253 2.086.69.46.462.668 1.142.668 1.972v3.584h-1.694v-.669c-.427.473-1.014.784-1.867.784-1.164 0-2.12-.669-2.12-1.89M107.8 77.358h1.752v.876c.403-.518.922-.99 1.81-.99 1.325 0 2.097.875 2.097 2.293v3.999h-1.752V80.09c0-.83-.392-1.256-1.06-1.256s-1.095.426-1.095 1.256v3.446H107.8v-6.178zM114.22 80.482v-.023c0-1.764 1.348-3.216 3.238-3.216 1.164 0 1.89.392 2.466 1.038l-1.071 1.152c-.392-.415-.784-.68-1.406-.68-.876 0-1.498.772-1.498 1.682v.024c0 .945.61 1.705 1.567 1.705.588 0 .99-.253 1.417-.657l1.026 1.037c-.6.657-1.29 1.13-2.524 1.13-1.855 0-3.215-1.43-3.215-3.192M124.523 79.963c-.104-.784-.565-1.314-1.302-1.314-.726 0-1.199.519-1.337 1.314h2.64zm-4.356.519v-.023c0-1.763 1.256-3.216 3.054-3.216 2.063 0 3.008 1.602 3.008 3.354 0 .138-.012.3-.023.46h-4.299c.173.796.726 1.211 1.51 1.211.588 0 1.014-.184 1.498-.634l1.003.887c-.577.715-1.406 1.153-2.524 1.153-1.856 0-3.227-1.303-3.227-3.192zM127.07 77.358h1.753v1.245c.357-.853.933-1.406 1.97-1.36v1.833h-.092c-1.164 0-1.878.703-1.878 2.178v2.282h-1.752v-6.178zM134.251 79.525v-.023c0-2.293 1.787-4.172 4.23-4.172 1.452 0 2.327.392 3.169 1.107l-1.118 1.348c-.623-.519-1.175-.818-2.109-.818-1.29 0-2.316 1.14-2.316 2.512v.023c0 1.475 1.014 2.558 2.443 2.558.645 0 1.221-.16 1.67-.483v-1.153h-1.785v-1.533h3.503v3.504c-.83.703-1.97 1.279-3.446 1.279-2.512 0-4.24-1.764-4.24-4.149M147.055 79.963c-.103-.784-.564-1.314-1.302-1.314-.726 0-1.198.519-1.337 1.314h2.64zm-4.356.519v-.023c0-1.763 1.256-3.216 3.054-3.216 2.063 0 3.008 1.602 3.008 3.354 0 .138-.011.3-.023.46h-4.299c.173.796.727 1.211 1.51 1.211.588 0 1.015-.184 1.498-.634l1.003.887c-.576.715-1.406 1.153-2.524 1.153-1.855 0-3.227-1.303-3.227-3.192zM149.603 77.358h1.752v.876c.403-.518.922-.99 1.809-.99 1.325 0 2.097.875 2.097 2.293v3.999h-1.752V80.09c0-.83-.391-1.256-1.06-1.256-.668 0-1.094.426-1.094 1.256v3.446h-1.752v-6.178zM160.978 80.482v-.023c0-.91-.657-1.706-1.625-1.706-1.003 0-1.602.772-1.602 1.682v.024c0 .91.657 1.705 1.625 1.705 1.003 0 1.602-.772 1.602-1.682m-4.955 0v-.023c0-1.775 1.429-3.216 3.353-3.216 1.913 0 3.33 1.418 3.33 3.192v.024c0 1.774-1.428 3.215-3.353 3.215-1.913 0-3.33-1.418-3.33-3.192M163.514 77.358h1.751v.876c.404-.518.934-.99 1.821-.99.807 0 1.418.357 1.74.979.542-.634 1.188-.98 2.029-.98 1.302 0 2.086.784 2.086 2.27v4.023h-1.752V80.09c0-.83-.369-1.256-1.026-1.256s-1.06.426-1.06 1.256v3.446h-1.752V80.09c0-.83-.369-1.256-1.025-1.256-.657 0-1.06.426-1.06 1.256v3.446h-1.752v-6.178zM178.058 79.963c-.104-.784-.565-1.314-1.302-1.314-.726 0-1.199.519-1.337 1.314h2.64zm-4.356.519v-.023c0-1.763 1.256-3.216 3.054-3.216 2.063 0 3.008 1.602 3.008 3.354 0 .138-.012.3-.023.46h-4.299c.173.796.726 1.211 1.51 1.211.588 0 1.014-.184 1.498-.634l1.003.887c-.577.715-1.406 1.153-2.524 1.153-1.856 0-3.227-1.303-3.227-3.192zM183.43 79.525v-.023c0-2.293 1.728-4.172 4.206-4.172 1.52 0 2.431.507 3.18 1.245l-1.13 1.302c-.622-.564-1.255-.91-2.062-.91-1.36 0-2.34 1.129-2.34 2.512v.023c0 1.383.957 2.535 2.34 2.535.922 0 1.487-.369 2.12-.944l1.13 1.14c-.83.888-1.752 1.44-3.308 1.44-2.374 0-4.137-1.831-4.137-4.148M196.187 80.482v-.023c0-.91-.657-1.706-1.625-1.706-1.002 0-1.602.772-1.602 1.682v.024c0 .91.657 1.705 1.625 1.705 1.003 0 1.602-.772 1.602-1.682m-4.955 0v-.023c0-1.775 1.429-3.216 3.353-3.216 1.913 0 3.33 1.418 3.33 3.192v.024c0 1.774-1.428 3.215-3.353 3.215-1.913 0-3.33-1.418-3.33-3.192M198.723 77.358h1.752v.876c.403-.518.922-.99 1.81-.99 1.325 0 2.096.875 2.096 2.293v3.999h-1.751V80.09c0-.83-.392-1.256-1.06-1.256-.669 0-1.095.426-1.095 1.256v3.446h-1.752v-6.178zM204.958 82.717l.75-1.152c.668.484 1.37.737 1.947.737.507 0 .738-.184.738-.46v-.023c0-.38-.6-.508-1.28-.715-.864-.254-1.844-.657-1.844-1.855v-.024c0-1.256 1.015-1.959 2.26-1.959.783 0 1.636.265 2.304.715l-.668 1.21c-.611-.357-1.222-.576-1.671-.576-.427 0-.646.184-.646.426v.023c0 .346.588.507 1.256.738.865.288 1.867.703 1.867 1.832v.023c0 1.371-1.025 1.994-2.362 1.994a4.327 4.327 0 0 1-2.65-.934M215.423 80.482v-.023c0-.91-.657-1.706-1.625-1.706-1.002 0-1.602.772-1.602 1.682v.024c0 .91.657 1.705 1.625 1.705 1.003 0 1.602-.772 1.602-1.682m-4.955 0v-.023c0-1.775 1.429-3.216 3.353-3.216 1.913 0 3.33 1.418 3.33 3.192v.024c0 1.774-1.428 3.215-3.353 3.215-1.913 0-3.33-1.418-3.33-3.192M217.959 77.358h1.752v1.245c.357-.853.933-1.406 1.97-1.36v1.833h-.092c-1.164 0-1.878.703-1.878 2.178v2.282h-1.752v-6.178zM222.604 81.784v-2.927h-.738v-1.499h.738V75.78h1.751v1.578h1.452v1.499h-1.452v2.639c0 .403.173.599.565.599.323 0 .61-.08.864-.22v1.407c-.369.219-.795.357-1.383.357-1.071 0-1.797-.426-1.797-1.855M226.718 83.536h1.751v-6.178h-1.751v6.178zm-.046-6.857h1.844v-1.556h-1.844v1.556zM229.61 81.357v-3.999h1.752v3.446c0 .83.392 1.256 1.06 1.256.669 0 1.095-.426 1.095-1.256v-3.446h1.752v6.178h-1.752v-.876c-.403.518-.922.99-1.809.99-1.325 0-2.097-.875-2.097-2.293M236.376 77.358h1.752v.876c.403-.518.933-.99 1.82-.99.807 0 1.418.357 1.74.979.542-.634 1.188-.98 2.029-.98 1.302 0 2.086.784 2.086 2.27v4.023h-1.752V80.09c0-.83-.369-1.256-1.026-1.256-.656 0-1.06.426-1.06 1.256v3.446h-1.752V80.09c0-.83-.368-1.256-1.025-1.256-.657 0-1.06.426-1.06 1.256v3.446h-1.752v-6.178zM86.56 91.681h-2.455v-1.636h6.684v1.636h-2.455v6.431H86.56zM91.446 89.7h1.752v3.11c.403-.518.922-.99 1.81-.99 1.325 0 2.097.875 2.097 2.293v3.999h-1.752v-3.446c0-.83-.392-1.256-1.06-1.256s-1.095.426-1.095 1.256v3.446h-1.752v-8.413zM102.222 94.54c-.103-.784-.564-1.314-1.302-1.314-.726 0-1.198.518-1.337 1.313h2.64zm-4.356.518v-.023c0-1.763 1.256-3.215 3.054-3.215 2.063 0 3.008 1.601 3.008 3.353 0 .138-.011.3-.023.46h-4.299c.173.796.727 1.211 1.51 1.211.588 0 1.015-.184 1.498-.634l1.003.888c-.576.714-1.406 1.152-2.524 1.152-1.855 0-3.227-1.302-3.227-3.192zM112.583 94.735l-1.072-2.616-1.071 2.616h2.143zm-1.867-4.748h1.637l3.457 8.125h-1.855l-.738-1.81h-3.411l-.738 1.81h-1.809l3.457-8.125zM120.167 93.963c.864 0 1.36-.46 1.36-1.14v-.024c0-.76-.53-1.152-1.395-1.152h-1.763v2.316h1.798zm-3.573-3.918h3.688c1.026 0 1.821.288 2.351.818.45.45.692 1.083.692 1.844v.023c0 1.302-.703 2.12-1.729 2.5l1.97 2.882h-2.074l-1.728-2.582h-1.395v2.582h-1.775v-8.067zM124.109 94.101v-.022c0-2.294 1.786-4.172 4.23-4.172 1.452 0 2.327.391 3.169 1.106l-1.118 1.348c-.622-.518-1.176-.818-2.11-.818-1.29 0-2.315 1.14-2.315 2.512v.024c0 1.475 1.013 2.558 2.443 2.558.645 0 1.221-.161 1.67-.484V95h-1.786v-1.532h3.504v3.503c-.83.703-1.97 1.28-3.446 1.28-2.512 0-4.241-1.764-4.241-4.15M139.403 94.101v-.022c0-1.383-1.014-2.536-2.443-2.536-1.43 0-2.42 1.13-2.42 2.512v.024c0 1.382 1.014 2.535 2.443 2.535s2.42-1.13 2.42-2.513m-6.719 0v-.022c0-2.294 1.81-4.172 4.299-4.172 2.49 0 4.276 1.855 4.276 4.148v.024c0 2.292-1.81 4.171-4.299 4.171-2.49 0-4.276-1.855-4.276-4.149M148.554 94.113c.887 0 1.406-.53 1.406-1.222v-.023c0-.795-.553-1.221-1.44-1.221h-1.372v2.466h1.406zm-3.181-4.068h3.296c1.925 0 3.088 1.14 3.088 2.789v.023c0 1.867-1.451 2.835-3.261 2.835h-1.348v2.42h-1.775v-8.067zM152.427 91.935h1.752v1.244c.357-.852.933-1.406 1.97-1.36v1.833h-.092c-1.164 0-1.878.703-1.878 2.178v2.282h-1.752v-6.177zM161.266 95.058v-.023c0-.91-.656-1.706-1.625-1.706-1.002 0-1.602.772-1.602 1.683v.023c0 .91.657 1.705 1.626 1.705 1.002 0 1.601-.771 1.601-1.682m-4.955 0v-.023c0-1.775 1.43-3.216 3.354-3.216 1.912 0 3.33 1.418 3.33 3.193v.023c0 1.775-1.429 3.215-3.354 3.215-1.913 0-3.33-1.417-3.33-3.192M163.837 91.255h1.843V89.7h-1.843v1.556zm-.945 8.666V98.55c.138.023.242.034.368.034.37 0 .623-.196.623-.714v-5.935h1.751v6.073c0 1.36-.69 1.982-1.982 1.982-.323 0-.518-.023-.76-.069zM170.878 94.54c-.104-.784-.565-1.314-1.302-1.314-.726 0-1.198.518-1.337 1.313h2.64zm-4.356.518v-.023c0-1.763 1.256-3.215 3.054-3.215 2.063 0 3.008 1.601 3.008 3.353 0 .138-.012.3-.023.46h-4.299c.173.796.726 1.211 1.51 1.211.588 0 1.014-.184 1.498-.634l1.003.888c-.576.714-1.406 1.152-2.524 1.152-1.856 0-3.227-1.302-3.227-3.192zM173.126 95.058v-.023c0-1.763 1.348-3.216 3.238-3.216 1.164 0 1.89.393 2.466 1.038l-1.071 1.152c-.392-.414-.784-.68-1.406-.68-.876 0-1.498.772-1.498 1.683v.023c0 .945.61 1.705 1.567 1.705.588 0 .991-.253 1.417-.657l1.026 1.038c-.6.656-1.29 1.13-2.524 1.13-1.855 0-3.215-1.43-3.215-3.193M179.834 96.36v-2.927h-.738v-1.498h.738v-1.58h1.751v1.58h1.452v1.498h-1.452v2.639c0 .404.173.6.565.6.323 0 .61-.081.864-.22v1.406c-.368.22-.795.358-1.383.358-1.071 0-1.797-.427-1.797-1.856" mask="url(#h)"/>
        <path fill="#DE1D43" d="M206.122 19.594c-.886-2.229-2.224-3.783-3.724-4.12-.033-.001-.067-.005-.1-.007v4.127h3.824zM196.351 25.3h4.93v-4.69h-4.182c-.434 1.401-.703 3-.748 4.69M197.1 31.005h4.18v-4.689h-4.929c.045 1.69.314 3.288.748 4.689M207.566 31.005h3.138a10.363 10.363 0 0 0 1.342-4.689h-3.802c-.04 1.693-.28 3.278-.678 4.689M201.28 19.594v-4.142h-.007c-1.539.292-2.913 1.867-3.817 4.142h3.825zM207.566 20.61c.399 1.412.638 2.997.678 4.69h3.796a10.363 10.363 0 0 0-1.408-4.69h-3.066zM207.24 19.594h2.715a10.45 10.45 0 0 0-4.741-3.518c.817.889 1.51 2.089 2.025 3.518M201.28 36.165v-4.143h-3.824c.906 2.279 2.283 3.856 3.825 4.143M196.339 32.022h-3.128a10.44 10.44 0 0 0 5.485 3.855c-.962-.91-1.773-2.237-2.357-3.855M192.627 20.61a10.363 10.363 0 0 0-1.409 4.69h4.116c.04-1.693.28-3.278.679-4.69h-3.386zM195.334 26.316h-4.12c.07 1.7.55 3.294 1.34 4.689h3.459c-.399-1.411-.639-2.996-.679-4.689M207.24 32.022c-.553 1.531-1.308 2.8-2.203 3.704a10.449 10.449 0 0 0 5.01-3.704h-2.808zM207.227 26.316h-4.93v4.689h4.182c.434-1.4.703-2.999.748-4.689M202.298 32.022v4.143c1.541-.287 2.919-1.864 3.824-4.143h-3.824zM196.339 19.594c.547-1.517 1.294-2.776 2.178-3.678a10.449 10.449 0 0 0-5.214 3.678h3.036zM206.48 20.61h-4.182v4.69h4.93c-.046-1.69-.315-3.289-.749-4.69" mask="url(#h)"/>
    </g>
</svg>
