<svg xmlns="http://www.w3.org/2000/svg" width="286" height="300" viewBox="0 0 286 300">
    <g fill="none" fill-rule="evenodd">
        <path fill="#272727" d="M281.502 79.81c-3.367-1.506-7.401.083-8.99 3.536-.091.194-9.263 19.666-27.983 36.756-10.968 10.014-23.027 17.266-35.842 21.559-15.857 5.313-33.035 6.109-51.067 2.372l-.558-.116c-20.794-4.414-40.354-5.264-58.135-2.527-15.83 2.436-30.304 7.702-43.026 15.654-29.305 18.32-39.824 44.275-42.987 54.586-.89 2.902.155 5.952 2.602 7.588a6.435 6.435 0 0 0 1.823.845c3.555 1.018 7.354-1.11 8.47-4.742 2.693-8.783 11.684-30.912 36.934-46.693 11.111-6.947 23.833-11.56 37.81-13.712 16.176-2.488 34.128-1.682 53.353 2.397 20.592 4.369 40.33 3.47 58.667-2.673 14.668-4.914 28.406-13.158 40.832-24.5 20.926-19.103 30.904-40.422 31.32-41.323 1.59-3.455.148-7.5-3.223-9.007"/>
        <path fill="#272727" d="M140.63 124.032c-10.374-12.921-16.959-26.876-19.565-41.475-2.091-11.716-1.66-23.93 1.285-36.304 5.039-21.169 15.916-35.784 16.021-35.924 1.018-1.338 1.42-3.004 1.134-4.69-.292-1.712-1.254-3.239-2.712-4.3-2.962-2.15-7.091-1.658-9.194 1.102-.502.659-12.382 16.42-18.086 40.175-5.315 22.136-6.016 55.54 20.82 88.961a6.96 6.96 0 0 0 2.255 1.842c2.268 1.168 5.012 1.005 6.989-.415a5.944 5.944 0 0 0 2.47-4.163c.208-1.706-.294-3.413-1.417-4.81M168.5 167.589a6.91 6.91 0 0 0-2.255-1.844c-2.267-1.17-5.014-1-6.996.431a6 6 0 0 0-2.483 4.185c-.212 1.713.289 3.426 1.407 4.825 10.359 12.952 16.922 26.95 19.501 41.603 2.069 11.76 1.611 24.025-1.364 36.456-5.088 21.264-16.01 35.963-16.114 36.103-1.02 1.345-1.427 3.019-1.144 4.712.288 1.719 1.247 3.25 2.707 4.311 2.96 2.154 7.095 1.65 9.203-1.125.505-.664 12.43-16.513 18.191-40.377 5.367-22.238 6.143-55.78-20.653-89.28"/>
        <path fill="#F95D31" d="M170.223 121.975l-10.048-5.484 2.982-5.461 10.045 5.484zM158.523 110.864c-2.744 5.026-9.043 6.876-14.07 4.132-5.026-2.743-6.876-9.042-4.133-14.068 2.744-5.027 9.043-6.877 14.07-4.134 5.026 2.744 6.876 9.043 4.133 14.07M193.713 130.073c-2.743 5.027-9.043 6.876-14.07 4.133-5.026-2.744-6.875-9.042-4.132-14.07 2.743-5.026 9.043-6.876 14.07-4.131 5.025 2.742 6.875 9.041 4.132 14.068"/>
        <path fill="#7F55CC" d="M166.71 38.156c-2.743 5.026-9.043 6.876-14.07 4.133-5.026-2.744-6.875-9.043-4.132-14.07 2.743-5.026 9.043-6.876 14.07-4.132 5.025 2.743 6.876 9.042 4.132 14.069M249.226 83.198c-2.743 5.027-9.043 6.877-14.07 4.134-5.026-2.744-6.875-9.043-4.132-14.07 2.743-5.026 9.043-6.876 14.07-4.133 5.025 2.744 6.876 9.043 4.132 14.07"/>
        <path fill="#0774D3" d="M227.812 110.885c-2.743 5.027-9.043 6.878-14.07 4.134-5.026-2.744-6.875-9.043-4.132-14.07 2.743-5.026 9.043-6.876 14.07-4.132 5.025 2.743 6.876 9.042 4.132 14.068"/>
        <path fill="#24DBB4" d="M123.415 175.177c2.743-5.027.893-11.325-4.132-14.068-5.027-2.744-11.327-.894-14.07 4.132-2.742 5.027-.894 11.326 4.133 14.07 5.026 2.744 11.326.893 14.07-4.134M158.607 194.387c2.743-5.027.893-11.325-4.134-14.07-5.027-2.743-11.325-.893-14.07 4.134-2.742 5.027-.893 11.325 4.134 14.07 5.027 2.742 11.325.893 14.07-4.134"/>
        <path fill="#DF1B42" d="M66.689 221.39c2.743-5.028.893-11.326-4.133-14.069-5.026-2.744-11.326-.893-14.07 4.132-2.742 5.027-.894 11.326 4.133 14.07 5.027 2.744 11.327.893 14.07-4.134M149.205 266.432c2.743-5.027.893-11.325-4.133-14.068-5.026-2.744-11.326-.894-14.07 4.132-2.742 5.027-.894 11.326 4.133 14.07 5.027 2.743 11.327.893 14.07-4.134"/>
        <path fill="#4BCEE5" d="M89.316 194.365c2.743-5.027.893-11.326-4.133-14.069-5.027-2.744-11.326-.894-14.069 4.133-2.744 5.026-.894 11.325 4.133 14.07 5.026 2.742 11.326.892 14.07-4.134M160.911 233.446c2.743-5.027.893-11.325-4.133-14.07-5.027-2.742-11.326-.892-14.07 4.134-2.743 5.027-.893 11.326 4.134 14.068 5.026 2.745 11.325.895 14.07-4.132"/>
        <path fill="#7F55CC" d="M224.846 73.04l-53.393-29.146 2.98-5.46 53.392 29.145z"/>
        <path fill="#DF1B42" d="M124.824 256.273l-53.392-29.145 2.98-5.46 53.392 29.145z"/>
        <path fill="#4BCEE5" d="M138.133 224.162L91.63 198.778l2.982-5.46 46.499 25.384z"/>
        <path fill="#0774D3" d="M205.034 101.601l-46.5-25.382 2.98-5.46 46.5 25.382z"/>
        <path fill="#24DBB4" d="M135.778 185.076l-10.048-5.484 2.982-5.461 10.047 5.484z"/>
        <path fill="#0774D3" d="M156.218 71.804c-2.744 5.027-9.042 6.877-14.07 4.134-5.026-2.744-6.876-9.043-4.133-14.07 2.744-5.026 9.043-6.876 14.07-4.133 5.027 2.744 6.876 9.043 4.133 14.07"/>
        <path fill="#FEA430" d="M.8 116.588c-2.37 6.152.704 13.076 6.85 15.443a15.542 15.542 0 0 0 11.972-.303l86.16-39.87a8.939 8.939 0 0 1 9.003.896c2.374 1.728 4.056 2.76 5.3 3.238a29.982 29.982 0 0 0 23.648-.943c7.488-3.592 13.01-7.194 15.538-15.141a2.992 2.992 0 0 0-.568-2.841c-.687-.809-1.833-1.29-2.881-1.11l-18.76 3.274c-3.714-4.182-5.008-15.327-3.543-20.642l20.962-3.656a2.992 2.992 0 0 0 2.194-1.675 2.981 2.981 0 0 0-.123-2.754c-3.376-5.85-8.362-7.511-14.417-9.998-6.71-2.681-14.625-2.53-22.004.745-9.452 4.192-15.674 12.108-17.978 22.887-.62 2.89-2.578 5.296-5.238 6.434L9.087 107.898c-3.86 1.713-6.787 4.796-8.287 8.69"/>
    </g>
</svg>
