<svg xmlns="http://www.w3.org/2000/svg" width="12" height="12" viewBox="0 0 12 12">
    <g fill="none" fill-rule="evenodd">
        <path fill="#0774D3" d="M2.123 5.042l.015.013.007.003c.036.026.08.043.132.05a.335.335 0 0 0 .05.005h7.545c.302 0 .41-.35.233-.56L8.83 3.048C8.152 2.248 7.477 1.45 6.798.65 6.641.466 6.487.282 6.33.096c-.108-.128-.358-.128-.462 0L4.593 1.6c-.679.8-1.354 1.6-2.032 2.399-.157.183-.312.367-.469.554-.114.134-.13.33 0 .462l.031.027"/>
        <path fill="#BABCC2" d="M2.123 6.959l.015-.014.007-.003a.298.298 0 0 1 .132-.05.335.335 0 0 1 .05-.005h7.545c.302 0 .41.35.233.56L8.83 8.951c-.678.8-1.353 1.6-2.032 2.4-.157.183-.311.366-.468.553-.108.128-.358.128-.462 0L4.593 10.4C3.914 9.6 3.239 8.8 2.56 8l-.469-.554c-.114-.134-.13-.33 0-.462.01-.01.02-.018.031-.026"/>
    </g>
</svg>
